<svg width="188" height="191" viewBox="0 0 188 191" fill="none" xmlns="http://www.w3.org/2000/svg">
<g clip-path="url(#clip0_32_2690)">
<path d="M141.572 118.009C142.54 117.687 143.22 117.825 143.612 118.424L144.338 116.626C146.021 119.047 146.712 124.498 146.413 132.981C146.067 142.639 144.28 151.26 141.053 158.844C136.858 168.618 133.101 173.585 129.781 173.746L128.191 173.919L121.31 173.504C117.76 173.066 115.547 172.571 114.671 172.018L106.339 159.328C106.292 158.199 107.848 155.409 111.006 150.961C113.795 146.996 117.172 142.651 121.137 137.925C125.286 132.969 129.124 128.728 132.651 125.201C136.8 121.029 139.774 118.632 141.572 118.009Z" fill="#0D131A"/>
<path d="M112.977 166.485C116.343 162.29 120.872 158.763 126.566 155.905C132.559 152.908 137.457 151.929 141.261 152.966C140.592 155.525 139.797 157.956 138.875 160.262C136.823 165.471 134.852 168.975 132.962 170.773C131.856 171.81 130.53 172.363 128.986 172.432L128.225 172.502L121.448 171.983C117.991 171.453 115.881 170.957 115.121 170.496C114.775 170.289 114.141 169.136 113.219 167.039L112.977 166.485H112.943V166.451L112.977 166.485Z" fill="#5DC1CF"/>
<path d="M142.817 118.977C143.946 120.614 144.453 124.74 144.338 131.356C144.2 138.778 143.174 145.982 141.261 152.966C137.457 151.929 132.559 152.908 126.566 155.905C120.872 158.763 116.331 162.29 112.943 166.485V166.451C111.998 164.422 111.191 162.924 110.522 161.956C109.485 160.458 108.413 159.559 107.307 159.259V159.19C107.307 158.383 108.505 156.251 110.903 152.793C113.507 148.99 116.838 144.633 120.895 139.723C125.344 134.352 129.424 129.8 133.135 126.066C136.823 122.354 139.555 120.061 141.33 119.185C142.137 118.747 142.632 118.678 142.817 118.977Z" fill="#50A8B4"/>
<path d="M142.056 129.108C142.978 130.192 143.439 131.068 143.439 131.736L143.404 132.013C142.528 135.793 141.168 139.193 139.324 142.213C137.757 144.771 135.383 147.71 132.202 151.03C130.196 153.127 127.015 155.213 122.659 157.288C117.818 159.593 112.862 161.207 107.791 162.129L109.001 171.188C109.485 175.66 109.727 178.99 109.727 181.18C109.727 181.803 109.543 182.471 109.174 183.186C108.943 183.993 108.505 184.569 107.86 184.915C106.131 185.86 102.938 186.597 98.2821 187.127C93.672 187.635 90.8713 187.6 89.8801 187.024C85.8692 184.649 81.4665 179.878 76.6719 172.709C71.7851 165.425 68.5695 158.717 67.0251 152.586C64.6969 151.664 62.2305 150.396 59.6257 148.782C57.0901 147.215 55.1078 145.751 53.6786 144.391C53.0562 147.042 51.9152 149.474 50.2555 151.687C49.4487 152.77 48.6881 153.6 47.9735 154.176C47.0284 155.329 43.663 155.859 37.8772 155.767L29.4751 155.248C27.8616 154.971 26.6514 154.453 25.8446 153.692C24.9687 152.839 24.45 151.583 24.2887 149.923C24.0121 147.249 24.0927 144.61 24.5307 142.005L25.1185 137.752L25.4988 134.675C25.6371 133.937 25.6256 132.854 25.4643 131.425L25.1877 129.489C24.3348 122.919 24.1619 118.055 24.669 114.897C25.2914 111.071 27.2738 106.184 30.6161 100.237C34.4195 93.483 40.0324 88.5732 47.4548 85.5074C51.8806 83.6864 56.4793 82.6491 61.2508 82.3955C64.8698 82.2111 71.9119 84.7467 82.377 90.0024C88.693 93.1603 95.5391 96.9292 102.915 101.309C112.205 106.818 120.492 112.166 127.776 117.352C135.06 122.539 139.82 126.457 142.056 129.108Z" fill="#0D131A"/>
<path d="M48.3884 86.5447C52.6759 84.6545 56.9749 83.5942 61.2854 83.3637C66.564 83.0871 81.5702 91.0857 106.304 107.36C118.682 115.52 130.519 123.726 141.814 131.978C140.8 135.344 139.509 138.363 137.941 141.037C136.051 144.241 133.608 147.261 130.611 150.096C127.246 153.254 122.52 155.893 116.435 158.014C112.055 159.559 109.139 160.331 107.687 160.331C107.364 160.331 107.122 159.778 106.961 158.671L106.615 155.663C106.546 154.718 106.258 154.407 105.751 154.729C105.267 155.052 105.117 155.801 105.301 156.977C105.877 160.066 106.546 164.607 107.307 170.6C108.206 177.815 108.517 181.929 108.24 182.944C108.24 183.105 107.975 183.336 107.445 183.635C105.808 184.511 102.823 185.237 98.4896 185.814L90.8482 186.125C90.1336 185.917 88.739 184.776 86.6644 182.702C84.1288 180.212 81.7085 177.354 79.4034 174.127C72.6956 164.791 68.8576 155.26 67.8895 145.532C67.682 143.411 67.4054 141.982 67.0596 141.245C66.6908 140.553 66.4373 140.807 66.299 142.005C66.0915 143.573 66.2413 146.454 66.7484 150.649C61.8616 148.782 56.7559 145.186 51.4311 139.862C43.5477 132.001 39.1334 123.173 38.1883 113.376C38.0731 112.154 37.9002 111.301 37.6697 110.817C37.4392 110.356 37.2433 110.379 37.0819 110.886C36.667 112.247 36.8514 115.151 37.6351 119.6C38.2114 122.735 39.1565 125.628 40.4704 128.278C42.9368 133.165 46.8901 138.213 52.3301 143.423C52.0996 144.783 51.6155 146.247 50.8779 147.814C50.0711 149.543 49.103 151.076 47.9735 152.413C47.5355 152.989 46.5443 153.496 44.9999 153.934C41.9341 154.833 37.6236 154.983 32.0683 154.384L30.6161 154.107C29.0025 153.83 27.7924 153.277 26.9856 152.447C26.248 151.687 25.81 150.626 25.6717 149.266C25.5334 147.584 25.6486 145.59 26.0175 143.285L26.8127 137.994C27.0432 135.989 27.1008 134.364 26.9856 133.119C26.2941 125.973 26.029 121.282 26.1903 119.047C26.6283 113.007 28.6453 106.968 32.2412 100.928C36.0907 94.4051 41.4731 89.6105 48.3884 86.5447Z" fill="#5DC1CF"/>
<path d="M56.5484 138.893C60.1674 140.553 63.4176 141.59 66.299 142.005C66.0915 143.573 66.2413 146.454 66.7485 150.649C63.0373 149.22 58.8881 146.512 54.301 142.524C47.6853 136.784 43.0521 130.318 40.4012 123.127C43.928 130.295 49.3104 135.551 56.5484 138.893Z" fill="#50A8B4"/>
<path d="M52.3301 143.423C52.0996 144.783 51.6155 146.247 50.8779 147.814C50.0711 149.543 49.103 151.076 47.9735 152.413L46.4521 153.415C44.9077 154.107 42.7985 154.522 40.1246 154.66C43.5592 153.3 45.0806 149.704 44.6887 143.872C44.343 139.032 42.8446 133.638 40.1938 127.691C42.6372 132.808 46.6826 138.052 52.3301 143.423Z" fill="#50A8B4"/>
<path d="M44.6887 88.2735C47.7084 86.5447 50.9932 85.2423 54.543 84.3664C56.8942 83.8132 59.1417 83.4789 61.2854 83.3637C66.5641 83.0871 81.5702 91.0857 106.304 107.36C118.682 115.52 130.519 123.726 141.814 131.978C140.8 135.344 139.509 138.363 137.941 141.037C136.051 144.241 133.608 147.261 130.611 150.096C127.246 153.254 122.52 155.893 116.435 158.014C112.055 159.559 109.139 160.331 107.687 160.331C107.364 160.331 107.122 159.778 106.961 158.671L106.615 155.663C106.546 154.718 106.258 154.407 105.751 154.729C105.267 155.052 105.117 155.801 105.301 156.977C105.877 160.066 106.546 164.607 107.307 170.6C108.206 177.815 108.517 181.929 108.24 182.944C108.24 183.105 107.975 183.336 107.445 183.635L105.993 184.223C106.108 177.654 105.347 172.133 103.711 167.661C101.037 160.331 96.0577 155.213 88.7736 152.309C87.2523 137.464 84.4631 125.708 80.4061 117.041C73.0759 101.459 61.1701 91.8695 44.6887 88.2735Z" fill="#50A8B4"/>
<path d="M32.6562 150.822C33.0942 150.868 33.6935 151.341 34.4542 152.24C35.261 153.185 35.6413 154.026 35.5952 154.764C35.5491 155.548 35.2149 156.401 34.5925 157.323C33.9701 158.245 33.4515 158.706 33.0366 158.706C32.6216 158.706 31.9416 158.106 30.9965 156.908C30.0515 155.732 29.5789 154.925 29.5789 154.487C29.5559 154.072 29.9708 153.358 30.8237 152.344C31.6765 151.306 32.2874 150.799 32.6562 150.822Z" fill="#0D131A"/>
<path d="M34.2812 153.208C34.6961 153.853 34.8921 154.338 34.869 154.66C34.869 155.006 34.627 155.594 34.1429 156.424C33.6358 157.23 33.29 157.634 33.1056 157.634C32.8751 157.634 32.3795 157.242 31.6188 156.458C30.8351 155.651 30.4663 155.064 30.5124 154.695C30.5354 154.349 31.008 153.531 31.93 152.24C32.1836 151.871 32.4026 151.664 32.587 151.617C32.7483 151.594 32.9673 151.698 33.2439 151.929L34.2812 153.208Z" fill="white"/>
<path d="M38.223 155.525C38.1769 155.156 38.5457 154.361 39.3294 153.139C40.1362 151.871 40.747 151.214 41.162 151.168C41.5999 151.145 42.2338 151.675 43.0637 152.759C43.8935 153.865 44.2508 154.66 44.1355 155.144L43.5131 157.184C43.1213 158.083 42.6948 158.66 42.2338 158.913C41.7728 159.167 40.9891 158.752 39.8826 157.668C38.8453 156.654 38.2921 155.94 38.223 155.525Z" fill="#0D131A"/>
<path d="M41.1619 152.171C41.3694 152.102 41.7843 152.482 42.4067 153.312C43.029 154.165 43.3748 154.833 43.444 155.317L42.8907 156.839C42.4989 157.645 42.1992 158.083 41.9918 158.152C41.7613 158.222 41.208 157.876 40.3321 157.115C39.4792 156.354 39.0297 155.824 38.9836 155.525C38.9606 155.225 39.2717 154.603 39.9172 153.657C40.5396 152.759 40.9545 152.263 41.1619 152.171Z" fill="white"/>
<path d="M45.6569 154.487C45.6569 153.957 45.8759 153.22 46.3139 152.274C46.8671 151.122 47.4895 150.384 48.181 150.062C48.9186 149.693 49.6793 150.43 50.4631 152.274C51.2237 154.072 51.4658 155.49 51.1892 156.527C51.0509 157.104 50.0827 157.011 48.2847 156.251C46.5098 155.467 45.6339 154.879 45.6569 154.487Z" fill="#0D131A"/>
<path d="M48.1119 150.857C48.4346 150.742 48.9071 151.479 49.5295 153.07C50.1519 154.614 50.4285 155.49 50.3593 155.697C50.3132 155.836 49.7139 155.686 48.5614 155.248C47.3627 154.81 46.7173 154.453 46.6251 154.176C46.5329 153.853 46.6712 153.254 47.04 152.378C47.4319 151.502 47.7891 150.995 48.1119 150.857Z" fill="white"/>
<path d="M90.2604 186.401C90.3526 185.733 90.7099 185.03 91.3323 184.292C91.9546 183.578 92.4848 183.197 92.9228 183.151C93.476 183.128 94.0868 183.462 94.7553 184.154C95.3546 184.799 95.735 185.433 95.8963 186.056C95.9885 186.424 95.7465 187.335 95.1702 188.787C94.5709 190.262 94.1214 190.965 93.8218 190.896C93.4299 190.804 92.7384 190.136 91.7472 188.891C90.7099 187.623 90.2143 186.793 90.2604 186.401Z" fill="#0D131A"/>
<path d="M91.2978 186.609C91.3439 186.148 91.5168 185.664 91.8164 185.157C92.1391 184.58 92.4734 184.246 92.8191 184.154C93.1879 184.039 93.672 184.315 94.2713 184.984C94.8246 185.583 95.1127 186.056 95.1358 186.401L94.6171 188.13C94.2713 188.96 94.0062 189.421 93.8218 189.513C93.6144 189.605 93.1418 189.248 92.4042 188.441C91.6435 187.588 91.2747 186.978 91.2978 186.609Z" fill="white"/>
<path d="M100.564 182.148C101.048 182.102 101.809 182.425 102.846 183.117C103.976 183.854 104.529 184.523 104.506 185.122L104.056 187.992C103.757 189.26 103.457 189.928 103.157 189.997C102.627 190.136 101.671 189.721 100.288 188.753C98.8815 187.784 98.1323 187.001 98.0401 186.401C97.994 185.963 98.3052 185.157 98.9737 183.981C99.6652 182.782 100.195 182.171 100.564 182.148Z" fill="#0D131A"/>
<path d="M100.945 183.22C101.152 183.174 101.613 183.393 102.328 183.877C103.065 184.361 103.457 184.73 103.503 184.984L103.33 187.024C103.146 188.13 102.973 188.729 102.812 188.822C102.604 188.937 101.936 188.58 100.806 187.75C99.6768 186.897 99.1121 186.309 99.1121 185.986C99.1121 185.664 99.3656 185.122 99.8727 184.361C100.38 183.647 100.737 183.266 100.945 183.22Z" fill="white"/>
<path d="M107.549 179.694C108.378 179.371 109.393 180.281 110.591 182.425C111.79 184.569 112.136 186.009 111.629 186.747C111.49 186.955 110.649 186.851 109.105 186.436L106.096 185.433L105.267 184.845C105.151 184.638 105.151 184.258 105.267 183.704C105.382 183.082 105.693 182.31 106.2 181.388C106.73 180.397 107.18 179.832 107.549 179.694Z" fill="#0D131A"/>
<path d="M107.964 180.696C108.77 181.157 109.485 182.056 110.107 183.393C110.637 184.569 110.856 185.329 110.764 185.675C110.695 185.883 109.98 185.756 108.62 185.295C107.284 184.834 106.534 184.511 106.373 184.327C106.212 184.119 106.35 183.416 106.788 182.218C107.226 180.996 107.618 180.489 107.964 180.696Z" fill="white"/>
<path d="M113.081 169.286C113.127 169.079 113.53 168.79 114.291 168.422C115.121 168.007 115.732 167.891 116.124 168.076C116.585 168.283 117.046 168.871 117.507 169.839C117.991 170.807 118.129 171.441 117.922 171.741L116.296 173.297C115.374 174.011 114.706 174.334 114.291 174.265C113.876 174.173 113.542 173.424 113.288 172.018C113.035 170.727 112.966 169.816 113.081 169.286Z" fill="#0D131A"/>
<path d="M115.709 168.698C115.939 168.744 116.227 169.113 116.573 169.805C116.896 170.496 117 170.946 116.884 171.153L115.743 172.432C115.075 173.078 114.648 173.401 114.464 173.401C114.303 173.401 114.153 172.847 114.014 171.741L113.876 169.805C113.899 169.62 114.153 169.378 114.637 169.079C115.144 168.779 115.501 168.652 115.709 168.698Z" fill="white"/>
<path d="M121.829 170.807C122.589 170.139 123.212 169.77 123.696 169.701C124.203 169.609 124.848 170.024 125.632 170.946C126.37 171.822 126.738 172.444 126.738 172.813C126.738 173.136 126.289 173.873 125.39 175.026C124.422 176.27 123.673 176.87 123.143 176.824C122.589 176.778 121.967 176.063 121.275 174.68C120.607 173.343 120.388 172.49 120.618 172.121C120.803 171.822 121.206 171.384 121.829 170.807Z" fill="#0D131A"/>
<path d="M123.8 170.427C124.076 170.519 124.457 170.819 124.941 171.326C125.517 171.902 125.77 172.34 125.701 172.64L124.491 174.645C123.73 175.637 123.258 176.121 123.073 176.098C122.843 176.098 122.497 175.556 122.036 174.472C121.552 173.389 121.379 172.675 121.518 172.329C121.656 171.96 122.025 171.534 122.624 171.049C123.223 170.542 123.615 170.335 123.8 170.427Z" fill="white"/>
<path d="M130.749 170.946C131.602 169.931 132.328 169.447 132.928 169.493C133.688 169.563 134.138 170.416 134.276 172.052C134.438 173.712 134.092 175.014 133.239 175.959C132.709 176.536 131.96 176.259 130.991 175.129C130.092 174.069 129.643 173.216 129.643 172.571C129.643 172.386 130.012 171.845 130.749 170.946Z" fill="#0D131A"/>
<path d="M131.683 171.188C132.282 170.588 132.674 170.369 132.859 170.531C133.043 170.692 133.227 171.038 133.412 171.568L133.654 172.882L133.343 173.988C133.135 174.657 132.928 175.083 132.72 175.268C132.513 175.452 132.109 175.106 131.51 174.23C130.98 173.447 130.68 172.882 130.611 172.536C130.819 172.167 131.176 171.718 131.683 171.188Z" fill="white"/>
<path d="M57.4475 39.8666L65.4346 44.3961L84.4862 65.2111L57.1017 69.8097L46.2447 65.6606C39.0298 62.8483 35.4684 61.3385 35.5606 61.1311C35.6528 60.9697 37.0589 60.1744 39.7789 58.7453L46.5559 55.011C44.781 55.6104 42.3261 56.6246 39.1911 58.0538L35.042 59.8863C34.7884 59.8633 33.4745 58.8836 31.1003 56.9473C28.703 54.988 27.585 53.9392 27.7464 53.8009L31.5152 51.7609C34.0969 50.3317 35.9294 49.11 37.0128 48.0958C35.0074 48.649 32.541 49.5595 29.6135 50.8273L25.7064 52.487C25.4297 52.4639 24.3233 51.6225 22.387 49.9629C20.4507 48.2802 19.5518 47.3581 19.6901 47.1968C19.8053 47.0585 20.7965 46.5629 22.6636 45.71L27.6772 43.3588L21.3497 44.5344L16.9931 45.2259C16.6012 45.2029 15.9904 44.9263 15.1606 44.3961C14.3538 43.8429 13.9389 43.4625 13.9158 43.2551C13.8928 43.0937 14.6765 42.6212 16.267 41.8374L20.1396 39.9357L15.5409 39.9011C13.6046 39.8089 12.7287 39.59 12.9131 39.2442C13.0975 38.9215 14.008 38.1723 15.6446 36.9967L18.1687 35.2679L19.9667 35.6483L18.7219 35.2333C18.0534 34.9798 17.8114 34.8069 17.9958 34.7147L20.7965 33.7811C22.4331 33.274 23.3321 33.032 23.4935 33.055L28.6453 35.9594L26.9511 33.9886L25.6718 32.3289C25.5104 31.9601 26.882 31.672 29.7864 31.4645L34.4888 31.6374L37.1511 36.2015L36.6671 33.6082C36.5057 32.6632 36.4711 32.1445 36.5633 32.0523L38.2922 32.1906C39.3064 32.3981 39.9173 32.571 40.1247 32.7093C40.2861 32.8476 40.9545 33.9425 42.1301 35.994L41.162 33.5045C40.7932 32.5825 40.6549 32.0523 40.7471 31.914C40.8393 31.7526 42.5335 32.3635 45.8298 33.7465C49.08 35.1296 50.7742 35.9364 50.9125 36.1669L52.2265 39.6245L51.8807 38.034L51.7078 36.9967C51.777 36.9045 53.6902 37.8611 57.4475 39.8666Z" fill="#0D131A"/>
<path d="M82.7919 64.6233L57.2054 68.9107L37.6005 61.0273C44.2392 57.4314 48.1579 55.1609 49.3565 54.2158L50.7741 53.1093L49.0107 53.4551C47.8352 53.7548 45.3918 54.6422 41.6806 56.1175C38.3151 57.4775 36.1483 58.3995 35.1802 58.8836L29.3022 53.9737L33.9354 51.3805C36.2866 49.9283 37.9924 48.649 39.0527 47.5425L40.2283 46.4015C40.2514 46.2863 39.5714 46.4476 38.1883 46.8856L31.3422 49.3059L25.8446 51.4497L21.2459 47.4388L25.9137 45.1913L30.6507 42.8056L31.9646 42.1486C32.5409 41.7798 32.0107 41.7337 30.3741 42.0103L17.1659 44.3269L15.61 43.3242L22.1795 39.8666L23.2513 39.4517C23.7124 39.152 23.2744 39.0137 21.9374 39.0367L17.7537 39.1405L14.1232 39.1059C15.0683 38.1378 16.4974 37.1466 18.4106 36.1323L24.5998 37.7574L26.3632 38.4489C27.2622 38.7025 26.9741 38.3798 25.4988 37.4808C24.0466 36.5818 22.9401 35.9594 22.1795 35.6137L20.4161 34.8876L23.3896 33.9886L30.3741 37.8957C30.5585 37.9418 30.5124 37.7228 30.2358 37.2388C29.2446 35.4869 28.2303 33.9771 27.193 32.7093L34.2121 32.4672C35.549 35.1181 36.6785 37.1581 37.6005 38.5872C38.1077 39.3479 38.4073 39.6015 38.4995 39.3479V38.7601C37.9463 35.8096 37.6121 33.8733 37.4968 32.9513L39.6751 33.4699L44.4121 41.5608C44.8501 42.0679 44.8501 41.5378 44.4121 39.9703L43.0982 35.8557L42.1646 33.4699L50.2209 36.8238L53.6094 45.71L53.9552 44.2578L52.8487 38.2415C54.0243 38.7486 55.9721 39.7744 58.6921 41.3188C61.2969 42.8171 63.3715 44.0734 64.9159 45.0876L82.7919 64.6233Z" fill="#00A63C"/>
<path d="M62.3573 63.5168L59.3491 56.9473L72.5919 62.9636L103.918 74.6504L103.503 75.1691C101.037 78.2118 98.4435 81.2084 95.7235 84.1589C90.3526 89.9908 86.457 93.4024 84.0367 94.3936L83.8638 94.4627L83.6909 94.3936C81.2475 93.4946 75.8882 93.0797 67.6129 93.1488H55.8915C55.684 92.8261 55.3037 91.9041 54.7505 90.3827L53.1254 85.6112L53.7478 93.218L53.6786 94.2207C53.6095 94.4281 53.4366 94.5664 53.16 94.6356C44.0548 95.8342 39.4331 96.2722 39.2948 95.9495C39.2026 95.742 39.168 94.5895 39.1911 92.4919L39.2948 87.6857C38.7647 88.9766 38.4189 90.8668 38.2575 93.3563L38.0501 96.9868C37.9118 97.2173 35.5145 97.9895 30.8582 99.3034C26.2019 100.594 23.8277 101.171 23.7354 101.032C23.6663 100.894 23.6202 99.9373 23.5971 98.1624L23.6663 94.6356L21.9375 99.5454C21.3612 101.228 20.9924 102.116 20.831 102.208L15.1951 103.383L9.83574 104.11L11.7029 100.479L14.5727 95.0505C13.812 95.5576 11.3456 97.7244 7.17336 101.551C3.32385 105.078 1.31842 106.818 1.15706 106.772C0.926555 106.703 0.903504 105.504 1.08791 103.176C1.24927 100.894 1.41062 99.6376 1.57198 99.4071C1.80249 99.0844 4.26894 97.3556 8.97133 94.2207C8.1415 94.4742 6.36657 95.1427 3.64657 96.2261C1.38757 97.1251 0.223502 97.5285 0.154349 97.4363C0.0621452 97.2749 0.834351 95.719 2.47097 92.7685C4.08453 89.7949 5.04115 88.2044 5.34081 87.9969C5.54827 87.8356 6.66624 87.4207 8.69472 86.7522L14.2615 84.885L9.66286 85.3L7.1042 85.3691C7.012 85.1386 7.80726 83.8247 9.48998 81.4274C11.2649 78.8688 12.5442 77.4511 13.328 77.1745C14.2961 76.7826 18.2493 76.3216 25.1877 75.7915C24.6114 75.561 23.1246 75.1345 20.7273 74.5121C18.791 74.0281 17.8229 73.7054 17.8229 73.544C17.8229 73.3365 19.2751 72.1033 22.1795 69.8443C25.0609 67.6084 26.6629 66.4674 26.9856 66.4213L29.6826 66.767L34.3504 67.666L31.0656 66.3521C29.89 65.8911 29.3829 65.6375 29.5443 65.5914L34.2467 63.1019C37.2433 61.4884 38.8569 60.647 39.0874 60.5778C39.3179 60.4856 40.4358 60.7968 42.4413 61.5114L48.2155 63.5514L45.0691 61.9609C43.8935 61.3846 43.4555 61.0158 43.7552 60.8545C44.124 60.647 46.0718 60.2206 49.5986 59.5751L55.3383 58.6761C55.7762 58.7453 58.1159 60.3589 62.3573 63.5168Z" fill="#0D131A"/>
<path d="M61.2854 58.8836L72.2115 63.8626L102.328 75.0654C99.4923 78.4999 96.7492 81.6349 94.0984 84.4701C89.3729 89.4952 85.9384 92.4803 83.7946 93.4254C81.1668 92.5264 76.1648 92.0424 68.7885 91.9732C64.5471 91.9271 60.3518 91.9963 56.2027 92.1807L52.7104 81.2891C52.3877 80.2979 52.1342 79.8139 51.9498 79.8369C51.7423 79.8369 51.6847 80.3786 51.7769 81.462C52.284 86.2335 52.5721 90.3135 52.6413 93.702L40.2284 94.8776C40.5741 89.6451 40.5741 86.2105 40.2284 84.5739C40.0209 83.4905 39.4216 84.9081 38.4304 88.8268C37.4623 92.6071 36.9667 95.0275 36.9436 96.0878L24.4961 99.6146L24.4615 98.2661C24.4615 97.2749 24.5422 96.1109 24.7036 94.7739C24.888 93.3908 24.9802 92.1461 24.9802 91.0397C25.0032 89.4491 24.9571 88.6654 24.8419 88.6885C24.7727 88.7115 24.5076 89.4146 24.0466 90.7976L20.1395 101.343L11.6337 102.83L16.0595 94.117L17.0622 92.9759C17.4541 92.3997 16.9239 92.561 15.4717 93.46C13.8581 94.4742 12.2215 95.6844 10.5618 97.0905L4.71841 102.346L2.12518 104.732C2.17128 103.602 2.29807 101.931 2.50552 99.7183L12.0486 93.2871L13.0859 92.5956C13.5008 92.1807 13.0283 92.1231 11.6683 92.4227C8.99436 92.999 5.74418 94.0363 1.91772 95.5346C2.88586 93.6444 4.23434 91.4085 5.96316 88.8268C12.2561 86.5447 16.2324 85.1501 17.892 84.643C19.1829 84.2512 19.8398 83.9861 19.8629 83.8478L17.6846 83.7095L8.86758 84.2973C9.74352 82.822 10.5964 81.5196 11.4262 80.3901C12.4405 79.0301 13.1781 78.2579 13.6391 78.0735L20.3469 77.2091L27.2968 76.6213L28.8527 76.4138C28.9449 76.3447 28.4724 76.1027 27.4351 75.6877C23.9544 74.2355 21.3958 73.302 19.7591 72.887L23.9775 69.6714L27.3659 67.3202L32.1029 68.2538L38.3958 69.3948L40.4358 69.5331C40.505 69.4409 39.9172 69.0952 38.6724 68.4958L31.7572 65.4877L39.1565 61.6151L53.9206 66.3175C54.8427 66.4789 54.301 66.0063 52.2955 64.8999L48.1118 62.4796L46.383 61.3385L55.1308 59.6789L64.6393 66.283L61.2854 58.8836Z" fill="#00A63C"/>
<path d="M64.6393 66.283L61.2854 58.8836L72.2115 63.8626L102.328 75.0654C99.4923 78.4999 96.7493 81.6349 94.0984 84.4701C89.373 89.4952 85.9384 92.4803 83.7946 93.4254C82.135 92.8492 79.5187 92.4458 75.9458 92.2153C76.1993 87.6973 75.6231 84.0322 74.217 81.22C72.4651 77.6471 69.3302 75.1691 64.8122 73.786C64.8122 71.8267 64.2013 69.7982 62.9796 67.7006C62.0807 66.2023 60.64 64.3467 58.6576 62.1338L64.6393 66.283Z" fill="#009233"/>
<path d="M183.409 46.5398C186.06 47.8998 187.409 48.672 187.455 48.8564C187.501 48.9947 186.187 49.5595 183.513 50.5507L177.185 52.8673L183.271 52.8327L186.314 53.1093C186.383 53.2246 185.438 54.2504 183.478 56.1866L180.194 59.2294L175.941 58.6761L169.095 57.5697L175.111 60.0592C177.416 61.0043 178.58 61.5229 178.603 61.6151L174.108 65.3494C171.065 67.7006 169.44 68.8531 169.233 68.807L164.358 65.7297C160.969 63.6321 158.445 62.2951 156.785 61.7189C162.871 65.8219 165.856 68.0233 165.741 68.3229C165.672 68.5304 164.023 69.3372 160.796 70.7433C157.638 72.1033 155.921 72.7948 155.644 72.8179L150.354 69.3948C146.551 66.9284 143.715 65.3955 141.848 64.7962C143.185 65.9257 145.214 67.9426 147.934 70.847C150.631 73.7284 151.922 75.2498 151.806 75.4111C151.668 75.5725 150.977 75.8721 149.732 76.3101L147.519 76.8979L145.099 74.6504C143.462 73.106 142.229 72.1494 141.399 71.7806L144.338 75.1691C145.744 76.7596 146.424 77.6009 146.378 77.6932C146.286 77.8776 145.248 78.6152 143.266 79.906C141.214 81.243 140.097 81.8654 139.912 81.7732L137.111 79.0762C135.175 77.2552 133.585 76.0796 132.34 75.5494L135.521 79.664C137.273 81.7616 138.103 82.845 138.01 82.9142L124.733 87.1671L100.218 78.9379L109.761 55.7717L109.831 55.7026C111.098 54.4348 114.314 52.3602 119.477 49.4788C124.503 46.6897 127.13 45.4103 127.361 45.6408C127.522 45.8022 127.246 46.9086 126.531 48.9602L124.941 53.5934L127.395 48.0612C128.133 46.3093 128.594 45.3642 128.778 45.2259C129.124 44.9954 131.037 44.3846 134.518 43.3934C138.022 42.4022 139.785 42.0103 139.808 42.2178L138.46 45.1222C137.376 47.1968 136.685 48.649 136.385 49.4788L139.463 44.7764C140.592 43.0707 141.249 42.1601 141.433 42.0449C141.687 41.8835 142.966 41.6415 145.271 41.3188L148.798 40.973L146.101 47.1622L149.455 43.3242L151.668 40.9384L155.852 40.6964C158.434 40.6042 159.77 40.6157 159.863 40.731C159.955 40.8462 159.794 41.5493 159.379 42.8401L158.168 45.9866C161.995 42.8056 164.496 40.9269 165.672 40.3506L165.741 40.3161H165.844C166.836 40.3161 168.864 40.7079 171.93 41.4917C174.88 42.2293 176.356 42.6788 176.356 42.8401L174.661 44.9839L171.826 48.2341L176.079 45.9174C177.785 44.9954 178.753 44.5229 178.983 44.4998C179.283 44.4768 180.758 45.1568 183.409 46.5398Z" fill="#0D131A"/>
<path d="M172.483 46.2978C171.146 47.9575 170.236 48.9832 169.752 49.3751C169.106 49.9053 168.783 50.228 168.783 50.3432C168.807 50.5046 169.314 50.4009 170.305 50.032C171.688 49.4788 174.581 47.9575 178.983 45.468L185.346 48.7527L180.297 50.7581C177.508 51.8415 175.687 52.487 174.834 52.6944L172.449 53.2131C172.057 53.3283 172.379 53.4205 173.417 53.4897L184.377 53.8354L179.917 58.0538L174.281 57.3622L165.914 56.2212C164.254 56.0138 163.712 56.0829 164.289 56.4287L165.672 57.0165C172.979 60.0131 176.701 61.6151 176.84 61.8226C176.932 61.9609 175.722 62.9521 173.209 64.7962L169.268 67.4585C160.623 62.7562 155.679 60.3473 154.434 60.2321L152.809 60.1283C152.74 60.1975 153.201 60.4972 154.192 61.0273L159.863 64.7616C162.56 66.6518 163.92 67.7121 163.943 67.9426C163.966 68.104 162.767 68.7263 160.347 69.8097L155.714 71.8152C148.66 66.6979 143.566 63.9318 140.431 63.5168C138.402 63.2633 137.584 63.2633 137.976 63.5168L139.981 64.4158C140.604 64.8077 142.067 66.1331 144.373 68.3921C146.954 70.9277 148.914 73.0599 150.251 74.7887C149.49 74.9962 148.648 75.3304 147.726 75.7915C147.242 75.2613 146.124 74.3738 144.373 73.1291C142.598 71.8613 141.295 71.0199 140.465 70.605C139.705 70.2362 139.336 70.1094 139.359 70.2247L140.016 71.1928L142.333 74.2009L145.064 77.5203L140.085 80.6667L136.524 77.5894C134.541 76.022 132.985 74.9731 131.856 74.443C131.072 74.0742 130.669 73.9589 130.646 74.0972L131.164 75.2382C131.441 75.8145 132.19 76.944 133.412 78.6267L136.489 82.4993L124.733 86.2681L101.359 78.4193L110.488 56.2558C112.124 54.6653 117.276 51.6802 125.943 47.3005L124.56 52.3487L123.246 56.8436C122.878 57.8809 122.728 58.4917 122.797 58.6761C122.889 58.8836 123.304 58.3419 124.042 57.051L127.223 50.7927L129.505 45.7446L138.045 43.2896C137.077 45.0415 135.901 48.0381 134.518 52.2795C134.034 53.6856 133.815 54.4348 133.861 54.527L135.279 52.6253C136.478 50.712 138.702 47.4503 141.952 42.8401L147.796 42.0103C146.666 43.6008 145.56 45.952 144.476 49.0639C144.13 50.0781 144.004 50.5968 144.096 50.6198L145.202 49.5134L152.083 41.8029L159.033 41.5954L157.926 44.1886L156.371 47.508L155.748 49.0639L157.027 48.0612L161.315 44.569C163.528 42.771 165.072 41.6415 165.948 41.1805C167.17 41.2266 170.132 41.9296 174.834 43.2896L172.483 46.2978Z" fill="#00A63C"/>
<path d="M116.262 52.4178C118.913 56.5209 120.791 59.967 121.898 62.7562C129.228 62.9867 134.933 64.3928 139.013 66.9745C140.35 67.8043 141.998 69.0836 143.958 70.8125L149.179 75.1691L147.726 75.7915C147.242 75.2613 146.124 74.3738 144.373 73.1291C142.598 71.8613 141.295 71.0199 140.465 70.605C139.705 70.2362 139.336 70.1094 139.359 70.2247L140.016 71.1928L142.333 74.2009L145.064 77.5203L140.085 80.6667L136.524 77.5894C134.541 76.022 132.985 74.9732 131.856 74.443C131.072 74.0742 130.669 73.9589 130.646 74.0972L131.164 75.2382C131.441 75.8145 132.19 76.944 133.412 78.6267L136.489 82.4993L124.733 86.2681L101.359 78.4193L110.488 56.2558C111.271 55.5182 113.196 54.2388 116.262 52.4178Z" fill="#009233"/>
<path d="M79.0922 79.2837L72.177 79.1454C68.2583 79.0532 66.4488 78.8803 66.7485 78.6267L73.3871 73.544L62.7376 70.1901L61.2854 69.6023L62.8759 69.3257L79.0922 70.1901L93.8564 79.0417L84.1058 81.9461C77.6516 83.8132 74.5282 84.5854 74.7356 84.2627L76.9139 81.8078L79.0922 79.2837Z" fill="#0D131A"/>
<path d="M74.5628 73.7169L75.4272 73.1982L74.5628 72.645C74.0787 72.4145 72.5343 71.988 69.9295 71.3657L66.2299 70.3975L72.4536 70.605L78.8502 71.0545L91.6435 78.7304C83.1838 81.2891 78.758 82.4532 78.3662 82.2226C78.1818 82.1074 78.516 81.5081 79.3689 80.4247C80.2448 79.2952 80.6367 78.6498 80.5445 78.4884L74.8394 78.0735L69.1343 77.866C69.019 77.7969 69.7682 77.163 71.3817 75.9643L74.5628 73.7169Z" fill="#00A63C"/>
<path d="M100.149 2.90442C101.44 2.3973 102.178 2.38577 102.362 2.86984C102.431 3.10035 102.328 3.60747 102.051 4.39121C101.567 5.95867 101.313 7.24952 101.29 8.26376L103.434 6.18918C104.31 5.35934 104.978 4.86375 105.44 4.70239L106.788 4.63324C107.065 4.81765 107.065 5.20951 106.788 5.80884C106.189 7.09969 105.854 8.82851 105.785 10.9953C105.693 14.1763 106.488 16.7811 108.171 18.8096L108.517 19.2591L108.033 19.5357C105.036 21.1953 101.97 22.6591 98.8354 23.9269L94.9974 25.3099L94.6171 25.4137L87.114 11.6868L89.2578 7.43393C90.8252 4.43731 91.9201 2.4895 92.5425 1.59052C93.3032 0.530175 93.914 0.0115287 94.3751 0.0345797C94.8361 0.0806815 95.009 0.622378 94.8937 1.65967C94.7093 3.82646 94.6747 5.29019 94.79 6.05087L97.072 4.52951C98.1785 3.81493 99.2042 3.27324 100.149 2.90442Z" fill="#0D131A"/>
<path d="M104.644 10.8916C104.644 14.0726 105.451 16.7695 107.065 18.9824C102.777 21.3567 98.7893 23.1201 95.1012 24.2726L88.2205 11.7214C91.6089 5.38238 93.3147 2.51254 93.3378 3.11186L93.3032 5.18645C93.3032 6.20069 93.3723 6.86917 93.5106 7.19188L93.8218 7.88341L94.6862 7.22645C95.2395 6.74238 96.369 6.05086 98.0747 5.15187C99.8266 4.22983 100.679 3.90712 100.633 4.18373L100.253 6.39662L99.9764 9.02443C99.9764 10.3614 100.357 10.5919 101.117 9.71595C101.555 9.20883 102.385 8.44815 103.607 7.43391C104.829 6.41967 105.37 6.03933 105.232 6.29289C105.094 6.5695 104.967 7.16883 104.852 8.09086C104.713 9.08205 104.644 10.0156 104.644 10.8916Z" fill="#C94772"/>
<path d="M88.1512 11.1682C88.6814 10.9838 89.0618 11.0644 89.2923 11.4102L91.1594 13.9689C92.3119 16.0204 92.8882 18.1641 92.8882 20.4001C92.8882 22.2902 92.4963 24.1228 91.7126 25.8977C91.1594 27.1655 90.514 29.4476 89.7763 32.7438L87.6672 42.9439C85.9384 51.8415 84.5784 58.0883 83.5872 61.6843C81.9505 67.6314 80.3139 71.0314 78.6773 71.8843L76.8448 71.9189L75.1851 71.1582C71.1512 69.3372 68.3044 67.5392 66.6447 65.7643C63.9017 62.7446 62.2651 58.3073 61.7349 52.4524C61.2047 46.5283 64.9159 38.1493 72.8685 27.3153C75.8651 23.2123 78.9078 19.5472 81.9966 16.3201C84.9472 13.2543 86.9987 11.537 88.1512 11.1682Z" fill="#0D131A"/>
<path d="M88.8774 32.3289L86.7336 42.771C85.097 51.1154 83.8062 57.0972 82.8611 60.7162C81.2245 66.8477 79.68 70.2823 78.2278 71.0199C77.9051 71.1813 77.5824 71.1813 77.2597 71.0199L75.5655 70.2592C71.6929 68.5535 68.9729 66.8362 67.4054 65.1074C64.7776 62.226 63.2102 57.9731 62.703 52.3487L62.6685 51.3805C62.6685 46.6551 65.2732 40.3046 70.4827 32.3289C74.7471 25.8286 79.2766 20.2387 84.0712 15.5594C85.316 14.3377 86.3763 13.4156 87.2523 12.7933L88.5662 12.0326L88.6008 12.0672L90.3296 14.4184C91.413 16.2855 91.9547 18.2563 91.9547 20.3309C91.9547 22.0367 91.5743 23.7655 90.8136 25.5174C90.2374 26.8082 89.5919 29.0788 88.8774 32.3289Z" fill="#0D131A"/>
<path d="M117.195 28.2489C127.453 42.794 126.692 56.3595 114.913 68.9453C111.802 72.2877 107.894 74.6619 103.192 76.0681C99.3194 77.2437 95.3662 77.6701 91.3323 77.3474C87.7363 77.0477 84.0367 76.1487 80.2333 74.6504C77.0292 73.4057 75.0237 72.3338 74.217 71.4348C67.9471 68.807 62.922 65.0382 59.1417 60.1283C55.9145 55.9331 54.0589 51.6341 53.5749 47.2313C52.7911 40.293 55.8108 33.1933 62.6339 25.9323C66.4142 21.8523 70.6325 18.3716 75.2888 15.4902C77.5709 14.0841 79.3343 12.5397 80.579 10.857C81.6624 9.35867 82.2041 7.96409 82.2041 6.67324L82.135 4.77154C82.0428 4.33357 81.8353 3.8956 81.5126 3.45763C81.1438 2.95051 81.0746 2.61628 81.3051 2.45492C81.5587 2.29356 82.0773 2.39729 82.8611 2.76611C84.0136 3.29628 84.9472 4.08001 85.6618 5.1173L87.114 7.74511L87.6672 5.63595C87.9899 4.71391 88.3587 4.47188 88.7736 4.90984C89.5113 5.69357 90.318 8.69019 91.194 13.8997L91.7126 11.5831C91.8279 11.2604 92.2774 11.7099 93.0611 12.9316C94.4672 15.1675 95.4123 16.8387 95.8964 17.9451C96.5187 16.1011 97.5099 14.0956 98.8699 11.9289C99.4232 11.0529 99.8726 10.5919 100.218 10.5458C100.541 10.5227 100.679 10.9031 100.633 11.6868C100.587 12.8624 100.818 14.2916 101.325 15.9743C101.694 14.9831 102.316 13.8767 103.192 12.655C104.022 11.5024 104.84 10.5688 105.647 9.85427C106.454 9.13969 107.214 8.74782 107.929 8.67867C108.644 8.58647 108.851 8.86308 108.551 9.5085L107.721 11.5139C107.468 12.3668 107.307 13.3926 107.237 14.5912C108.021 13.5078 108.69 12.7126 109.243 12.2055C109.635 11.8366 110.292 11.3411 111.214 10.7187C113.311 9.28952 114.049 9.3241 113.427 10.8224C111.997 14.0956 111.433 16.5851 111.732 18.2909C112.124 20.3424 113.945 23.6618 117.195 28.2489Z" fill="#0D131A"/>
<path d="M84.5553 22.5438C79.922 26.8313 76.7756 29.7933 75.1159 31.43C68.2698 38.1378 64.9159 45.3758 65.0542 53.1439C65.1233 57.2009 65.9532 60.7392 67.5437 63.7589C68.2583 65.0497 69.3878 66.5596 70.9322 68.2884C60.6284 61.5345 55.442 54.0544 55.3728 45.8483V45.71C55.3728 39.6246 58.1965 33.3662 63.844 26.935C67.8549 22.3709 72.1654 18.7289 76.7756 16.0089C80.8326 13.6116 83.1146 10.8685 83.6217 7.7797L83.6909 5.39393C83.6909 4.81765 83.7831 4.63325 83.9675 4.8407C84.8665 5.85495 85.6041 6.85766 86.1804 7.84885C86.4109 8.21767 86.6644 8.88614 86.9411 9.85428C87.1024 10.4306 87.2407 10.5573 87.356 10.2346L87.7709 8.09089C87.9553 7.16885 88.1397 6.80003 88.3241 6.98444C88.8543 7.51461 89.4651 9.33564 90.1567 12.4475L90.2604 13.5194C90.2604 15.6631 88.3587 18.6713 84.5553 22.5438Z" fill="#E85382"/>
<path d="M85.0048 27.0042C79.5648 32.7669 76.1878 36.5818 74.8739 38.449C71.0013 43.9351 69.0651 49.4442 69.0651 54.9765C69.0651 58.3189 70.3098 62.8714 72.7993 68.6341C71.1857 67.4585 69.5722 64.9575 67.9586 61.1311C67.0366 58.9412 66.6217 56.567 66.7139 54.0083C66.8752 50.0897 67.7281 46.3439 69.2725 42.771C70.7017 39.4517 72.6495 36.432 75.1159 33.712C76.7064 31.9832 79.68 29.0788 84.0366 24.9987C87.7709 21.1723 90.0414 17.8414 90.8482 15.0062C91.0556 15.9052 90.9634 17.0231 90.5716 18.3601C89.7878 21.0109 87.9322 23.8923 85.0048 27.0042Z" fill="#C94772"/>
<path d="M113.807 68.1847C110.856 71.3196 107.099 73.4518 102.535 74.5813C99.0774 75.4572 95.274 75.7223 91.1248 75.3765C87.2523 75.0538 83.5065 74.2932 79.8875 73.0945C76.96 72.1033 75.3003 71.3311 74.9085 70.7779L75.0122 70.8125L74.3553 69.6023C71.8427 64.969 70.5864 60.3704 70.5864 55.8063C70.5864 50.3202 72.3959 44.788 76.0149 39.2096C78.0434 36.0747 81.2705 32.2252 85.6963 27.6611C86.895 26.3933 88.3587 24.3418 90.0875 21.5065C92.139 18.0719 92.9574 15.8129 92.5424 14.7295C92.9343 15.1214 93.4184 15.8245 93.9946 16.8387C94.6401 17.9682 95.2163 18.8211 95.7235 19.3974C96.3919 20.158 96.7953 20.4231 96.9336 20.1926L97.0374 18.7058C97.0604 18.0835 97.3716 17.2075 97.9709 16.078C98.478 15.0407 99.0889 14.0265 99.8035 13.0353C100.011 15.0638 100.414 16.6197 101.014 17.7031L101.601 18.4292L101.913 17.4611C102.258 16.5621 102.777 15.5018 103.469 14.2801C104.483 12.5512 105.416 11.318 106.269 10.5804L107.168 9.95801C106.892 10.6034 106.673 11.5024 106.511 12.655C106.327 13.7384 106.235 14.7641 106.235 15.7323C106.258 16.5851 106.35 16.9885 106.511 16.9424L107.065 16.078C107.295 15.617 107.998 14.8794 109.174 13.8651C110.349 12.8509 110.879 12.5397 110.764 12.9316C110.326 14.6834 110.107 15.9974 110.107 16.8733C110.107 18.2794 110.522 19.8469 111.352 21.5757C112.205 23.3045 113.715 25.6903 115.882 28.733C117.772 31.3838 119.247 34.3113 120.307 37.5154C121.414 40.8808 121.967 44.2924 121.967 47.75C121.967 51.3921 121.333 54.8843 120.065 58.2267C118.682 61.8687 116.596 65.188 113.807 68.1847Z" fill="#E85382"/>
<path d="M70.9323 68.2884C66.8292 65.5684 63.5445 62.7562 61.078 59.8517C62.2536 60.2667 64.04 60.7277 66.4373 61.2348C67.0597 62.9406 67.878 64.4965 68.8923 65.9026L70.9323 68.2884Z" fill="#C94772"/>
<path d="M121.206 40.9384C121.713 43.2666 121.967 45.5371 121.967 47.75C121.967 51.392 121.333 54.8843 120.065 58.2266C118.682 61.8687 116.596 65.188 113.807 68.1846C110.856 71.3196 107.099 73.4518 102.535 74.5813C99.0774 75.4572 95.274 75.7223 91.1249 75.3765C87.2523 75.0538 83.5065 74.2931 79.8875 73.0945C76.9601 72.1033 75.3004 71.3311 74.9085 70.7779L75.0123 70.8124L74.3553 69.6023C73.0414 67.1589 72.0848 64.7962 71.4855 62.5141C81.9736 65.4185 92.093 64.969 101.844 61.1656C112.24 57.0856 118.694 50.3432 121.206 40.9384Z" fill="#C94772"/>
<path d="M147.865 89.4145C148.395 89.7834 148.372 92.3305 147.796 97.0559C147.173 102.104 146.147 107.371 144.718 112.857C145.225 115.393 145.179 118.908 144.58 123.403C143.958 127.967 142.989 131.805 141.676 134.917C140.431 137.891 138.564 140.553 136.074 142.904C134.023 144.864 130.749 147.307 126.254 150.234C121.667 153.208 115.317 154.81 107.203 155.041C98.0977 155.294 89.9953 153.508 82.8957 149.681C73.56 144.656 67.9356 138.064 66.0224 129.904C64.939 128.428 64.5471 126.895 64.8468 125.305C65.0773 124.152 65.6536 123.057 66.5756 122.02C66.2298 120.291 66.518 117.675 67.44 114.171L68.8922 109.434L68.0278 107.878C67.4515 106.68 67.221 105.688 67.3363 104.905C66.8292 103.637 66.3105 100.986 65.7803 96.9522C65.2041 92.5956 65.1349 89.9332 65.5729 88.9651C66.5871 88.2044 69.48 87.8586 74.2516 87.9278L82.8957 88.5501C83.5411 87.9969 85.3045 87.121 88.1858 85.9223C91.5974 84.4932 94.3635 83.6518 96.4842 83.3983C101.532 82.7989 106.108 83.041 110.211 84.1244C114.037 85.1616 117.576 86.9711 120.826 89.5528C126.289 87.4783 132.282 86.7522 138.806 87.3745C143.623 87.8356 146.643 88.5156 147.865 89.4145Z" fill="#5DC1CF"/>
<path d="M88.1858 85.9223C91.5974 84.4932 94.3635 83.6518 96.4842 83.3983C104.575 82.4532 111.49 83.6864 117.23 87.0979C114.003 89.1264 110.891 91.5813 107.894 94.4627C105.935 96.3298 103.25 99.1997 99.8381 103.072C92.6923 94.0824 85.1201 91.0396 77.1214 93.9441C77.0292 92.4227 76.499 91.0742 75.5309 89.8986C74.5627 88.723 73.4563 88.0776 72.2115 87.9623L78.6773 88.1352L82.8957 88.5501C83.5411 87.9969 85.3045 87.121 88.1858 85.9223Z" fill="#50A8B4"/>
<path d="M67.8203 131.805C67.8203 131.621 68.6962 131.621 70.4481 131.805C72.2461 131.99 73.4563 132.301 74.0786 132.739L73.6637 135.021L72.9722 137.165C72.6725 137.971 72.3498 138.398 72.0041 138.444C71.4278 138.513 70.6095 137.741 69.5491 136.127C68.4888 134.445 67.9125 133.004 67.8203 131.805Z" fill="#0D131A"/>
<path d="M73.3181 133.119L72.6957 134.744C72.2347 136.104 71.9004 136.796 71.693 136.819C71.5316 136.819 71.2665 136.6 70.8977 136.162L69.5838 134.329C68.8923 133.177 68.5465 132.347 68.5465 131.84V131.736L70.5174 131.944C71.6008 132.266 72.5343 132.658 73.3181 133.119Z" fill="white"/>
<path d="M147.865 89.4145C148.395 89.7834 148.372 92.3305 147.796 97.0559C147.173 102.104 146.147 107.371 144.718 112.857C145.225 115.393 145.179 118.908 144.58 123.403C143.958 127.967 142.989 131.805 141.676 134.917C140.362 138.029 138.045 141.221 134.726 144.495C131.453 147.722 128.629 149.635 126.255 150.234C128.998 148.805 131.418 146.604 133.516 143.63C135.751 140.495 137.342 136.899 138.287 132.842C140.546 123.184 138.852 113.203 133.204 102.899C131.66 100.041 130.888 98.3929 130.888 97.9549C130.888 97.7014 131.533 97.1251 132.824 96.2261C136.189 93.8518 139.636 91.9962 143.162 90.6593C145.975 89.5759 147.542 89.161 147.865 89.4145Z" fill="#50A8B4"/>
<path d="M127.741 140.415L126.566 141.729C126.128 142.213 125.747 142.397 125.425 142.282C125.171 142.19 124.848 141.844 124.456 141.245L122.313 137.683L122.728 137.13L130.369 136.508L127.741 140.415Z" fill="#0D131A"/>
<path d="M123.385 137.718C125.851 137.072 127.695 136.807 128.917 136.923C127.004 139.827 125.932 141.233 125.701 141.141L124.664 139.723L123.385 137.718Z" fill="white"/>
<path d="M148.902 88.239C149.524 88.7 149.582 91.5122 149.075 96.6756C148.452 102.669 147.162 108.305 145.202 113.583C146.447 118.701 146.286 124.072 144.718 129.696C143.151 135.344 140.581 139.723 137.008 142.835C139.451 138.248 141.214 134.433 142.298 131.39C143.543 127.864 144.223 124.475 144.338 121.225C144.384 119.519 144.234 117.571 143.888 115.381C143.589 113.56 143.312 112.35 143.059 111.751C142.874 111.29 142.84 110.99 142.955 110.852C143.07 110.714 143.278 110.771 143.577 111.025L144.511 111.993C146.009 106.23 147.012 101.067 147.519 96.5027C147.957 92.6763 147.968 90.4288 147.553 89.7603C146.193 88.9305 143.254 88.2966 138.736 87.8586C132.305 87.2363 126.393 87.9508 120.999 90.0024L120.722 90.0715L120.515 89.9332C117.265 87.3515 113.669 85.6573 109.727 84.8505C105.993 84.0898 101.636 84.0668 96.657 84.7813C93.5682 85.2424 90.2489 86.3373 86.699 88.0661C84.2787 89.2417 82.1695 90.4864 80.3715 91.8003C79.3112 92.561 78.6888 92.8722 78.5044 92.7339C78.32 92.6417 78.4929 92.2959 79.0231 91.6966L80.821 89.9678L81.9275 88.9996L73.7675 88.3773C69.4339 88.2851 66.7715 88.5617 65.7803 89.2071C65.3654 89.599 65.2847 91.0166 65.5383 93.46C65.8379 96.3183 66.541 99.6146 67.6474 103.349L67.9932 103.038C66.9098 96.6065 66.4142 92.6302 66.5064 91.1088C66.5295 90.7169 66.7139 90.4749 67.0596 90.3827C67.7281 90.3597 68.823 91.662 70.3444 94.2898C71.8197 96.8485 72.6495 98.7963 72.8339 100.133L73.2142 99.9258L74.5973 99.7183C75.2658 99.7183 75.5885 99.8682 75.5654 100.168C75.5193 100.467 75.162 100.698 74.4936 100.859C73.779 101.044 72.6956 101.551 71.2434 102.381C69.5837 103.326 68.4081 104.202 67.7166 105.009C67.2786 105.539 67.244 106.657 67.6129 108.362L68.3044 110.748C67.4976 112.477 66.9905 114.932 66.783 118.113C66.6678 119.68 66.6332 121.087 66.6793 122.331C65.3423 123.991 64.9389 125.766 65.4691 127.656C65.9993 129.546 67.1864 130.63 69.0305 130.906C70.4827 131.114 72.7532 131.828 75.842 133.05C79.7607 134.571 82.8726 136.208 85.1777 137.96L85.2814 138.029L85.316 138.098C86.0767 139.458 87.2638 140.749 88.8773 141.971C90.5601 143.238 91.9316 143.815 92.9919 143.7C94.2367 143.584 96.9221 142.593 101.048 140.726H101.083C107.468 139.043 115.282 137.66 124.526 136.577L129.989 135.885C130.772 135.816 131.545 135.528 132.305 135.021L133.792 133.845C134.207 133.523 134.495 133.442 134.656 133.603C134.841 133.765 134.783 134.076 134.484 134.537L133.377 135.816C132.801 136.277 131.925 136.669 130.749 136.992L129.021 137.234L125.84 137.579C115.236 138.824 107.307 140.138 102.051 141.521C97.4638 143.872 94.5018 145.117 93.1648 145.255C91.897 145.394 90.3065 144.656 88.3933 143.043C86.6875 141.636 85.4082 140.184 84.5553 138.686C82.3424 137.049 79.4265 135.574 75.8075 134.26C73.1566 133.292 71.059 132.693 69.5146 132.462C68.4542 132.278 67.6129 131.99 66.9905 131.598C69.2034 138.79 74.5742 144.679 83.1031 149.266C89.5343 152.724 96.3689 154.418 103.607 154.349C110.384 154.28 117.945 152.655 126.289 149.474C127.626 148.967 128.421 148.782 128.675 148.921C128.928 149.059 128.225 149.52 126.566 150.304C118.82 153.946 111.214 155.79 103.745 155.836C96.2767 155.882 89.2577 154.142 82.6882 150.615C73.3525 145.59 67.7051 138.951 65.7457 130.699C64.3627 129.961 63.6711 128.636 63.6711 126.722C63.6481 124.878 64.2705 123.253 65.5383 121.847C65.4691 117.56 66.0454 113.895 67.2671 110.852C66.6447 109.861 66.2874 108.72 66.1952 107.429C66.08 106.161 66.2644 105.181 66.7485 104.49C65.2732 100.502 64.4088 96.7102 64.1552 93.1142C63.9478 90.0024 64.1898 88.2159 64.8813 87.7549C66.2413 86.902 69.3071 86.6485 74.0786 86.9942L82.7919 88.0315C83.8292 87.3169 85.7194 86.4064 88.4624 85.3C91.7357 83.963 94.398 83.1678 96.4496 82.9142C101.452 82.3149 105.923 82.4762 109.865 83.3983C113.899 84.3434 117.599 86.1298 120.964 88.7576C126.45 86.7291 132.536 85.9339 139.221 86.3718C144.384 86.7176 147.611 87.34 148.902 88.239Z" fill="#0D131A"/>
<path d="M67.2325 91.42V91.2471C67.7858 91.8003 68.6156 93.1949 69.722 95.4308C70.8976 97.782 71.6122 99.6031 71.8658 100.894C70.8746 101.194 69.8258 101.804 68.7193 102.726L67.8203 97.1597C67.4285 94.3475 67.2325 92.4342 67.2325 91.42Z" fill="#431E37"/>
<path d="M71.1051 108.432C71.7274 108.662 72.1884 108.893 72.4881 109.123C74.263 110.506 76.3607 113.491 78.781 118.078C80.9247 122.228 82.4346 125.8 83.3105 128.797L83.76 130.595C83.7831 131.033 83.6793 131.24 83.4488 131.217L82.8956 130.837L82.7227 130.491C81.0861 130.906 78.5851 130.238 75.2196 128.486C72.4996 127.103 70.2406 125.639 68.4427 124.095C68.0278 123.956 67.7742 123.714 67.682 123.369C67.6359 123.161 67.6935 122.977 67.8549 122.815L68.1315 122.642C67.6705 120.015 67.7511 117.352 68.3735 114.655C68.9728 112.189 69.7451 110.61 70.6901 109.918L69.7912 108.985C69.6298 108.662 69.6298 108.432 69.7912 108.293L71.1051 108.432Z" fill="#0D131A"/>
<path d="M68.8922 120.291C68.8922 118.032 69.2495 115.808 69.9641 113.618C70.5865 111.728 71.1397 110.656 71.6237 110.402C72.7302 110.748 74.4936 113.203 76.9139 117.767C79.2882 122.216 80.9824 126.169 81.9967 129.627C80.5214 129.742 78.3431 129.051 75.4617 127.552C73.0183 126.261 70.9207 124.901 69.1688 123.472C68.9844 122.32 68.8922 121.259 68.8922 120.291Z" fill="white"/>
<path d="M74.874 113.583L75.4964 113.549C76.9255 115.808 78.3777 118.551 79.853 121.778C81.3283 125.028 82.3655 127.748 82.9649 129.938L83.0686 130.284L79.8876 129.938C77.4903 129.523 75.6231 128.832 74.2862 127.864L74.1825 127.829L74.1133 127.691C73.053 124.786 72.5113 122.366 72.4882 120.43C72.4421 117.848 73.2374 115.566 74.874 113.583Z" fill="#0D131A"/>
<path d="M73.6638 121.19C73.6638 118.77 74.1825 116.546 75.2198 114.517C76.5567 116.684 77.8937 119.231 79.2306 122.158C80.5676 125.109 81.5357 127.633 82.135 129.731C80.4984 129.915 78.0435 129.108 74.7703 127.31C74.0326 125.328 73.6638 123.288 73.6638 121.19Z" fill="#91308C"/>
<path d="M131.994 108.985C132.663 108.893 132.985 109.031 132.962 109.4C132.939 109.745 132.755 110.011 132.409 110.195L131.026 110.783C132.455 111.843 133.296 114.252 133.55 118.009C133.757 121.421 133.481 124.037 132.72 125.858C133.688 125.904 134.126 126.089 134.034 126.411L133.446 126.93L131.614 127.379L110.591 131.771L109.796 132.082C109.312 132.128 109.151 131.782 109.312 131.045C109.911 128.14 111.018 125.432 112.631 122.919C114.176 120.453 116.377 117.905 119.235 115.278C123.108 111.751 127.361 109.653 131.994 108.985Z" fill="#0D131A"/>
<path d="M119.754 117.249C121.644 115.52 123.546 114.068 125.459 112.892C127.211 111.832 128.686 111.175 129.885 110.921C130.577 111.751 131.118 113.284 131.51 115.52C131.879 117.525 132.063 119.634 132.063 121.847C132.063 123.83 131.913 125.27 131.614 126.169C129.17 126.515 123.108 127.829 113.427 130.111L110.937 130.699C111.168 128.832 112.055 126.722 113.6 124.371C115.144 121.997 117.195 119.623 119.754 117.249Z" fill="white"/>
<path d="M124.18 112.65L124.595 112.373L124.733 112.857C126.9 117.56 127.315 122.573 125.978 127.898L125.909 128.14L125.701 128.175L113.634 130.941L110.004 131.771V131.321C110.119 128.394 111.79 124.971 115.017 121.052C117.76 117.733 120.814 114.932 124.18 112.65Z" fill="#0D131A"/>
<path d="M124.18 113.549C125.217 117.468 125.736 120.787 125.736 123.507C125.736 124.959 125.586 126.296 125.286 127.518L113.461 130.249L110.799 130.872C111.052 128.129 112.666 124.971 115.64 121.398C118.175 118.355 121.022 115.739 124.18 113.549Z" fill="#91308C"/>
<path d="M146.378 91.5237L145.859 92.0424L145.583 92.2152C146.182 93.0912 146.078 95.7766 145.271 100.272C144.58 104.075 143.981 106.645 143.474 107.982L142.92 109.192L142.54 108.604C142.309 108.028 141.307 106.772 139.532 104.836C137.503 102.669 135.671 101.032 134.034 99.9258L133.273 100.444C132.974 100.652 132.778 100.652 132.686 100.444C132.593 100.214 132.755 99.8566 133.17 99.3725C133.792 98.6349 135.498 97.2058 138.287 95.0851C141.376 92.7108 143.427 91.42 144.442 91.2125L146.413 91.0051C146.574 91.0742 146.562 91.2471 146.378 91.5237Z" fill="#0D131A"/>
<path d="M144.027 100.41C143.612 103.245 143.174 105.596 142.713 107.463C141.952 106.196 140.949 104.847 139.705 103.418C138.206 101.666 136.72 100.272 135.244 99.2342C136.72 97.782 138.241 96.4681 139.808 95.2925C141.768 93.7942 143.37 92.8607 144.615 92.4919L144.718 93.46C144.718 95.0044 144.488 97.321 144.027 100.41Z" fill="#431E37"/>
<path d="M82.8265 112.581C82.4576 111.797 82.3654 111.313 82.5498 111.129C82.7343 110.944 83.0685 111.278 83.5526 112.131C84.2441 113.284 84.8549 114.54 85.3851 115.9C86.0766 117.721 86.4685 119.381 86.5607 120.879C86.6529 122.377 86.5953 122.896 86.3878 122.435L85.6617 120.084L84.417 116.384L82.8265 112.581Z" fill="#0D131A"/>
<path d="M113.842 110.057C114.326 109.711 114.625 109.619 114.741 109.78C114.856 109.964 114.729 110.218 114.36 110.541C113.369 111.44 112.435 112.869 111.56 114.828C110.614 116.949 109.877 119.392 109.347 122.158C109.185 123.08 109.001 123.611 108.793 123.749C108.586 123.91 108.505 123.438 108.551 122.331C108.828 116.384 110.591 112.293 113.842 110.057Z" fill="#0D131A"/>
<path d="M86.6299 136.438L87.3906 136.473C87.8055 136.75 88.1397 137.107 88.3933 137.545L88.9465 138.859C89.0848 139.274 89.0848 139.481 88.9465 139.481L88.3242 139.066L86.9065 137.372C86.6299 137.003 86.5377 136.692 86.6299 136.438Z" fill="#0D131A"/>
<path d="M95.1357 139.896C95.3431 139.182 96.1614 138.502 97.5906 137.856C98.0055 137.649 98.2821 137.683 98.4204 137.96C98.5818 138.236 98.4781 138.502 98.1092 138.755L95.7581 140.276L94.9282 140.622L95.1357 139.896Z" fill="#0D131A"/>
<path d="M77.4672 118.182L78.7119 120.672L79.8875 123.23C79.7953 124.291 79.6109 125.167 79.3343 125.858C79.0347 126.573 78.7004 126.93 78.3316 126.93C77.8936 126.93 77.5133 126.469 77.1906 125.547C76.8909 124.602 76.7411 123.472 76.7411 122.158C76.7411 120.43 76.9831 119.104 77.4672 118.182Z" fill="#0D131A"/>
<path d="M117.749 125.028C117.564 126.227 117.219 127.23 116.711 128.036C116.227 128.82 115.732 129.166 115.225 129.074C114.741 129.005 114.383 128.52 114.153 127.621C113.945 126.699 113.934 125.639 114.118 124.44C114.303 123.242 114.648 122.251 115.155 121.467C115.64 120.66 116.135 120.303 116.642 120.395C117.149 120.487 117.507 120.983 117.714 121.882C117.922 122.781 117.933 123.83 117.749 125.028Z" fill="#0D131A"/>
<path d="M116.815 65.5914C120.204 63.9548 125.079 61.9724 131.441 59.6443C137.987 57.2239 142.886 55.6565 146.136 54.9419L147.069 55.011C147.116 55.1955 146.85 55.3568 146.274 55.4951C143.347 56.2327 138.356 57.9731 131.303 60.7162C124.618 63.3209 119.42 65.4992 115.709 67.2511L116.815 65.5914Z" fill="#0D131A"/>
<path d="M160.381 53.8355C155.172 55.0571 147.715 57.3968 138.01 60.8545C126.992 64.7731 118.498 68.2884 112.528 71.4003L112.908 70.1901C118.694 67.1474 126.842 63.7704 137.353 60.0592C147.358 56.5555 154.987 54.2965 160.243 53.2822C160.819 53.19 161.13 53.2246 161.177 53.386C161.223 53.5704 160.958 53.7202 160.381 53.8355Z" fill="#0D131A"/>
<path d="M136.524 58.1921C136.869 55.91 137.434 53.7778 138.218 51.7954C138.333 51.4497 138.46 51.2998 138.598 51.3459C138.76 51.392 138.783 51.588 138.667 51.9337C138.137 53.5704 137.676 55.5988 137.284 58.0192L136.524 58.1921Z" fill="#0D131A"/>
<path d="M126.808 61.8917C127.292 59.4022 127.799 57.27 128.329 55.4951C128.444 55.1493 128.571 55.011 128.709 55.0802C128.848 55.1493 128.871 55.3568 128.778 55.7026C128.364 57.247 128.006 59.1602 127.707 61.4422L126.808 61.8917Z" fill="#0D131A"/>
<path d="M138.909 57.2239C139.071 56.0022 139.29 54.9188 139.566 53.9737C139.636 53.6971 139.751 53.5819 139.912 53.628C140.05 53.6741 140.097 53.8354 140.05 54.112L139.566 57.051L138.909 57.2239Z" fill="#0D131A"/>
<path d="M145.099 58.0883L147.588 60.2667C147.795 60.4511 147.842 60.6009 147.726 60.7162L147.242 60.6124L144.234 58.2612L145.099 58.0883Z" fill="#0D131A"/>
<path d="M127.05 64.5196L127.776 64.1392C128.583 64.6694 129.608 65.4877 130.853 66.5941L133.654 69.4294C133.861 69.683 133.907 69.8674 133.792 69.9826C133.654 70.0979 133.481 70.0287 133.273 69.7752L130.196 67.0091L127.05 64.5196Z" fill="#0D131A"/>
<path d="M132.409 62.4104L133.204 62.0646C135.071 63.4707 136.72 65.0382 138.149 66.767C138.379 67.0206 138.425 67.1935 138.287 67.2857C138.149 67.3779 137.964 67.2972 137.734 67.0436C136.074 65.3379 134.299 63.7935 132.409 62.4104Z" fill="#0D131A"/>
<path d="M67.6821 67.1128L69.1343 68.0118C64.939 68.9108 59.695 70.167 53.402 71.7806C45.9566 73.7169 40.9084 75.2037 38.2576 76.241L37.324 76.2755C37.2549 76.1142 37.4969 75.9182 38.0501 75.6877C40.9776 74.4891 45.8644 72.9101 52.7105 70.9508C58.8421 69.222 63.8326 67.9426 67.6821 67.1128Z" fill="#0D131A"/>
<path d="M25.7755 83.0179L24.8765 83.0871C24.8073 82.9257 25.0378 82.7298 25.568 82.4993C30.086 80.4939 36.3674 78.3155 44.4121 75.9644C52.3878 73.6132 59.522 71.8498 65.8149 70.6742L67.7512 71.3311C61.5966 72.5298 54.105 74.3623 45.2765 76.8288C36.6094 79.2491 30.109 81.3122 25.7755 83.0179Z" fill="#0D131A"/>
<path d="M45.2766 68.1155C44.9769 67.908 44.8732 67.7467 44.9654 67.6314L45.5532 67.7351C47.259 68.8646 48.9417 70.2823 50.6014 71.988L49.8753 72.2992C48.2386 70.5935 46.7057 69.1989 45.2766 68.1155Z" fill="#0D131A"/>
<path d="M53.1599 71.0891L52.503 71.3311L50.4284 69.2219C50.1518 68.9684 50.0596 68.784 50.1518 68.6687C50.244 68.5535 50.4399 68.6111 50.7396 68.8416L53.1599 71.0891Z" fill="#0D131A"/>
<path d="M31.6534 80.4938L32.3104 80.2518C32.126 81.2891 32.0107 82.3379 31.9646 83.3983C31.9416 83.744 31.8494 83.9284 31.688 83.9515C31.5497 83.9515 31.469 83.7786 31.446 83.4328C31.4229 82.6721 31.4921 81.6925 31.6534 80.4938Z" fill="#0D131A"/>
<path d="M47.1436 75.7223C47.0745 76.9209 47.0399 78.2809 47.0399 79.8023C47.063 81.6464 47.1321 82.9603 47.2474 83.744C47.2935 84.0667 47.2358 84.2396 47.0745 84.2627C46.9131 84.3088 46.7979 84.1705 46.7287 83.8477C46.5443 82.8566 46.406 81.5311 46.3138 79.8715C46.2446 78.1657 46.2677 76.8403 46.383 75.8952L47.1436 75.7223Z" fill="#0D131A"/>
<path d="M44.0318 76.5867C43.709 79.007 43.5938 81.3352 43.686 83.5711C43.709 83.9169 43.6399 84.1128 43.4785 84.1589C43.3402 84.182 43.248 84.0322 43.2019 83.7094C42.9484 81.5427 42.9599 79.2606 43.2365 76.8633L44.0318 76.5867Z" fill="#0D131A"/>
<path d="M95.8618 93.0797C97.2448 91.7427 101.359 91.8464 108.206 93.3908C115.098 94.9353 118.613 96.6526 118.751 98.5427C118.867 100.225 116.608 103.199 111.974 107.463C107.318 111.751 104.068 113.768 102.224 113.514C100.449 113.261 98.6394 110.08 96.7953 103.971C94.9743 97.8858 94.6631 94.2553 95.8618 93.0797Z" fill="#008982"/>
<path d="M95.516 98.4044C95.0781 95.523 95.1933 93.7481 95.8618 93.0796C96.5303 92.4342 98.1784 92.1807 100.806 92.319C103.25 92.4342 105.935 92.8491 108.863 93.5637C106.742 95.523 103.734 98.6925 99.8381 103.072C98.2245 101.113 96.7838 99.557 95.516 98.4044Z" fill="#00736D"/>
<path d="M95.1357 112.684C95.6658 113.63 95.5967 115.474 94.9282 118.217C94.2828 120.868 93.6489 122.216 93.0265 122.262C92.5655 122.308 91.7472 121.259 90.5716 119.116C89.3729 116.903 88.8889 115.404 89.1194 114.621C89.3499 113.837 90.3641 113.226 92.1621 112.788L95.1357 112.684Z" fill="#008982"/>
<path d="M55.1654 124.544L52.0535 124.44C51.6616 124.21 51.0623 123.472 50.2555 122.228C49.4026 120.868 49.0108 119.934 49.0799 119.427C49.1491 118.804 49.5755 117.675 50.3592 116.038C51.166 114.287 51.8691 113.088 52.4684 112.442C53.1138 111.774 54.4854 111.301 56.583 111.025C58.6345 110.748 59.7525 110.84 59.9369 111.301C60.2596 112.085 60.2596 114.148 59.9369 117.491C59.6372 120.948 59.2108 122.942 58.6576 123.472C58.1274 124.002 56.9633 124.36 55.1654 124.544Z" fill="#008982"/>
<path d="M49.3912 107.636C49.322 108.12 48.7918 108.674 47.8006 109.296C46.8556 109.872 46.1986 110.137 45.8298 110.091C45.4379 110.022 44.8847 109.331 44.1701 108.017C43.4325 106.634 43.2481 105.781 43.6169 105.458C44.0549 105.066 45.1383 105.181 46.8671 105.804C48.642 106.449 49.4834 107.06 49.3912 107.636Z" fill="#008982"/>
<path d="M26.9511 136.577L26.9857 133.119L26.4324 128.106C26.225 126.054 26.1097 124.256 26.0867 122.712C27.9538 122.181 29.164 121.951 29.7172 122.02C30.086 122.066 30.9274 123.253 32.2413 125.581C33.5552 127.933 34.2121 129.477 34.2121 130.215C34.2121 130.975 33.7165 132.289 32.7253 134.156C31.7341 136 31.008 137.015 30.547 137.199C29.9938 137.453 28.7952 137.245 26.9511 136.577Z" fill="#008982"/>
<path d="M89.6727 157.357C90.1337 157.265 91.7703 158.371 94.5825 160.677C97.3947 162.959 98.8815 164.399 99.0429 164.999C99.2042 165.598 98.9622 166.785 98.3168 168.56C97.6944 170.335 97.1988 171.315 96.83 171.499C96.4842 171.637 95.6198 171.637 94.2367 171.499L91.7127 171.015C91.3669 170.83 90.7676 170.139 89.9147 168.94C89.0618 167.719 88.5547 166.831 88.3933 166.278C88.2089 165.679 88.2896 164.077 88.6354 161.472C88.9581 158.798 89.3038 157.426 89.6727 157.357Z" fill="#008982"/>
<path d="M87.8055 173.297C88.1974 173.159 89.1079 173.412 90.5371 174.058C91.9893 174.703 92.7615 175.256 92.8537 175.717C92.9459 176.178 92.5771 176.927 91.7472 177.965C90.9635 178.979 90.3872 179.532 90.0184 179.624L88.3933 179.417C87.6557 179.186 87.2177 178.898 87.0794 178.552C86.872 177.999 86.872 177.008 87.0794 175.579C87.2869 174.15 87.5289 173.389 87.8055 173.297Z" fill="#008982"/>
<path d="M132.755 162.232C132.547 162.647 131.533 162.97 129.712 163.201C127.891 163.431 126.923 163.327 126.808 162.889C126.692 162.428 127.096 161.506 128.018 160.123C128.94 158.74 129.62 158.06 130.058 158.083C130.496 158.129 131.107 158.74 131.89 159.916C132.651 161.114 132.939 161.887 132.755 162.232Z" fill="#008982"/>
<path d="M138.875 160.262L138.771 160.538L136.005 160.434C135.59 160.02 135.325 158.844 135.21 156.908C135.094 155.11 135.141 153.853 135.348 153.139L135.417 152.862C137.676 152.493 139.624 152.528 141.261 152.966C140.592 155.525 139.797 157.956 138.875 160.262Z" fill="#008982"/>
<path d="M142.436 148.125L141.261 152.966C139.624 152.528 137.676 152.493 135.417 152.862C135.694 152.079 136.132 151.18 136.731 150.165C137.4 149.036 137.907 148.402 138.252 148.264L140.05 148.056L142.436 148.125Z" fill="#00736D"/>
<path d="M107.964 94.1515C101.14 92.6763 97.291 92.5264 96.4151 93.702C95.5852 94.8546 95.9656 98.197 97.5561 103.729C99.1466 109.331 100.703 112.35 102.224 112.788C103.791 113.272 106.811 111.29 111.283 106.841C115.524 102.646 117.737 99.9373 117.922 98.7156C118.152 97.1481 114.833 95.6268 107.964 94.1515ZM119.512 98.8539C119.305 100.514 116.896 103.579 112.286 108.051C107.422 112.777 103.964 114.828 101.913 114.206C99.6768 113.56 97.6944 110.091 95.9656 103.798C94.2828 97.6668 94.0178 93.8864 95.1703 92.4573C95.7927 91.6966 97.4524 91.3508 100.149 91.42C102.662 91.4891 105.463 91.881 108.551 92.5956C116.181 94.3936 119.835 96.4797 119.512 98.8539Z" fill="#0D131A"/>
<path d="M89.6381 114.655C89.5229 115.209 89.9608 116.499 90.952 118.528C91.9432 120.556 92.6117 121.525 92.9574 121.432C93.3954 121.317 93.868 120.003 94.3751 117.491C94.8822 114.978 94.9398 113.526 94.548 113.134C94.2252 112.811 93.3378 112.88 91.8856 113.341C90.4564 113.826 89.7073 114.263 89.6381 114.655ZM95.4469 112.097C96.2307 112.811 96.3114 114.701 95.689 117.767C95.0666 120.81 94.2598 122.504 93.2686 122.85C92.3927 123.173 91.2632 122.043 89.8801 119.461C88.5432 116.972 87.9669 115.278 88.1513 114.379C88.3127 113.618 89.4076 112.903 91.4361 112.235L95.4469 112.097Z" fill="#0D131A"/>
<path d="M47.6968 108.846C48.5728 108.316 48.9531 107.924 48.8379 107.671C48.6765 107.256 47.9273 106.795 46.5904 106.288C45.2534 105.804 44.4121 105.654 44.0663 105.838C43.7897 105.977 43.9395 106.599 44.5158 107.705C45.0921 108.789 45.5531 109.388 45.8989 109.503C46.2446 109.596 46.8439 109.377 47.6968 108.846ZM45.6568 110.644C45.0575 110.46 44.3775 109.607 43.6168 108.086C42.8561 106.495 42.7063 105.458 43.1673 104.974C43.6514 104.444 44.8846 104.547 46.867 105.285C48.8494 106.023 49.8751 106.772 49.9443 107.533C50.0135 108.132 49.4602 108.846 48.2846 109.676C47.109 110.506 46.2331 110.829 45.6568 110.644Z" fill="#0D131A"/>
<path d="M49.9443 115.52C51.0969 113.192 51.8345 111.924 52.1572 111.716C52.9179 111.232 54.2779 110.817 56.2372 110.472C58.3349 110.08 59.6488 110.103 60.1789 110.541C60.7783 111.025 60.9166 113.169 60.5939 116.972C60.2942 120.66 59.8678 122.908 59.3145 123.714C58.8766 124.36 57.6894 124.809 55.7532 125.063C54.0935 125.27 52.8718 125.282 52.0881 125.097C51.5579 124.982 50.8203 124.198 49.8752 122.746C48.9301 121.317 48.4114 120.234 48.3192 119.496C48.2731 119.15 48.8148 117.825 49.9443 115.52ZM51.0162 116.004C50.0942 117.986 49.6447 119.116 49.6677 119.392C49.6908 119.946 50.0481 120.798 50.7396 121.951C51.4542 123.127 52.0304 123.795 52.4684 123.956C52.9294 124.118 53.9321 124.106 55.4766 123.922C57.1132 123.714 58.0698 123.403 58.3464 122.988C58.7844 122.343 59.1416 120.36 59.4183 117.041C59.6718 113.722 59.6372 111.935 59.3145 111.682L56.5484 111.578C54.981 111.809 53.7132 112.212 52.745 112.788C52.5145 112.95 51.9382 114.021 51.0162 116.004Z" fill="#0D131A"/>
<path d="M27.8501 122.885C27.0202 123.069 26.3172 123.299 25.7409 123.576L25.6718 122.193C26.2941 121.939 27.0663 121.709 27.9884 121.501L29.9938 121.259C30.6162 121.398 31.6189 122.827 33.0019 125.547C34.362 128.175 35.0074 129.788 34.9382 130.388C34.846 131.24 34.3159 132.624 33.3477 134.537C32.2413 136.68 31.3192 137.798 30.5816 137.891L28.3341 137.649C27.389 137.418 26.686 137.165 26.225 136.888V135.401C26.6399 135.747 27.2623 136.047 28.0921 136.3L30.1321 136.577C30.5931 136.508 31.2616 135.597 32.1375 133.845C32.9674 132.139 33.3823 130.998 33.3823 130.422C33.3823 129.8 32.8406 128.394 31.7572 126.204C30.6508 124.014 29.9016 122.85 29.5097 122.712L27.8501 122.885Z" fill="#0D131A"/>
<path d="M89.88 158.083C89.5343 158.222 89.2807 159.328 89.1194 161.403C88.9811 163.085 88.935 164.699 88.9811 166.243C89.0041 166.52 89.4306 167.234 90.2604 168.387C91.0902 169.493 91.6319 170.127 91.8855 170.289L94.2713 170.842C95.6313 171.026 96.4265 171.038 96.657 170.877C97.0028 170.623 97.4292 169.724 97.9363 168.18C98.4435 166.566 98.5818 165.529 98.3513 165.068C97.9824 164.33 96.5763 162.947 94.1329 160.919C91.6665 158.867 90.2489 157.922 89.88 158.083ZM88.0129 161.126C88.2895 158.475 88.716 157.034 89.2922 156.804C90.0068 156.527 91.7933 157.542 94.6516 159.847C97.3716 162.06 98.9736 163.639 99.4577 164.584C99.8035 165.298 99.6652 166.589 99.0428 168.456C98.4896 170.139 97.9594 171.234 97.4523 171.741C97.1065 172.11 96.1153 172.225 94.4787 172.087C93.0034 171.971 91.9546 171.776 91.3323 171.499C91.0095 171.384 90.3411 170.577 89.3268 169.079C88.3126 167.58 87.7939 166.635 87.7709 166.243C87.7017 164.883 87.7824 163.178 88.0129 161.126Z" fill="#0D131A"/>
<path d="M91.5398 177.273C92.0008 176.466 92.1852 175.971 92.093 175.786C91.9316 175.487 91.3093 175.083 90.2259 174.576C89.1194 174.069 88.3933 173.827 88.0475 173.85C87.8631 173.85 87.7018 174.403 87.5635 175.51C87.4021 176.662 87.4136 177.55 87.5981 178.172C87.6672 178.403 88.036 178.633 88.7045 178.864L90.053 179.037C90.5371 178.737 91.0326 178.149 91.5398 177.273ZM93.4069 175.51C93.3838 176.178 93.015 177.043 92.3004 178.103C91.632 179.094 91.0557 179.74 90.5716 180.039L88.3587 179.901C87.2523 179.555 86.653 179.175 86.5608 178.76C86.3303 177.976 86.3187 176.801 86.5262 175.233C86.7106 173.574 87.0333 172.675 87.4943 172.536C88.0476 172.352 89.177 172.675 90.8828 173.504C92.5886 174.334 93.4299 175.003 93.4069 175.51Z" fill="#0D131A"/>
<path d="M130.058 158.637C129.827 158.637 129.297 159.247 128.467 160.469C127.638 161.714 127.292 162.428 127.43 162.613L129.816 162.544C131.268 162.29 132.04 162.025 132.132 161.748C132.225 161.541 131.96 160.976 131.337 160.054C130.715 159.132 130.288 158.66 130.058 158.637ZM130.162 157.495C130.715 157.588 131.452 158.325 132.374 159.708C133.273 161.091 133.631 161.99 133.446 162.405C133.193 162.982 132.029 163.431 129.954 163.754C127.857 164.077 126.589 163.996 126.151 163.512C125.782 163.097 126.208 161.967 127.43 160.123C128.652 158.279 129.562 157.403 130.162 157.495Z" fill="#0D131A"/>
<path d="M140.88 147.399L143.612 147.71L143.197 149.128L140.915 148.782C139.832 148.713 139.025 148.713 138.495 148.782C138.195 148.805 137.699 149.474 137.008 150.788C136.362 152.055 135.97 153.012 135.832 153.657C135.648 154.533 135.613 155.744 135.728 157.288C135.867 158.879 136.074 159.754 136.351 159.916L137.457 160.089L140.016 159.605L139.359 161.091C137.492 161.552 136.213 161.552 135.521 161.091C134.991 160.746 134.657 159.455 134.518 157.219C134.38 155.375 134.38 154.107 134.518 153.415C134.61 152.839 135.048 151.79 135.832 150.269C136.731 148.448 137.48 147.503 138.08 147.434C138.679 147.365 139.613 147.353 140.88 147.399Z" fill="#0D131A"/>
<path d="M130.611 75.2382L131.406 76.5176L132.34 78.1081C132.732 78.8457 132.859 79.2606 132.72 79.3528L131.648 79.3874L130.196 79.2145L131.614 79.7332C132.052 79.8945 132.34 80.0674 132.478 80.2518C132.732 80.5745 132.858 81.6464 132.858 83.4674C132.882 85.3115 132.663 86.1183 132.202 85.8878L127.879 84.2627L123.454 82.7413C125.92 84.401 127.937 85.8878 129.505 87.2017L130.576 88.1352C130.899 88.481 130.98 88.7922 130.818 89.0688C127.568 95.039 125.782 98.0356 125.459 98.0587C125.275 98.0587 124.572 97.3556 123.35 95.9495L120.515 92.561L122.624 99.9258C122.854 100.963 122.716 101.862 122.209 102.623C121.909 103.084 120.63 104.259 118.371 106.15C116.112 108.04 114.936 108.927 114.844 108.812L114.533 105.423L114.256 100.686L112.908 103.418C112.378 104.501 111.997 105.066 111.767 105.112C111.467 105.181 109.831 104.49 106.857 103.038C103.883 101.585 102.42 100.71 102.466 100.41C102.512 100.156 103.296 98.9692 104.817 96.8485L107.514 93.1488C107.122 93.5637 106.246 94.6356 104.886 96.3644L103.019 98.5427L100.011 96.8139L97.1757 94.8776C97.1757 94.6702 97.9824 93.6905 99.596 91.9386C101.302 90.0715 102.812 88.5617 104.126 87.4091C103.18 87.8471 101.717 88.9996 99.7343 90.8668L96.7953 93.46C96.5187 93.4831 95.1818 92.4803 92.7845 90.4519C90.4102 88.4464 89.2116 87.2939 89.1885 86.9942C89.1655 86.7176 89.9607 85.6342 91.5743 83.744C93.1187 81.9 94.594 80.2864 96.0001 78.9033C95.055 79.4335 93.0957 81.1393 90.1221 84.0206C87.356 86.7176 85.8807 88.0661 85.6963 88.0661C85.3736 88.0661 84.7282 87.2247 83.76 85.542C82.8149 83.8823 82.3654 82.8681 82.4115 82.4993C82.4576 82.1305 83.0454 81.22 84.1749 79.7678C85.6271 77.8776 87.2638 76.264 89.0848 74.9271C94.7092 70.7548 100.656 70.0864 106.926 72.9216L107.549 72.6796C115.962 68.9223 123.615 69.7521 130.507 75.1691L130.611 75.2382Z" fill="#0D131A"/>
<path d="M127.223 83.3983L120.964 81.22C119.512 80.8281 118.786 80.7013 118.786 80.8396C118.786 80.9549 119.431 81.3467 120.722 82.0152C121.944 82.6606 123.569 83.744 125.598 85.2654L129.92 88.8959L127.395 93.3908C126.197 95.5115 125.505 96.5834 125.321 96.6064C125.067 96.6064 123.281 94.6241 119.962 90.6593L118.993 89.6912L119.235 91.0742L120.722 96.6064C121.598 99.6492 122.002 101.251 121.932 101.413L119.235 103.902L115.57 107.014L115.501 102.173C115.478 99.5915 115.397 98.1854 115.259 97.9549C115.029 97.5861 113.761 99.58 111.456 103.937C107.698 101.701 105.232 100.341 104.056 99.8566L107.134 95.5692L110.176 91.3163L111.145 90.0715C111.26 89.7488 110.776 89.8756 109.692 90.4519C107.94 91.3739 105.647 93.6905 102.812 97.4017L98.4896 94.6702L102.258 90.5556C104.264 88.481 105.612 87.2593 106.304 86.8905L107.687 86.1298L106.166 86.0952C103.63 86.2566 100.484 88.3196 96.7262 92.2844L90.3642 86.8905C91.1709 85.8071 92.3811 84.3318 93.9947 82.4647C95.9771 80.1596 97.2679 78.7996 97.8672 78.3847L99.0083 77.5549L97.7289 77.624C95.5391 77.9698 93.1764 79.2837 90.6408 81.5657C89.2808 82.8105 87.6672 84.5047 85.8001 86.6485L83.276 82.7067C85.2814 79.2491 87.8977 76.5291 91.1248 74.5467C96.1499 71.4348 101.578 71.1352 107.41 73.6477L107.86 73.4748C110.995 72.2301 113.876 71.5386 116.504 71.4003C121.391 71.1698 125.863 72.6335 129.92 75.7915L131.199 78.4193L130.231 78.3155L127.949 78.2464L126.185 78.4538C126.254 78.5691 126.773 78.7766 127.741 79.0762C128.848 79.422 130.208 80.0328 131.821 80.9088L131.96 82.8105C132.006 83.9861 131.971 84.7237 131.856 85.0234L127.223 83.3983Z" fill="#00A63C"/>
<path d="M54.6813 47.7846L54.7505 48.649C49.8867 46.6436 45.9911 45.2374 43.0637 44.4307C42.4874 44.2693 42.2338 44.0964 42.303 43.912L43.2365 43.8429C46.3715 44.7188 50.1864 46.0327 54.6813 47.7846Z" fill="#0D131A"/>
<path d="M55.1308 50.3778L55.3037 51.3459C47.5585 47.5656 40.6433 44.788 34.5578 43.013C34.0046 42.8517 33.7626 42.6788 33.8317 42.4944L34.7307 42.4598C40.8392 44.1886 47.6392 46.828 55.1308 50.3778Z" fill="#0D131A"/>
<path d="M50.8087 46.6436L50.0481 46.4361C49.8175 44.0388 49.4718 41.9988 49.0108 40.3161C48.9186 39.9703 48.9416 39.7744 49.0799 39.7283C49.2182 39.6822 49.345 39.832 49.4603 40.1778C50.1057 42.1832 50.5552 44.3385 50.8087 46.6436Z" fill="#0D131A"/>
<path d="M48.6304 45.8483L47.9389 45.6408C47.9389 44.4422 47.8121 43.3012 47.5585 42.2178C47.5124 41.9412 47.5585 41.7798 47.6969 41.7337L48.0426 42.0795C48.4345 43.0937 48.6304 44.35 48.6304 45.8483Z" fill="#0D131A"/>
<path d="M48.3884 47.7846L49.1145 48.0958L46.3484 50.5161L43.2711 52.5907C42.9714 52.729 42.787 52.729 42.7178 52.5907C42.6256 52.4524 42.7294 52.3026 43.029 52.1412C44.0894 51.5188 45.8758 50.0666 48.3884 47.7846Z" fill="#0D131A"/>
<path d="M113.634 82.5684C112.435 78.3271 110.361 75.3535 107.41 73.6477L108.24 73.0599C111.329 74.9271 113.45 78.1196 114.602 82.6376C115.663 86.7637 115.743 91.1895 114.844 95.9149C114.706 96.5834 114.545 96.8946 114.36 96.8485C114.176 96.8024 114.13 96.4451 114.222 95.7766C114.959 90.9359 114.764 86.5332 113.634 82.5684Z" fill="#0D131A"/>
<path d="M116.089 90.3135C116.688 82.1765 114.429 76.1948 109.312 72.3684L110.28 72.0572C115.559 75.9758 117.691 82.0959 116.677 90.4173C116.585 91.1088 116.458 91.443 116.296 91.42C116.112 91.3739 116.043 91.0051 116.089 90.3135Z" fill="#0D131A"/>
<path d="M112.009 77.866L112.804 78.9033C111.052 78.8111 109.381 79.0647 107.791 79.664C106.246 80.2633 104.644 81.243 102.985 82.603C102.547 82.9488 102.27 83.064 102.155 82.9488C102.016 82.8566 102.143 82.6145 102.535 82.2227C105.37 79.3643 108.528 77.9121 112.009 77.866Z" fill="#0D131A"/>
</g>
<defs>
<clipPath id="clip0_32_2690">
<rect width="187.54" height="191" fill="white"/>
</clipPath>
</defs>
</svg>
