<svg width="191" height="155" viewBox="0 0 191 155" fill="none" xmlns="http://www.w3.org/2000/svg">
<g clip-path="url(#clip0_32_2274)">
<path d="M28.0251 66.4086L28.2559 71.2553C25.3105 70.8597 20.6617 71.2444 14.3093 72.4093C10.7924 73.0468 6.94579 73.882 2.76949 74.9151C1.75838 75.1789 1.69244 74.9481 2.57166 74.2227C3.47287 73.4974 4.96754 72.6621 7.0557 71.7169C13.1223 68.9694 20.1121 67.1999 28.0251 66.4086Z" fill="#FFF1AC"/>
<path d="M30.1683 77.4209L32.3114 81.806C29.4319 82.4435 25.1567 84.4107 19.4857 87.7078C16.2546 89.5981 12.8915 91.7193 9.39664 94.0712C8.5394 94.6646 8.39652 94.4778 8.96802 93.5107C9.56149 92.4996 10.6715 91.1917 12.2981 89.5871C17.0459 84.9273 23.0026 80.8718 30.1683 77.4209Z" fill="#FFF1AC"/>
<path d="M28.9813 72.805L29.6078 76.135C27.6295 76.157 25.1128 76.9813 22.0575 78.6078C20.4529 79.4651 18.5406 80.5311 16.3205 81.806C15.6831 82.0698 15.5402 81.839 15.8919 81.1136C16.2656 80.3663 17.0019 79.487 18.101 78.4759C21.1563 75.6185 24.783 73.7281 28.9813 72.805Z" fill="#FFF1AC"/>
<path d="M28.0911 67.6945L28.256 71.2553C24.6511 70.7718 18.6724 71.4092 10.3198 73.1676C12.43 71.9148 15.0347 70.8377 18.1339 69.9365C20.5518 69.2331 23.8708 68.4858 28.0911 67.6945Z" fill="#DCD096"/>
<path d="M30.7947 78.7397L32.3113 81.806C28.7945 82.5973 23.4092 85.235 16.1556 89.719C18.0679 87.5649 20.222 85.5977 22.6179 83.8172C24.794 82.2126 27.5196 80.5201 30.7947 78.7397Z" fill="#DCD096"/>
<path d="M29.2121 73.959L29.6077 76.135C27.8273 76.157 25.6512 76.8054 23.0795 78.0803C21.6508 78.7837 19.8044 79.8168 17.5404 81.1796C20.7056 77.5967 24.5962 75.1899 29.2121 73.959Z" fill="#DCD096"/>
<path d="M47.2802 112.073C48.2034 110.139 49.0936 108.842 49.9508 108.183C51.0718 107.347 52.4786 107.194 54.1711 107.721C55.8196 108.249 57.1055 108.578 58.0287 108.71L60.0729 108.776L64.6558 116.228L67.3264 123.283C65.0405 124.536 62.6556 124.569 60.1718 123.382C59.4025 123.009 58.6661 122.536 57.9627 121.964L57.1385 121.239L53.2479 127.668C52.4786 128.987 51.6983 128.998 50.907 127.701C50.1157 126.449 49.9069 125.141 50.2805 123.778C50.5663 122.701 51.1707 121.47 52.0939 120.085L53.9403 117.579C54.226 117.206 54.1161 116.524 53.6106 115.535L52.7863 114.15L51.0059 116.162C49.5991 117.524 48.3682 118.305 47.3132 118.503C46.1482 118.722 45.6316 118.14 45.7635 116.755C45.8514 115.59 46.357 114.029 47.2802 112.073Z" fill="#C18963"/>
<path d="M51.0059 116.162C49.5991 117.524 48.3682 118.305 47.3131 118.503H46.5878C47.6868 118.107 48.7858 117.008 49.8849 115.205C50.9619 113.469 51.94 112.469 52.8193 112.205C53.8963 111.853 55.358 111.711 57.2044 111.776C59.4244 111.842 60.8861 111.82 61.5895 111.711L64.7547 115.997L67.2605 123.481C64.9745 124.712 62.6006 124.712 60.1388 123.481C59.3695 123.085 58.6331 122.591 57.9297 121.997L57.1384 121.239L53.2479 127.668C52.8302 128.394 52.3687 128.691 51.8631 128.559C51.4235 128.449 51.0278 128.042 50.6762 127.339C52.0609 126.174 52.9951 124.844 53.4787 123.349C54.0062 121.679 53.8084 120.217 52.8852 118.964L53.9403 117.579C54.226 117.206 54.1161 116.524 53.6106 115.535L52.7863 114.15L51.0059 116.162Z" fill="#986C4C"/>
<path d="M61.5235 111.15L65.8757 118.503C64.5349 117.689 63.3699 117.184 62.3808 116.986C61.0839 116.7 59.798 116.821 58.5232 117.349C57.8857 117.612 57.5121 117.458 57.4022 116.887C57.3362 116.381 57.4901 115.678 57.8638 114.777C58.8529 112.469 60.0728 111.26 61.5235 111.15Z" fill="#C18963"/>
<path d="M65.8757 118.503C63.7876 117.25 61.9632 116.7 60.4026 116.854C61.3038 116.173 61.8203 115.425 61.9522 114.612C62.0841 113.755 62.2819 113.194 62.5457 112.93L65.8757 118.503Z" fill="#986C4C"/>
<path d="M99.6048 138.911C99.385 139.747 97.6705 140.747 94.4614 141.912L89.219 143.56C88.9333 143.648 88.3947 144.319 87.6034 145.572L86.1527 147.945C85.9109 148.297 85.1306 148.792 83.8118 149.429C82.449 150.067 81.4379 150.385 80.7785 150.385C80.207 150.385 80.3828 148.858 81.306 145.802L82.8556 141.219L81.372 141.615C80.141 141.989 78.9541 142.461 77.8111 143.033C76.9539 143.45 75.9208 144.451 74.7118 146.033C73.6128 147.462 72.5797 148.297 71.6126 148.539C70.4256 148.825 69.8212 148.352 69.7992 147.121L70.2278 143.264C69.0409 143.483 68.5353 142.472 68.7112 140.23C68.887 138.054 69.4145 136.647 70.2938 136.01C71.2389 135.351 72.7116 134.548 74.7118 133.603C76.9758 132.548 78.6793 131.922 79.8223 131.724L99.6048 138.911Z" fill="#C18963"/>
<path d="M99.6049 138.911C99.3851 139.747 97.6706 140.747 94.4614 141.912L89.2191 143.56C88.9333 143.648 88.3948 144.319 87.6035 145.572L86.1528 147.945L84.9329 148.935L83.3173 150.023C83.3173 149.012 84.1635 147.132 85.856 144.385C87.3507 141.967 87.9112 140.615 87.5376 140.329C86.7023 139.692 85.0867 140.12 82.6908 141.615L81.3061 141.714C80.207 142 79.0421 142.439 77.8112 143.033C77.0199 143.428 76.2176 144.132 75.4043 145.143L73.459 147.484C73.2172 144.363 74.7998 141.736 78.2068 139.604C81.5039 138.065 82.9986 137.131 82.6908 136.801C82.3172 136.428 81.6468 136.296 80.6796 136.406L79.3278 136.669L77.5474 136.867C76.0307 137.175 74.4701 137.757 72.8655 138.615C72.1622 137.955 72.8216 136.867 74.8438 135.351C76.91 133.79 77.8112 132.812 77.5474 132.416C78.0529 131.955 78.5035 131.713 78.8992 131.691L79.8224 131.724L99.6049 138.911Z" fill="#986C4C"/>
<path d="M175.767 26.9755C181.416 34.8006 185.109 43.6148 186.846 53.4181C188.692 63.8589 187.901 73.3984 184.472 82.0368C181.614 89.2244 177.053 95.3021 170.789 100.27C166.261 103.874 161.183 106.666 155.556 108.644L156.677 88.8947C158.744 88.3672 160.997 87.0923 163.436 85.0701C166.14 82.8281 168.481 80.1025 170.459 76.8934C175.581 68.6507 177.119 59.5067 175.075 49.4616C172.701 37.8559 166.964 27.4261 157.864 18.1723C154.589 14.8313 151.116 11.9079 147.446 9.40207C144.478 7.37986 142.06 6.05004 140.192 5.4126C134.345 2.88484 131.576 1.41214 131.883 0.994512C132.059 0.752726 133.993 0.91758 137.686 1.48907C142.742 2.30235 148.028 4.19268 153.545 7.16006C162.205 11.8419 169.613 18.4471 175.767 26.9755Z" fill="#C18963"/>
<path d="M156.677 88.8947C157.623 88.6529 158.601 88.2463 159.612 87.6748C162.074 88.3122 163.821 89.3343 164.854 90.7411L165.678 92.0599C165.92 92.4116 166.217 92.5875 166.569 92.5875C174.174 91.5104 179.581 87.1912 182.79 79.6299C184.988 74.5085 186.461 66.5625 187.208 55.792C188.527 65.3755 187.615 74.1238 184.472 82.0368C181.614 89.2244 177.053 95.3021 170.789 100.27C166.261 103.874 161.183 106.666 155.556 108.644L156.677 88.8947Z" fill="#986C4C"/>
<path d="M43.8512 43.4939L33.3006 51.308C31.6081 49.3078 30.6079 47.923 30.3002 47.1537C30.1024 46.6701 30.7728 46.0656 32.3114 45.3403L34.6524 44.4171L31.9158 39.8671C30.0914 36.6579 29.1792 34.5698 29.1792 33.6027C29.1792 32.5476 31.1574 32.4707 35.1139 33.3719C38.8726 34.2291 41.829 35.2952 43.9831 36.57L43.8512 43.4939Z" fill="#D18200"/>
<path d="M43.5544 42.4059L43.8512 43.4939L39.4001 46.3624C37.5098 45.3293 36.0261 43.8566 34.9491 41.9443C33.894 40.054 33.4983 38.1746 33.7621 36.3063C35.5865 37.0316 37.3669 37.9328 39.1034 39.0099C40.8179 40.0869 42.3016 41.2189 43.5544 42.4059Z" fill="#C18963"/>
<path d="M43.5545 42.4059L43.8512 43.4939L41.6751 44.8787C40.686 43.6258 39.4441 42.3509 37.9494 41.0541C36.5207 39.8232 35.1139 38.7901 33.7292 37.9548C33.6632 37.4712 33.6742 36.9217 33.7621 36.3063C35.5865 37.0316 37.3669 37.9328 39.1034 39.0099C40.8179 40.0869 42.3016 41.2189 43.5545 42.4059Z" fill="#986C4C"/>
<path d="M150.149 131.856C150.545 132.757 150.314 133.933 149.457 135.384C148.753 136.549 146.907 138.087 143.918 140L137.225 143.956C136.587 145.561 135.675 147.143 134.488 148.704C133.235 150.33 132.059 151.418 130.96 151.968C129.883 152.517 129.323 151.726 129.279 149.594C129.213 147.528 129.564 145.879 130.334 144.648C128.883 145.55 127.004 147.099 124.696 149.297L120.245 153.353C119.277 154.034 118.717 153.166 118.563 150.748L118.629 146.956L117.211 147.748C115.958 148.583 114.618 149.792 113.189 151.374C112.507 152.144 112.09 151.572 111.936 149.66C111.782 147.704 112.09 146.011 112.859 144.582C113.606 143.198 114.673 141.967 116.057 140.89C117.134 140.032 118.607 139.142 120.475 138.219L144.313 125.163C147.676 128.46 149.622 130.691 150.149 131.856Z" fill="#C18963"/>
<path d="M121.926 151.968C122.871 148.187 124.421 145.418 126.575 143.659C127.344 143.044 128.322 142.439 129.509 141.846L132.51 140.395C132.312 140.901 131.597 141.835 130.367 143.198C129.224 144.451 128.608 145.363 128.52 145.934C127.531 146.704 126.366 147.726 125.025 149.001L121.926 151.968Z" fill="#986C4C"/>
<path d="M149.819 131.922C150.061 132.647 149.83 133.911 149.127 135.713C148.665 136.966 146.94 138.483 143.951 140.263L137.225 143.956L134.389 147.945C133.048 149.858 131.927 151.078 131.026 151.605C131.334 149.517 132.059 147.352 133.202 145.11C134.235 143.066 135.411 141.329 136.73 139.901C137.17 139.417 138.313 138.582 140.159 137.395C141.016 136.823 141.192 136.109 140.686 135.252C139.873 134.087 138.466 133.24 136.466 132.713C134.796 132.273 133.092 132.119 131.356 132.251L144.313 125.163C147.522 128.306 149.358 130.559 149.819 131.922Z" fill="#986C4C"/>
<path d="M109.694 54.0446C110.925 52.9895 113.244 52.0553 116.651 51.2421L121.399 50.3518C120.321 51.275 118.706 52.9565 116.552 55.3964C119.409 53.9896 122.728 53.0884 126.509 52.6928C130.465 52.2751 133.73 52.5719 136.301 53.583C134.785 53.8028 132.905 54.5501 130.663 55.825C128.421 57.0779 127.311 58.0121 127.333 58.6275L133.73 58.2978L137.554 58.6275L133.993 60.7047L140.06 61.2982C139.071 61.6498 137.818 62.2873 136.301 63.2105C138.389 63.694 140.73 65.0129 143.324 67.167C146.094 69.4749 148.577 72.2994 150.776 75.6405C156.293 83.9931 158.425 92.7743 157.172 101.984C155.787 112.249 150.248 121.129 140.555 128.625C130.773 136.164 119.948 139.824 108.078 139.604C98.1431 139.406 89.5927 137.208 82.427 133.01C80.185 131.713 78.2177 130.284 76.5252 128.723L74.6459 126.778C74.8657 128.295 74.7228 129.042 74.2173 129.02C73.7117 128.998 72.228 126.481 69.7662 121.47L69.0408 123.085C68.4694 124.163 67.9418 124.701 67.4582 124.701C66.3153 118.305 64.0623 113.249 60.6992 109.534C59.6661 108.37 58.5781 107.413 57.4351 106.666L56.0174 105.875L46.5877 105.182C45.0271 105.182 43.5434 104.666 42.1367 103.633C40.642 102.49 39.455 100.874 38.5758 98.786C38.1802 97.8628 37.6526 95.379 36.9932 91.3346C36.4657 88.0815 35.5425 85.6636 34.2237 84.081C30.9925 80.2344 28.8494 75.036 27.7943 68.4858C27.4207 66.0899 27.8053 63.694 28.9483 61.2982L30.7617 58.3967L30.0693 56.8801C29.6517 55.7591 29.5748 54.9678 29.8385 54.5062C30.2122 53.8687 32.3113 52.0004 36.136 48.9011C40.0485 45.7359 42.5433 43.9335 43.6203 43.4939C43.6203 41.4717 43.7522 39.3726 44.016 37.1965C44.5435 32.8224 45.4777 30.2506 46.8185 29.4813C46.6646 31.1738 46.7416 32.5476 47.0493 33.6027L47.8736 31.7893C48.533 30.6243 49.1045 30.0858 49.5881 30.1737C49.2144 31.4266 49.1045 33.1081 49.2584 35.2182L49.5881 37.9878L51.4015 33.6027L51.7971 34.4929L52.5554 37.2954C54.2699 34.328 57.611 31.6024 62.5786 29.1186C65.0843 27.8877 67.4033 26.9426 69.5354 26.2831C68.5902 27.0525 67.6781 27.8987 66.7988 28.8219C65.0404 30.7122 64.348 32.086 64.7217 32.9433C65.4031 31.9761 66.8648 30.998 69.1068 30.0088L72.305 28.7889L70.5245 30.6683C69.2936 32.1629 68.5793 33.5257 68.3814 34.7566C71.3708 31.1299 76.2725 28.8329 83.0864 27.8657C82.3171 28.3493 81.251 29.5692 79.8882 31.5255L78.0419 34.2951L80.3498 33.3059C81.9984 32.6685 83.0644 32.3937 83.548 32.4817C82.9765 33.0532 82.4929 34.0972 82.0973 35.6139L81.7016 37.757L109.694 54.0446Z" fill="#D18200"/>
<path d="M69.1068 30.0088L72.305 28.7889L71.118 29.9759C70.2168 30.965 69.5354 31.9212 69.0739 32.8443L67.1286 34.6248L65.1174 36.2074C65.0075 35.9656 64.9965 35.4161 65.0844 34.5588C65.1503 33.8994 65.0184 33.5697 64.6887 33.5697C62.9523 33.5697 60.8971 34.7347 58.5232 37.0646C59.5563 34.5368 61.1389 31.7783 63.271 28.7889C65.557 27.6899 67.6451 26.8546 69.5354 26.2831C68.5903 27.0525 67.6781 27.8987 66.7989 28.8219C65.0404 30.7122 64.348 32.086 64.7217 32.9433C65.4031 31.9761 66.8648 30.998 69.1068 30.0088Z" fill="#AB6A00"/>
<path d="M81.0093 28.2284L83.0865 27.8658C82.3171 28.3493 81.2511 29.5692 79.8883 31.5255L78.0419 34.2951L80.3499 33.3059C81.9984 32.6685 83.0645 32.3937 83.548 32.4817C82.9766 33.0532 82.493 34.0972 82.0973 35.6139L81.7017 37.757L83.6799 38.911C80.6466 39.1747 77.3935 39.8781 73.9206 41.0211C74.4921 39.8561 75.657 38.3944 77.4155 36.636H72.1401C73.2172 35.0754 74.58 33.5587 76.2285 32.086C77.4594 30.943 79.053 29.6572 81.0093 28.2284Z" fill="#AB6A00"/>
<path d="M47.6429 32.2838C48.3682 30.7672 49.0167 30.0638 49.5882 30.1737C49.0826 31.7563 49.0277 34.0643 49.4233 37.0976C48.8738 38.4824 48.5441 39.6473 48.4342 40.5925C47.6649 38.3065 47.4011 35.537 47.6429 32.2838Z" fill="#AB6A00"/>
<path d="M50.5443 49.2308C49.5991 50.7035 48.4781 52.9785 47.1812 56.0558C45.7965 58.4736 43.7083 59.8254 40.9168 60.1112C38.0154 60.4189 36.6416 59.3529 36.7954 56.913C36.9053 55.0886 37.4658 53.55 38.477 52.2971C39.0484 51.6157 41.3564 50.7035 45.4008 49.5605C49.4672 48.4175 51.1817 48.3076 50.5443 49.2308Z" fill="#AB6A00"/>
<path d="M126.773 63.3753C123.783 61.5729 120.091 60.2651 115.695 59.4518C111.804 58.7484 106.661 58.3198 100.264 58.1659C101.759 55.1986 102.396 52.3631 102.177 49.6595L109.694 54.0446C110.925 52.9895 113.244 52.0553 116.651 51.2421L121.399 50.3518C120.322 51.275 118.706 52.9565 116.552 55.3964C119.409 53.9896 122.728 53.0884 126.509 52.6928C130.466 52.2751 133.73 52.5719 136.301 53.583C134.785 53.8028 132.905 54.5501 130.663 55.825C128.421 57.0779 127.311 58.0121 127.333 58.6275L133.796 58.2978L137.686 58.6275L133.993 60.7047L139.631 61.2982C138.928 61.6498 137.818 62.2873 136.301 63.2105C138.39 63.694 140.73 65.0129 143.324 67.167C146.094 69.4749 148.578 72.2994 150.776 75.6405C156.293 83.9931 158.425 92.7743 157.172 101.984C155.787 112.249 150.248 121.129 140.555 128.625C130.773 136.164 119.948 139.824 108.078 139.604L105.012 139.472C112.859 136.988 119.376 132.768 124.564 126.811C129.202 121.492 132.411 115.249 134.191 108.084C134.609 106.391 134.939 103.127 135.18 98.2914C135.378 94.247 135.664 92.1369 136.038 91.961C136.499 91.7632 137.148 92.2687 137.983 93.4777C138.862 94.7745 139.478 95.423 139.829 95.423C139.895 92.3017 139.675 89.4662 139.17 86.9165L138.214 82.8281C138.082 82.0808 138.236 81.817 138.675 82.0368C138.961 82.1687 139.972 82.916 141.709 84.2788C137.488 73.7721 132.51 66.8043 126.773 63.3753Z" fill="#AB6A00"/>
<path d="M109.364 55.2315C107.716 60.8585 103.309 63.5182 96.1429 63.2105C91.9446 63.0346 88.076 62.2213 84.5371 60.7706C81.1302 59.3858 78.4705 57.6054 76.5582 55.4293C74.6019 53.1873 73.7007 50.8464 73.8546 48.4066C74.0304 45.7689 75.4262 43.2851 78.0419 40.9552C84.0206 35.6359 89.7465 31.6134 95.2197 28.8878C101.572 25.7226 107.001 24.6236 111.507 25.5908C111.353 27.2613 110.441 30.1627 108.771 34.295L111.771 36.636C113.749 38.2845 114.738 39.3396 114.738 39.8012C114.738 40.5705 113.057 42.8675 109.694 46.6921L109.991 49.3957C110.079 51.5278 109.87 53.4731 109.364 55.2315Z" fill="#D18200"/>
<path d="M81.2072 48.3077C81.6907 46.5932 83.702 44.1643 87.2408 41.0211C90.7137 37.9218 94.2746 35.3391 97.9234 33.273C100.231 31.9761 102.506 32.6465 104.748 35.2842C106.858 37.746 107.914 40.4496 107.914 43.395C107.914 47.6372 106.869 51.1761 104.781 54.0116C102.495 57.1328 99.44 58.6055 95.6154 58.4297C90.6918 58.2099 87.4716 57.0999 85.9549 55.0996C84.6581 52.2861 83.0755 50.0221 81.2072 48.3077Z" fill="#C18963"/>
<path d="M103.726 34.2291C99.3301 37.4383 95.5824 40.6035 92.4832 43.7247C88.8564 47.3735 86.4385 50.6815 85.2296 53.6489C84.2405 51.6926 82.8997 49.9452 81.2072 48.4065C81.6907 46.6921 83.702 44.2412 87.2408 41.0541C90.7357 37.9108 94.2966 35.3171 97.9234 33.2729C99.8137 32.2179 101.748 32.5366 103.726 34.2291Z" fill="#986C4C"/>
<path d="M111.507 78.1133C114.343 79.1683 115.783 79.9816 115.826 80.5531L112.892 80.652C109.683 79.8387 104.66 79.0145 97.8244 78.1792C88.7684 77.0582 81.8665 76.8054 77.1187 77.4209C78.0639 78.0583 79.4267 79.2233 81.2071 80.9158C83.559 83.1578 84.6361 84.6745 84.4382 85.4658L83.0864 89.8179L77.8111 92.5545L80.3828 92.7193L83.0205 92.8182H84.669L81.4709 94.1701L85.0647 94.3349L88.6915 94.4998L91.5599 94.8624L94.923 96.8077C97.3408 98.3903 98.9784 99.863 99.8356 101.226C100.143 101.731 100.748 104.061 101.649 108.216C102.33 111.403 103.462 113.106 105.045 113.326C109.683 113.986 113.178 114.689 115.53 115.436C118.365 116.337 120.585 117.59 122.19 119.195L117.805 118.47C116.662 118.272 116.145 118.316 116.255 118.601L119.255 120.778C120.838 121.899 121.75 122.954 121.992 123.943C122.102 124.382 122.058 124.613 121.86 124.635C121.552 124.679 121.366 124.954 121.3 125.459L122.124 128.295C122.454 129.724 122.52 130.889 122.322 131.79C121.662 134.625 120.146 136.999 117.772 138.911C114.738 139.439 111.507 139.67 108.078 139.604C98.1431 139.406 89.6037 137.186 82.46 132.944C80.218 131.603 78.2507 130.152 76.5582 128.592L74.7118 126.613C74.8218 128.174 74.7118 129.02 74.3821 129.152C74.0744 129.284 72.5358 126.723 69.7662 121.47L69.0409 123.085C68.4694 124.163 67.9418 124.701 67.4583 124.701C66.3153 118.305 64.0623 113.249 60.6992 109.534C59.6662 108.369 58.5781 107.413 57.4351 106.666L56.0174 105.875L46.5877 105.182C45.0271 105.182 43.5434 104.666 42.1367 103.633C40.642 102.49 39.455 100.874 38.5758 98.786C38.1802 97.8628 37.6526 95.379 36.9932 91.3346C36.4657 88.0814 35.5425 85.6636 34.2237 84.081C30.9925 80.2344 28.8494 75.036 27.7944 68.4858C27.5306 66.9911 27.6185 65.3206 28.0581 63.4742C28.5857 61.2981 29.4869 59.6056 30.7617 58.3967L29.344 55.792C29.1462 55.2865 29.2011 54.9018 29.5088 54.638L30.3991 53.7808L30.7617 53.3522C31.4431 53.7039 32.5312 53.8138 34.0259 53.6819C35.4985 53.55 36.8174 53.2533 37.9824 52.7917C39.0374 52.374 40.0265 52.5829 40.9497 53.4181C41.719 54.0995 42.2136 54.9348 42.4334 55.9239C42.6312 56.935 43.1368 57.8802 43.9501 58.7594L45.104 59.7485L52.4565 59.4847C57.7539 59.6386 61.4576 60.5728 63.5677 62.2873C65.6559 60.7267 68.1287 59.3199 70.9861 58.067C73.3381 57.0559 75.4592 56.3305 77.3495 55.8909C80.9323 55.0776 84.8669 54.5611 89.1531 54.3413C92.7799 54.1435 97.198 54.1435 102.407 54.3413C104.891 54.4292 106.353 54.649 106.792 55.0007C107.188 55.3304 106.551 55.6162 104.88 55.858C99.0993 56.4734 93.6481 57.2537 88.5266 58.1989C78.5694 60.0233 71.8544 62.2323 68.3815 64.826C71.9643 64.1007 75.3163 63.6501 78.4376 63.4742C84.5262 63.1005 90.8126 63.4742 97.2969 64.5952C98.9674 64.881 99.8796 65.2546 100.033 65.7162C100.165 66.1778 99.4839 66.4086 97.9893 66.4086C92.2084 66.4086 88.2189 66.4746 86.0208 66.6064C78.9211 66.9801 73.7337 67.8923 70.4586 69.343C71.5137 69.9585 72.7336 70.7388 74.1184 71.684L86.7792 72.6731C96.5385 73.838 104.781 75.6514 111.507 78.1133Z" fill="#FFF1AC"/>
<path d="M65.3812 65.3536C66.4362 64.3425 67.821 63.2324 69.5355 62.0235C74.2173 58.7264 79.13 56.2866 84.2734 54.704C88.9773 54.1764 95.0219 54.0556 102.407 54.3413C104.891 54.4292 106.353 54.649 106.793 55.0007C107.188 55.3304 106.551 55.6162 104.88 55.858C99.473 56.4514 94.3186 57.1768 89.4169 58.034C79.9213 59.7265 73.2612 61.7487 69.4366 64.1007C66.4912 66.2987 64.7657 67.2549 64.2602 66.9691C64.0403 66.8372 64.414 66.2987 65.3812 65.3536Z" fill="#DCD096"/>
<path d="M87.3397 63.4413C90.5709 63.6171 93.89 64.0018 97.2969 64.5952C98.9675 64.881 99.8797 65.2546 100.034 65.7162C100.165 66.1778 99.484 66.4086 97.9893 66.4086C92.6041 66.4086 88.6256 66.4856 86.0539 66.6394C78.9761 67.0571 73.7887 67.9912 70.4917 69.4419C71.5687 70.0574 72.7776 70.8047 74.1184 71.684C74.2064 71.7499 74.2064 71.8158 74.1184 71.8818L72.4699 72.0137L67.0297 71.4532C65.4032 71.1674 64.6228 70.8377 64.6888 70.464C64.8207 69.8046 67.6452 68.5627 73.1623 66.7383C78.9652 64.826 83.691 63.727 87.3397 63.4413Z" fill="#DCD096"/>
<path d="M111.507 78.1133C114.387 79.0584 115.837 79.8497 115.859 80.4872C115.881 81.1026 114.892 81.1576 112.892 80.652C109.683 79.8387 104.66 79.0145 97.8244 78.1792C88.7684 77.0582 81.8665 76.8054 77.1187 77.4209C78.0639 78.0583 79.4266 79.2233 81.2071 80.9158C83.559 83.1578 84.636 84.6745 84.4382 85.4658L83.548 88.4331C80.9763 83.3556 78.0858 80.2124 74.8767 79.0035C73.9975 78.6738 72.9534 78.454 71.7444 78.3441C70.7553 78.2561 70.1618 78.1243 69.964 77.9484C69.3046 77.311 72.1731 76.4427 78.5694 75.3437C85.1416 74.2007 90.4719 73.7501 94.5603 73.9919C100.539 74.981 106.188 76.3548 111.507 78.1133Z" fill="#DCD096"/>
<path d="M71.7445 124.734C72.4039 124.668 72.8545 123.371 73.0963 120.843C73.2941 118.755 73.5689 118.041 73.9206 118.7L75.7669 123.745C76.7121 126.492 77.7782 128.745 78.9651 130.504L75.5691 127.701L74.613 126.745L74.3822 129.251L71.7445 124.734Z" fill="#DCD096"/>
<path d="M36.5317 57.2757L38.1473 52.7257C39.1364 52.396 40.0706 52.6488 40.9498 53.4841C41.6532 54.1435 42.1477 54.9567 42.4335 55.9239C42.7412 57.0009 43.5765 58.2758 44.9393 59.7485L44.8074 59.8145L44.9393 59.8804L39.6969 60.4409L36.9933 60.276C36.246 59.9024 36.0921 58.9023 36.5317 57.2757Z" fill="#DCD096"/>
<path d="M75.8328 103.929C77.1956 104.897 77.888 105.611 77.91 106.073C77.91 106.424 77.5034 106.699 76.6901 106.897L74.547 107.424C73.8656 107.71 73.6568 108.15 73.9205 108.743C74.3382 109.754 73.0413 109.26 70.03 107.259L67.6231 105.743C67.1835 105.523 67.4143 105.864 68.3155 106.765C70.03 108.479 69.4255 108.809 66.5021 107.754L61.6224 105.677L59.7101 105.083C58.6331 104.666 58.5781 104.424 59.5452 104.358C60.3365 104.314 62.5896 103.688 66.3043 102.479C70.1728 101.687 73.349 102.171 75.8328 103.929Z" fill="#DCD096"/>
<path d="M122.322 131.79C121.508 135.307 119.827 137.67 117.277 138.879C114.156 139.428 111.09 139.67 108.078 139.604L100.858 139.043C104.353 138.89 107.891 138.087 111.474 136.636C115.431 135.01 119.069 132.724 122.388 129.779C122.454 130.592 122.432 131.262 122.322 131.79Z" fill="#DCD096"/>
<path d="M109.925 110.458C108.298 112.304 106.474 113.689 104.452 114.612C102.21 115.645 100.33 115.777 98.8136 115.008C97.9563 114.59 96.7584 113.667 95.2197 112.238C94.1647 111.249 93.2525 110.886 92.4832 111.15C91.6479 111.919 90.8786 112.952 90.1752 114.249C89.6916 115.151 89.241 115.568 88.8234 115.502C87.8563 115.392 87.3727 114.139 87.3727 111.744C87.3727 109.326 87.9332 107.754 89.0542 107.029C90.1093 106.347 91.7578 105.996 93.9998 105.974L97.0661 106.106C97.176 105.38 97.165 104.578 97.0331 103.699C96.7694 101.94 96.011 100.676 94.7581 99.907C94.0548 100.061 93.0107 100.588 91.6259 101.49C90.5269 102.215 89.8125 102.457 89.4828 102.215C88.5157 101.468 88.5377 100.149 89.5488 98.2585C90.5379 96.3461 91.9007 94.9833 93.6371 94.1701C95.3077 93.4007 96.8573 93.2799 98.286 93.8074C99.6488 94.3129 100.616 95.2801 101.187 96.7088C101.671 97.8518 102.341 98.9948 103.199 100.138L104.88 102.215C105.32 102.83 106.694 103.292 109.002 103.6L109.991 102.017C110.738 100.984 111.397 100.511 111.969 100.599C112.76 100.731 113.519 101.105 114.244 101.72C115.079 102.424 115.552 103.204 115.662 104.061C115.794 105.028 115.519 106.611 114.837 108.809C114.134 111.051 113.486 112.293 112.892 112.535C111.661 113.018 110.793 112.821 110.287 111.941L109.925 110.458Z" fill="#C18963"/>
<path d="M96.2748 93.5107C97.3958 93.4667 98.3959 93.7414 99.2751 94.3349C100.132 94.8844 100.77 95.6757 101.187 96.7088C101.671 97.8518 102.341 98.9948 103.199 100.138L104.88 102.215C105.056 102.457 105.627 102.753 106.595 103.105L108.804 103.765C107.617 104.93 106.364 105.556 105.045 105.644C103.572 105.776 102.418 105.182 101.583 103.863C101.275 103.314 100.99 102.468 100.726 101.325L100.066 98.2914C99.363 95.8076 98.0992 94.214 96.2748 93.5107Z" fill="#986C4C"/>
<path d="M115.662 104.061C115.794 105.028 115.519 106.611 114.837 108.809C114.134 111.051 113.486 112.293 112.892 112.535L111.606 112.766C112.551 110.568 113.057 108.348 113.123 106.105C113.189 103.468 112.518 101.72 111.112 100.863C111.419 100.665 111.705 100.577 111.969 100.599C112.76 100.731 113.519 101.105 114.244 101.72C115.079 102.424 115.552 103.204 115.662 104.061Z" fill="#986C4C"/>
<path d="M109.496 106.765C109.496 107.754 109.65 108.974 109.958 110.425C108.287 112.249 106.452 113.623 104.452 114.546C102.166 115.601 100.286 115.755 98.8135 115.008C97.9563 114.59 96.7583 113.667 95.2197 112.238C94.1646 111.249 93.2524 110.886 92.4831 111.15C91.6479 111.919 90.8785 112.952 90.1752 114.249C89.6916 115.15 89.241 115.568 88.8234 115.502L89.3179 114.876C89.7356 114.304 89.9664 113.722 90.0103 113.128C90.0763 112.491 90.2411 111.93 90.5049 111.447L91.6259 109.765C92.8348 108.029 95.5824 108.732 99.8686 111.875C100.902 112.645 102.715 112.293 105.309 110.82C107.815 109.37 109.21 108.018 109.496 106.765Z" fill="#986C4C"/>
<path d="M63.4029 45.5711C64.1282 45.9228 64.8096 46.8569 65.4471 48.3736C66.1285 50.0441 66.2164 51.4289 65.7108 52.5279C65.469 52.7257 62.9633 53.2972 58.1935 54.2424C53.4457 55.1875 50.7311 55.9569 50.0497 56.5503C51.8521 52.9455 54.4458 50.0111 57.8308 47.7471C60.6443 45.8348 62.5017 45.1095 63.4029 45.5711Z" fill="white"/>
<path d="M57.8308 47.7471C60.6443 45.8348 62.5017 45.1095 63.4029 45.5711C63.8205 45.7689 64.2931 46.2964 64.8206 47.1537C59.3035 49.066 55.1382 51.8795 52.3247 55.5942C51.0938 55.9679 50.3354 56.2866 50.0497 56.5503C51.8521 52.9455 54.4458 50.0111 57.8308 47.7471Z" fill="#DBDCDC"/>
<path d="M41.4443 96.0494C40.3453 93.8733 39.554 90.884 39.0704 87.0813C38.8946 85.7405 38.8726 84.7184 39.0045 84.0151L39.2683 83.3886L38.3451 83.1578C37.8615 83.0479 36.8394 81.6521 35.2788 78.9705C33.6962 76.2229 32.7071 74.1018 32.3114 72.6071C31.696 70.3432 31.4652 68.9034 31.619 68.288C31.8608 67.3868 32.8829 66.6174 34.6853 65.98C36.5317 65.3426 38.7407 65.1118 41.3125 65.2876C43.7303 65.4635 45.214 65.8481 45.7635 66.4416C48.0715 68.9913 50.819 72.4313 54.0062 76.7615C57.7429 81.861 59.7212 85.1361 59.941 86.5868C60.1168 87.6418 59.8201 89.8399 59.0508 93.1809C58.2814 96.522 57.611 98.5882 57.0395 99.3795C56.512 100.105 54.8195 100.533 51.962 100.665L45.3349 100.369C43.7303 99.4454 42.4335 98.0057 41.4443 96.0494Z" fill="white"/>
<path d="M50.1157 90.7741L46.0932 84.5756C45.8294 84.1799 45.236 83.7293 44.3128 83.2238C43.7853 82.96 43.8402 82.7732 44.4776 82.6633C45.1371 82.5534 45.4558 80.5421 45.4338 76.6296C45.4118 71.1125 45.4778 67.6725 45.6316 66.3097L45.7635 66.4416C48.0715 68.9913 50.819 72.4313 54.0062 76.7615C57.7429 81.861 59.7212 85.1361 59.941 86.5868C60.0948 87.5319 59.853 89.4772 59.2156 92.4226C58.6001 95.3241 57.9847 97.4342 57.3692 98.753C55.1932 97.1924 52.7753 94.5328 50.1157 90.7741Z" fill="#DBDCDC"/>
<path d="M51.0717 88.2353L46.7526 82.2676C46.7306 80.8169 46.8075 79.2233 46.9834 77.4868C47.3131 74.0139 47.9615 71.5741 48.9286 70.1673C51.5663 73.4424 53.8962 76.5417 55.9185 79.4651C58.4242 83.0699 59.7651 85.4438 59.9409 86.5868C60.0288 87.2022 59.9299 88.3782 59.6442 90.1147C59.3804 91.6753 59.0287 93.3238 58.5891 95.0603C56.8087 94.5767 54.3029 92.3017 51.0717 88.2353Z" fill="#922F00"/>
<path d="M27.9592 65.98L28.0581 66.8702C22.1454 67.4417 16.5843 68.6397 11.3749 70.464C7.46237 71.8268 4.68183 73.1347 3.03329 74.3876C15.2105 71.3762 23.6291 70.1783 28.2889 70.7938L28.19 71.684C25.5304 71.3103 21.42 71.607 15.8589 72.5742C11.9684 73.2336 7.64921 74.1568 2.90141 75.3437C1.38475 75.8932 0.527509 76.0031 0.329684 75.6734C0.109879 75.3437 0.736325 74.7063 2.20902 73.7611C5.35224 71.7829 8.31961 70.2992 11.1111 69.3101C15.4853 67.7714 21.1013 66.6614 27.9592 65.98Z" fill="#0D131A"/>
<path d="M29.9704 77.0252L30.3331 77.8165C24.9918 80.4102 20.1891 83.4546 15.9249 86.9495C12.7157 89.5871 10.5506 91.7742 9.42961 93.5107C12.9465 91.1587 16.2985 89.0596 19.4857 87.2132C25.0908 83.9601 29.333 82.0148 32.2125 81.3774L32.4103 82.2346C29.5088 82.8721 25.1897 84.8723 19.4527 88.2353C16.0458 90.2136 12.7707 92.2797 9.62744 94.4338L8.17672 95.423C7.47335 95.7307 7.37443 95.346 7.87999 94.269C8.93505 92.005 11.0891 89.4992 14.3423 86.7516C18.4306 83.3227 23.64 80.0805 29.9704 77.0252Z" fill="#0D131A"/>
<path d="M28.9154 72.3763L29.0803 73.2336C25.8272 73.937 22.8488 75.3107 20.1452 77.3549C18.123 78.8716 16.8261 80.2014 16.2546 81.3444L18.9582 79.8607L24.0357 77.1241C26.1679 76.179 28.0252 75.7064 29.6078 75.7064V76.5636C28.1571 76.5856 26.3987 77.0582 24.3325 77.9814C23.1895 78.4869 21.5409 79.3662 19.3869 80.619L16.4854 82.2016C15.3864 82.7731 14.7599 83.0479 14.6061 83.0259C14.3863 82.982 14.5182 82.4654 15.0017 81.4763C15.9029 79.586 17.4526 77.8605 19.6506 76.2999C22.2223 74.4755 25.3106 73.1676 28.9154 72.3763Z" fill="#0D131A"/>
<path d="M46.7526 112.007C47.6538 110.095 48.555 108.765 49.4562 108.018C50.775 106.941 52.3906 106.699 54.3029 107.292C55.9734 107.82 57.2483 108.15 58.1275 108.282L60.0398 108.348L60.0728 109.238L57.9297 109.139L54.0391 108.15C52.5005 107.666 51.2366 107.776 50.2475 108.479C49.4122 109.095 48.555 110.359 47.6758 112.271C46.9724 113.788 46.6207 115.194 46.6207 116.491C46.6207 117.634 46.8295 118.162 47.2471 118.074C48.1703 117.898 49.2804 117.107 50.5772 115.7C51.8301 114.205 52.6104 113.337 52.9181 113.095L55.8196 112.996C56.2152 113.194 56.3471 113.359 56.2152 113.491L55.292 113.458L54.1051 113.557C53.6655 113.689 53.3907 113.876 53.2808 114.117C54.5337 115.832 54.8744 117.074 54.3029 117.843L52.7203 120.052C51.5993 121.701 50.9179 122.976 50.6761 123.877C50.4343 124.756 50.5992 125.723 51.1707 126.778C51.7422 127.855 52.3466 128.02 52.9841 127.273C53.3138 126.877 53.9622 125.657 54.9294 123.613C55.7866 121.811 56.512 120.723 57.1054 120.349C57.8967 119.865 58.3693 119.733 58.5232 119.953C58.6551 120.195 58.4243 120.525 57.8308 120.942C58.3363 121.096 59.4573 121.789 61.1938 123.02C63.1281 123.965 65.1503 123.855 67.2604 122.69L67.6891 123.481C66.0405 125.042 63.9744 125.371 61.4905 124.47C60.1058 123.965 58.688 123.118 57.2373 121.932L54.171 127.734C53.9732 128.086 53.6215 128.394 53.116 128.658C52.5664 128.921 52.0499 129.009 51.5663 128.921C50.775 128.789 50.1486 128.207 49.687 127.174C49.2034 126.075 49.1375 124.877 49.4892 123.58C49.7749 122.613 50.3794 121.492 51.3026 120.217L53.2808 117.711L53.6435 117.052C53.6435 116.524 53.3468 115.799 52.7533 114.876C51.5663 116.326 50.3024 117.491 48.9616 118.371C47.7747 119.162 46.9834 119.459 46.5877 119.261C45.7964 118.843 45.4118 118.019 45.4338 116.788C45.4338 115.491 45.8734 113.898 46.7526 112.007Z" fill="#0D131A"/>
<path d="M58.9848 112.205C59.8201 111.282 60.6554 110.787 61.4906 110.721L61.5566 111.612C60.9191 111.656 60.2487 112.084 59.5453 112.898C58.9079 113.623 58.4243 114.458 58.0946 115.403C57.8968 116.019 57.8638 116.414 57.9957 116.59L59.2816 116.623C60.4465 116.315 61.6555 116.326 62.9084 116.656C63.8096 116.92 64.8756 117.404 66.1065 118.107L65.6449 118.865C64.1942 118.008 62.9523 117.502 61.9192 117.349C60.996 117.195 60.0509 117.316 59.0837 117.711C58.2924 118.041 57.71 117.953 57.3363 117.447C56.9406 116.92 56.9187 116.14 57.2703 115.107C57.644 114.008 58.2155 113.04 58.9848 112.205Z" fill="#0D131A"/>
<path d="M100.066 139.043C99.8687 139.791 99.0883 140.538 97.7256 141.285C96.1869 142.099 93.813 142.967 90.6039 143.89L90.1093 144.022C89.9554 144.11 89.6367 144.615 89.1531 145.539L87.6035 148.11C86.4166 149.693 84.6691 150.704 82.3611 151.144C81.3281 151.341 80.5807 151.276 80.1191 150.946C79.7455 150.682 79.4817 150.144 79.3278 149.33C79.2179 148.693 79.4487 147.594 80.0202 146.033L81.5698 141.945C80.8225 142.165 79.6356 142.681 78.009 143.494C77.5474 143.736 77.1078 144.154 76.6902 144.747L75.6351 146.297L74.0855 148.275C73.4261 149.001 72.7447 149.451 72.0413 149.627C70.9642 149.891 70.14 149.561 69.5685 148.638C69.0409 147.803 68.92 146.22 69.2058 143.89L68.2496 143.824C67.9639 143.472 67.7551 142.835 67.6232 141.912C67.4913 140.901 67.6232 139.67 68.0188 138.219C68.4145 136.746 68.8761 135.823 69.4036 135.45C70.2609 134.834 71.8654 134.043 74.2174 133.076C76.6132 132.065 78.4486 131.438 79.7235 131.196L80.3829 132.021C79.2399 132.24 77.4925 132.9 75.1405 133.999C73.0084 134.988 71.4918 135.801 70.5906 136.439C70.085 136.79 69.6894 137.659 69.4036 139.043C69.0959 140.472 69.0959 141.56 69.4036 142.307C69.4696 142.439 69.7223 142.099 70.1619 141.285C70.7554 140.186 71.3819 139.373 72.0413 138.846C73.0084 138.098 74.4811 137.395 76.4594 136.735C78.5475 136.032 79.7345 135.944 80.0202 136.472C79.8004 136.691 78.7124 137.153 76.7561 137.856C74.7119 138.56 73.2282 139.318 72.305 140.131C71.25 141.055 70.6016 142.582 70.3598 144.714C70.14 146.605 70.2059 147.704 70.5576 148.011L71.4808 148.044C72.0523 147.913 72.6018 147.605 73.1293 147.121L74.4811 145.506C76.0198 143.461 77.2617 142.209 78.2068 141.747C80.9104 140.406 84.1635 139.252 87.9662 138.285L89.5488 138.318L88.9553 138.846L86.3176 139.67C84.5152 140.329 83.5151 140.901 83.3173 141.384C82.7458 142.703 82.2073 144.143 81.7017 145.703C80.9104 148.055 80.6577 149.385 80.9434 149.693C81.2511 150.023 82.0974 149.836 83.4822 149.132L85.7242 147.649L86.1858 146.89C87.6585 144.495 88.6146 143.22 89.0542 143.066L89.6147 142.901C95.6594 141.164 98.8246 139.791 99.1103 138.78L100.066 139.043Z" fill="#0D131A"/>
<path d="M175.57 49.3627C176.141 52.1982 176.427 54.9568 176.427 57.6384C176.427 64.7381 174.581 71.2444 170.888 77.1571C168.822 80.4762 166.415 83.2787 163.667 85.5647C161.205 87.5649 158.919 88.8288 156.809 89.3563L156.315 87.3781C158.491 86.8286 160.601 85.8394 162.645 84.4107C165.283 82.5424 167.558 80.0695 169.47 76.9923C171.58 73.5633 173.086 69.8046 173.987 65.7162C175.174 60.375 175.207 54.9238 174.086 49.3627C171.976 38.9659 167.316 29.6572 160.106 21.4364C154.281 14.8203 147.577 9.63287 139.994 5.8742C138.565 5.17082 135.917 4.01684 132.048 2.41226C130.488 1.77482 129.938 1.2363 130.4 0.796691C130.927 0.313118 132.147 0.126284 134.059 0.236187L138.51 0.796691C142.907 1.50007 147.808 3.29148 153.215 6.17093C162.271 11.0286 170.02 17.9305 176.46 26.8766C181.955 34.4819 185.681 43.0433 187.637 52.5609C189.879 63.4413 189.209 73.3984 185.626 82.4324C182.658 89.8619 177.801 96.2362 171.053 101.556C166.217 105.38 161.03 108.26 155.49 110.194L155.919 107.82C161.37 105.908 166.217 103.292 170.459 99.9729C176.592 95.1592 181.109 89.1145 184.01 81.839C187.527 72.9588 188.241 63.1775 186.153 52.4949C184.285 43.0873 180.68 34.6797 175.339 27.2723C169.008 18.4581 161.315 11.732 152.259 7.09412C147.028 4.39051 142.137 2.69801 137.587 2.01661L134.455 1.52205C133.202 1.39017 132.96 1.52205 133.73 1.9177L140.39 4.95101C148.083 8.42394 155.018 13.6773 161.194 20.7111C168.602 29.1516 173.394 38.7022 175.57 49.3627Z" fill="#0D131A"/>
<path d="M28.5527 32.3168C29.6517 31.6794 32.0476 31.8332 35.7403 32.7784C39.3232 33.6796 42.1477 34.7896 44.2138 36.1084L43.7193 36.9986C41.8729 35.8996 39.2792 34.9325 35.9382 34.0972C32.5751 33.262 30.52 33.0641 29.7726 33.5037L29.6737 33.6027C29.6737 34.328 30.3881 36.0315 31.8168 38.7131C33.1137 41.153 34.2017 42.9554 35.0809 44.1203C35.7184 44.9776 35.8722 45.3622 35.5425 45.2743L34.8172 44.8787C33.828 45.2084 32.9158 45.593 32.0806 46.0327C31.2673 46.4503 30.8387 46.769 30.7947 46.9888C31.0145 47.5383 31.9707 48.8681 33.6632 50.9783L32.9049 51.6377L31.0585 49.8902C29.9155 48.7692 29.2231 47.857 28.9813 47.1537C28.7615 46.4942 30.3991 45.4831 33.894 44.1203L30.432 38.7791C28.7835 36.0315 27.9592 34.2071 27.9592 33.3059C27.9592 32.8883 28.1571 32.5586 28.5527 32.3168Z" fill="#0D131A"/>
<path d="M32.1465 36.3392C31.2453 36.1194 31.0035 35.9546 31.4212 35.8447L33.1686 36.0425C35.037 36.592 36.9383 37.3833 38.8726 38.4164C41.1146 39.6253 42.6312 40.7793 43.4225 41.8783L43.0928 42.6037C42.4114 41.6365 40.62 40.3836 37.7186 38.845C35.2128 37.5042 33.3554 36.6689 32.1465 36.3392Z" fill="#0D131A"/>
<path d="M175.339 32.2509C176.24 32.053 177.174 32.1849 178.141 32.6465C179.043 33.0641 179.9 33.7345 180.713 34.6577V35.515C179.988 34.7017 179.163 34.0752 178.24 33.6356C177.295 33.196 176.438 33.0641 175.669 33.24C174.614 33.4598 173.602 34.0423 172.635 34.9874C171.888 35.7568 171.426 36.4052 171.25 36.9327L170.888 36.4052C171.108 35.7018 171.558 34.9655 172.24 34.1961C173.163 33.1411 174.196 32.4926 175.339 32.2509Z" fill="#0D131A"/>
<path d="M178.603 42.9334C177.636 43.2412 176.811 43.7247 176.13 44.3841C175.427 45.0436 175.02 45.725 174.91 46.4283L174.251 46.3294C174.383 45.4722 174.855 44.6149 175.668 43.7577C176.526 42.8345 177.471 42.2081 178.504 41.8784L181.867 41.9773C182.878 42.3509 183.823 43.0104 184.702 43.9555L184.241 44.3841C183.494 43.6148 182.625 43.0983 181.636 42.8345L178.603 42.9334Z" fill="#0D131A"/>
<path d="M182.032 50.3189C183.065 50.3189 184.021 50.6156 184.9 51.2091C185.758 51.7806 186.45 52.5499 186.978 53.517L186.714 53.9786C186.252 53.1434 185.604 52.484 184.769 52.0004C183.933 51.5168 183.054 51.275 182.131 51.275C180.966 51.253 179.757 51.5938 178.504 52.2971C177.229 53.0225 176.306 53.8797 175.734 54.8689L175.866 53.6819C176.46 52.6049 177.328 51.7696 178.471 51.1761C179.548 50.6046 180.735 50.3189 182.032 50.3189Z" fill="#0D131A"/>
<path d="M181.438 80.4542C180.471 78.8496 179.185 77.6517 177.581 76.8604C176.35 76.2449 175.02 75.9592 173.591 76.0031C172.229 76.0251 171.119 76.3219 170.261 76.8934L170.294 76.0031C171.217 75.3877 172.492 75.0909 174.119 75.1129C175.746 75.1569 177.24 75.5196 178.603 76.201C181.79 77.8275 183.439 80.7619 183.549 85.0042L182.955 85.4328C182.911 83.6524 182.406 81.9928 181.438 80.4542Z" fill="#0D131A"/>
<path d="M166.404 82.3995C167.217 81.9599 168.294 81.806 169.635 81.9379C171.042 82.0698 172.371 82.5204 173.624 83.2897C174.877 84.059 175.866 85.1361 176.592 86.5208C177.625 88.4551 177.987 90.7851 177.68 93.5107L176.954 94.0712C176.998 91.4335 176.548 89.1585 175.603 87.2462C174.833 85.6856 173.844 84.5316 172.635 83.7843C171.536 83.1029 170.25 82.7292 168.778 82.6633C167.481 82.6193 166.459 82.7951 165.711 83.1908L166.404 82.3995Z" fill="#0D131A"/>
<path d="M161.557 86.7516L162.249 86.0592C163.304 86.2131 164.392 86.6088 165.514 87.2462C166.832 87.9935 167.909 88.9497 168.745 90.1147C169.778 91.5214 170.404 93.071 170.624 94.7635C170.866 96.522 170.701 98.72 170.129 101.358L169.47 101.226C170.393 96.6539 169.899 93.0491 167.986 90.4114C167.217 89.3343 166.14 88.4551 164.755 87.7737C163.678 87.2462 162.612 86.9055 161.557 86.7516Z" fill="#0D131A"/>
<path d="M156.875 89.8179L157.106 89.1915C160.403 90.3345 162.59 92.1588 163.667 94.6646C164.327 96.2252 164.579 98.0167 164.425 100.039C164.272 101.929 163.788 103.765 162.975 105.545L162.052 105.842C162.799 104.193 163.238 102.38 163.37 100.402C163.502 98.3134 163.26 96.533 162.645 95.0603C161.524 92.5105 159.601 90.7631 156.875 89.8179Z" fill="#0D131A"/>
<path d="M143.984 125.525L145.105 124.503C148.512 127.844 150.501 130.438 151.072 132.284C151.512 133.735 151.094 135.153 149.819 136.538C149.182 137.263 147.797 138.307 145.665 139.67C143.731 140.923 141.742 142.099 139.697 143.198L138.28 143.956C136.697 146.748 135.224 148.891 133.862 150.385C132.323 152.1 131.048 152.825 130.037 152.561C129.465 152.408 129.07 151.616 128.85 150.188C128.608 148.803 128.641 147.407 128.949 146C128.245 146.528 127.52 147.231 126.773 148.11L124.696 150.385L122.52 152.528L120.64 154.177C120.135 154.529 119.673 154.584 119.255 154.342C118.772 154.056 118.365 153.331 118.036 152.166C117.662 150.913 117.519 149.517 117.607 147.978C117.211 148.22 116.695 148.715 116.057 149.462L114.046 151.605C113.584 152.023 113.145 152.232 112.727 152.232C112.178 152.232 111.738 151.814 111.408 150.979C111.079 150.122 111.035 148.957 111.276 147.484C111.496 146.165 111.881 145 112.43 143.989C113.178 142.604 114.266 141.439 115.695 140.494C116.156 140.186 117.607 139.417 120.047 138.186L121.761 138.318C118.464 139.967 116.134 141.615 114.771 143.264C114.068 144.121 113.573 144.901 113.288 145.605C113.002 146.286 112.782 147.165 112.628 148.242C112.474 149.407 112.529 150.1 112.793 150.319C113.079 150.583 113.628 150.231 114.442 149.264L116.651 146.956L117.706 146.033C118.101 145.088 118.475 144.407 118.827 143.989C119.398 143.286 120.343 142.538 121.662 141.747C122.322 141.351 123.069 141.088 123.904 140.956C124.74 140.802 124.773 140.934 124.003 141.351C122.772 142.011 121.86 142.604 121.267 143.132C120.19 144.077 119.53 145.22 119.288 146.561C119.025 148.033 118.97 149.462 119.124 150.847C119.299 152.188 119.574 152.891 119.948 152.957C120.19 153.001 121.552 151.704 124.036 149.066C126.74 146.187 128.498 144.506 129.312 144.022C129.553 143.385 129.96 142.692 130.531 141.945C131.674 140.45 133.103 139.417 134.818 138.846C136.027 138.45 136.642 138.296 136.664 138.384L135.444 139.373C133.004 141.175 131.488 142.78 130.894 144.187C130.279 145.616 129.927 147.066 129.839 148.539C129.773 150.034 130.015 150.957 130.564 151.309C131.048 151.616 132.092 150.682 133.697 148.506C134.95 146.792 135.95 145.22 136.697 143.791C137.268 142.692 137.829 141.791 138.378 141.088C138.84 140.494 139.126 140.23 139.236 140.296C139.39 140.362 139.445 140.593 139.401 140.989C139.379 141.428 139.236 141.945 138.972 142.538C140.664 141.637 142.61 140.34 144.808 138.648C146.984 136.955 148.369 135.68 148.962 134.823C149.622 133.856 149.72 132.867 149.259 131.856C148.643 130.471 146.885 128.361 143.984 125.525Z" fill="#0D131A"/>
<path d="M116.816 55.8909L115.892 56.3855C115.387 56.5174 115.475 56.0668 116.156 55.0337C116.816 54.0446 117.508 53.1983 118.233 52.4949L119.717 51.1761C118.024 51.4619 116.178 51.9344 114.178 52.5939C111.694 53.4071 110.002 54.2094 109.1 55.0007L109.331 53.616C111.507 51.7696 115.497 50.5057 121.3 49.8243C122.728 49.6704 123.234 49.7803 122.816 50.154L121.728 50.7805L118.629 53.9457C121.926 52.7147 124.641 51.9894 126.773 51.7696C129.916 51.4399 133.158 51.8685 136.499 53.0554C137.576 53.4511 137.873 53.7478 137.389 53.9457L136.367 54.1105C135.224 54.2864 133.818 54.7919 132.147 55.6272C130.696 56.3745 129.52 57.1109 128.619 57.8362C131.081 57.5285 133.785 57.5944 136.73 58.034C137.895 58.2099 138.488 58.3638 138.51 58.4956L137.027 59.7156L136.136 60.2761L139.203 60.5728C140.258 60.6827 140.785 60.8585 140.785 61.1003C140.785 61.3201 140.28 61.6828 139.269 62.1884L137.653 63.0786C139.873 63.8919 142.335 65.4964 145.039 67.8923C147.83 70.3541 150.193 73.0468 152.127 75.9702C154.347 79.3112 156.051 82.916 157.238 86.7846C158.403 90.6092 158.985 94.4228 158.985 98.2255L158.853 100.204L158.557 102.149C157.897 107.029 156.04 111.809 152.985 116.491C150.017 121.019 146.149 125.119 141.379 128.789C136.477 132.57 131.213 135.504 125.586 137.593C119.695 139.747 113.914 140.78 108.243 140.692C99.7147 140.516 92.0874 138.758 85.3614 135.417C81.251 133.35 77.8111 130.889 75.0415 128.031C75.0415 129.064 74.8767 129.614 74.547 129.68C74.1733 129.768 73.4369 128.954 72.3379 127.24C71.3048 125.635 70.4806 124.119 69.8651 122.69C69.3376 123.877 68.7441 124.822 68.0847 125.525C67.733 125.855 67.5132 126.009 67.4253 125.987C67.2714 125.921 67.1066 125.525 66.9307 124.8C65.48 119.195 63.2819 114.502 60.3365 110.721C58.5341 108.391 57.0395 106.952 55.8525 106.402L46.5877 105.743C44.7413 105.743 43.1038 105.281 41.6751 104.358C40.1144 103.347 38.9165 101.852 38.0812 99.874C37.7515 99.1267 37.4658 98.0386 37.224 96.6099L36.6965 93.082C36.3887 90.9939 36.092 89.4662 35.8062 88.4991C35.3447 86.8505 34.6742 85.4987 33.795 84.4437C32.1685 82.4874 30.7397 80.0915 29.5088 77.256C28.2339 74.3326 27.3437 71.2993 26.8382 68.1561L26.7063 66.3097C26.7063 64.5073 27.1789 62.7709 28.124 61.1003C28.4538 60.5069 29.1132 59.5837 30.1023 58.3308C29.0912 57.1438 28.5856 56.1547 28.5856 55.3634C28.5856 54.2644 30.5419 52.1652 34.4544 49.066C37.9274 46.3184 40.7958 44.3402 43.0598 43.1312C43.1038 40.2298 43.2357 38.0537 43.4555 36.603C43.961 33.0861 44.9941 30.5584 46.5547 29.0197C46.9284 28.6241 47.2691 28.5142 47.5768 28.69L47.3131 30.8661L47.346 31.6574C47.9175 30.6023 48.7088 29.7561 49.7199 29.1186C50.2035 28.8109 50.4453 28.7669 50.4453 28.9867L50.1156 30.3385C49.8518 31.3057 49.7199 32.3608 49.7199 33.5037L49.8518 35.9106L51.3355 32.4157L51.6652 31.8882C51.885 31.6464 52.0389 31.8662 52.1268 32.5476L52.8192 35.9106C54.8634 33.1411 57.8527 30.7562 61.7873 28.7559C63.8534 27.7009 66.3812 26.7008 69.3705 25.7556C70.6015 25.3819 71.0521 25.4259 70.7224 25.8875L69.8981 26.7118C69.0408 27.3932 68.2056 28.1515 67.3923 28.9867C66.5131 29.9099 65.8866 30.7122 65.513 31.3936C66.634 30.5584 67.744 29.9209 68.843 29.4813C69.7662 29.1296 70.8982 28.8329 72.239 28.5911L73.8546 28.5581L72.7665 29.5143L71.2829 30.7012C70.8432 31.1189 70.3707 31.7343 69.8651 32.5476C73.6238 29.3824 77.9979 27.6459 82.9875 27.3382L84.3393 27.4041L83.3502 28.3603C82.7127 28.8219 82.0313 29.5253 81.306 30.4704L79.4926 33.0422C80.3938 32.6685 81.0422 32.4267 81.4379 32.3168L83.6469 31.9211L84.7679 31.9871L83.9107 32.8443C83.3392 33.5037 82.9216 34.8226 82.6578 36.8008L81.1411 37.691L81.4379 36.0425C81.7016 34.8775 82.0204 33.9214 82.394 33.174C81.2071 33.5037 79.8333 34.0423 78.2727 34.7896L77.5803 35.4161C77.2066 35.6139 77.1956 35.1523 77.5473 34.0313C77.921 32.8883 78.4375 31.9102 79.0969 31.0969L81.339 28.7559C75.5581 29.833 71.3818 31.9541 68.81 35.1193L68.2495 35.5479C67.8979 35.7018 67.766 35.4161 67.8539 34.6907C67.9858 33.4158 68.7881 31.8882 70.2608 30.1078C67.8869 31.0969 66.1944 32.141 65.1833 33.24C64.6997 33.7675 64.348 33.9543 64.1282 33.8005C63.9084 33.6466 63.8864 33.196 64.0622 32.4487C64.326 31.3716 64.7217 30.4594 65.2492 29.7121L67.0626 27.7339C64.2711 28.8329 61.7982 30.0528 59.6442 31.3936C56.5009 33.3499 54.3029 35.4051 53.05 37.5592L52.6873 38.0207C52.4235 38.2186 52.2037 38.0098 52.0279 37.3943L51.4344 35.0204C50.753 36.5151 50.2804 37.691 50.0167 38.5483C49.7529 39.2956 49.5111 39.4495 49.2913 39.0099L49.0275 38.0867C48.7638 36.592 48.6319 35.0754 48.6319 33.5367L48.7638 31.4596C48.4121 31.8112 48.1373 32.1849 47.9395 32.5806C47.5658 33.3059 47.3131 34.383 47.1812 35.8117C47.0713 36.9547 46.8515 36.2733 46.5218 33.7675C46.3239 33.0202 46.225 32.075 46.225 30.932C45.4777 32.1629 44.9392 34.1522 44.6095 36.8997C44.3237 39.0978 44.2248 41.098 44.3127 42.9004L45.6645 42.8345C45.5107 43.0983 44.8952 43.4829 43.8182 43.9885C42.829 44.472 40.4002 46.2744 36.5316 49.3957C32.685 52.473 30.6188 54.2644 30.3331 54.7699C30.0693 55.1876 30.0034 55.6272 30.1353 56.0888C30.2671 56.5943 30.6408 57.2757 31.2563 58.133C32.4432 59.7375 32.74 60.386 32.1465 60.0782L30.9266 59.1551L29.5418 61.2322C28.6406 62.9907 28.19 64.826 28.19 66.7383L28.3219 68.3869C28.8054 71.5081 29.5967 74.3876 30.6958 77.0252C31.7728 79.6629 33.0807 81.9049 34.6193 83.7513C35.6084 84.9163 36.3558 86.367 36.8613 88.1034C37.169 89.1585 37.4768 90.7631 37.7845 92.9172C38.1582 95.5329 38.5868 97.4122 39.0704 98.5552C39.8617 100.424 40.9387 101.907 42.3015 103.006C43.6423 104.105 45.071 104.655 46.5877 104.655L56.0503 105.347H56.1492L56.2152 105.38C57.7318 105.556 59.0507 105.908 60.1717 106.435C61.2927 106.985 60.8861 107.194 58.9518 107.062C63.5457 111.414 66.5131 117.019 67.8539 123.877C68.5573 123.107 69.0189 122.25 69.2387 121.305C69.3925 120.58 69.5244 120.184 69.6343 120.118C69.7882 120.03 70.041 120.448 70.3926 121.371C70.8323 122.426 71.5246 123.822 72.4698 125.558C73.4369 127.339 73.9865 128.218 74.1183 128.196C74.2722 128.152 74.2502 127.119 74.0524 125.097C73.8546 122.745 73.8216 121.162 73.9535 120.349C74.1293 119.382 74.3491 120.107 74.6129 122.525L74.9756 126.449L76.5252 127.932C78.2837 129.471 80.2729 130.889 82.4929 132.185C89.9443 136.582 98.4728 138.868 108.078 139.043C113.771 139.153 119.376 138.274 124.893 136.406C130.433 134.537 135.532 131.801 140.192 128.196C144.764 124.679 148.49 120.624 151.369 116.03C154.226 111.436 155.974 106.732 156.611 101.918C156.831 100.38 156.941 98.808 156.941 97.2034C156.941 89.0486 154.358 81.4323 149.193 74.3546C147.105 71.4971 144.83 69.0903 142.368 67.134C140.06 65.2876 137.994 64.1556 136.169 63.738L135.015 64.0347C134.488 64.0347 134.818 63.6061 136.005 62.7489C136.488 62.3972 136.928 62.1334 137.323 61.9576L138.214 61.5289L134.653 61.3641L131.883 61.1003C131.532 60.9904 132.015 60.6717 133.334 60.1442C134.037 59.8584 135.037 59.4738 136.334 58.9902C132.312 58.6165 129.366 58.6715 127.498 59.1551L126.014 60.6717C125.619 60.9355 125.542 60.6937 125.784 59.9464C126.047 59.221 126.498 58.4517 127.135 57.6384C128.212 56.2316 130.597 54.8688 134.29 53.55C131.696 52.9346 128.674 52.8796 125.223 53.3852C122.014 53.8687 119.211 54.704 116.816 55.8909Z" fill="#0D131A"/>
<path d="M110.782 24.2719C111.815 24.3599 112.463 24.6126 112.727 25.0303C112.947 25.338 112.947 25.8765 112.727 26.6458L111.112 30.4045L109.397 34.1302L113.387 37.0976C114.881 38.3285 115.629 39.1857 115.629 39.6693C115.629 40.1749 114.925 41.2849 113.519 42.9994L110.221 46.8569L110.419 49.6595C110.419 51.6597 110.309 53.2093 110.09 54.3084C109.694 56.1767 108.914 57.7923 107.749 59.1551C106.43 60.6717 104.836 61.8257 102.968 62.617C100.88 63.4962 98.7586 63.76 96.6045 63.4083C95.6594 63.2544 95.1208 63.0896 94.9889 62.9137C94.8351 62.7379 95.2307 62.672 96.1759 62.7159C98.1981 62.8258 100.121 62.562 101.946 61.9246C103.858 61.2432 105.353 60.2761 106.43 59.0232C108.408 56.7372 109.397 53.605 109.397 49.6265L109.298 47.5823L109.199 46.791C112.496 42.5927 114.167 40.2738 114.211 39.8342C114.167 39.5924 113.189 38.6912 111.277 37.1306L108.144 34.4929C108.012 34.2951 108.375 33.1301 109.232 30.998C110.243 28.5581 110.815 26.8986 110.947 26.0194C106.705 25.338 101.297 26.7118 94.7252 30.1407C89.5597 32.8663 84.1196 36.581 78.4046 41.2849C77.8111 41.7904 77.5144 41.9333 77.5144 41.7135C77.5144 41.4717 77.8881 40.9552 78.6354 40.1639C82.504 36.0095 87.5705 32.2948 93.835 29.0197C100.605 25.4589 106.254 23.8763 110.782 24.2719Z" fill="#0D131A"/>
<path d="M105.012 29.4154C106.419 28.8439 107.034 28.734 106.858 29.0857C106.683 29.4374 106.1 29.811 105.111 30.2067C100.935 31.9871 96.6155 34.4819 92.1534 37.6911C86.5924 41.6915 83.1414 45.3293 81.8006 48.6044C82.8776 49.2858 83.7898 50.187 84.5372 51.308C85.1966 52.3631 85.5373 53.3082 85.5593 54.1435L84.702 54.3743C84.4163 52.9675 83.8008 51.6817 82.8557 50.5167L81.5039 49.1649C81.1522 49.4507 80.8444 49.6155 80.5807 49.6595C80.0971 49.7913 80.1191 49.2968 80.6466 48.1758C82.3611 44.5929 85.834 40.9332 91.0654 37.1965C95.3956 34.0972 100.044 31.5035 105.012 29.4154Z" fill="#0D131A"/>
<path d="M111.672 77.7176C113.365 78.2452 114.892 78.9485 116.255 79.8278C117.508 80.663 118.058 81.2455 117.904 81.5752C117.706 81.9709 116.002 81.806 112.793 81.0807C109.738 80.3113 104.968 79.52 98.4839 78.7068C89.8675 77.6077 83.1195 77.3 78.2398 77.7836C82.9656 81.4983 85.2626 83.9491 85.1307 85.1361C84.9988 86.2791 84.4493 87.8946 83.4821 89.9828L83.4162 90.1147L79.4597 92.3567H84.6691C85.5923 92.3347 85.9 92.4666 85.5923 92.7523L84.8669 93.2139C84.4273 93.4117 83.9767 93.5986 83.5151 93.7744L91.6259 94.4338C92.703 94.6317 92.9997 94.8405 92.5161 95.0603L91.494 95.2911L84.9988 94.7306L81.4709 94.6317L79.6905 95.0273C78.8772 95.1152 79.4157 94.6976 81.3061 93.7744L82.4271 93.2469L78.7343 93.3458L76.1296 93.2469C75.9318 93.115 76.9429 92.4776 79.163 91.3346L82.7238 89.5212L84.0097 85.3669L84.0756 85.8614L84.0426 85.235C84.0207 84.5756 82.9986 83.2677 80.9763 81.3114C79.2179 79.6189 77.8441 78.443 76.855 77.7836L75.0746 77.5528C74.3053 77.3769 74.9647 77.1901 77.0528 76.9923C83.9987 76.3548 91.593 76.5966 99.8357 77.7176C104.605 78.3551 108.991 79.1903 112.991 80.2234L115.365 80.4212C114.881 79.8717 113.552 79.2453 111.375 78.5419C104.803 76.3878 97.4178 74.6953 89.2191 73.4644C81.9215 72.3654 76.899 71.9917 74.1514 72.3434L70.096 72.5412C69.5684 72.4093 69.7113 72.2445 70.5246 72.0466L73.0634 71.4861L70.1949 69.9035L68.3815 70.4311C67.5243 70.5849 68.0078 70.1893 69.8322 69.2441C74.0305 67.0241 83.2403 65.936 97.4618 65.98L99.506 65.7822C99.1543 65.4745 98.3959 65.2217 97.231 65.0239C90.9006 63.9248 84.768 63.5402 78.8332 63.8699C75.734 64.0457 72.36 64.4853 68.7112 65.1887L68.4804 65.2547L67.0956 65.8481C66.4362 66.046 66.7769 65.5844 68.1177 64.4634C70.9972 62.0455 76.811 59.9683 85.5593 58.2319C90.0213 57.3526 95.8352 56.4954 103.001 55.6601L106.067 55.1656L102.407 54.7699C91.9886 54.3963 83.4162 54.9787 76.6901 56.5174C74.8438 56.935 72.5908 57.8582 69.9311 59.2869C67.1836 60.7596 64.8426 62.3312 62.9083 64.0018C61.8093 64.9689 61.2378 65.2986 61.1939 64.9909C61.1499 64.7051 61.3807 64.2765 61.8862 63.705L63.0073 62.4851C60.9631 60.8146 57.5561 59.9134 52.7863 59.7815L45.4997 60.2101C45.0382 60.32 44.4007 59.8694 43.5874 58.8583C42.7961 57.8912 42.2686 56.957 42.0048 56.0558C41.829 55.4843 41.5762 54.9568 41.2465 54.4732C40.8289 53.8797 40.3783 53.4731 39.8947 53.2533L38.1473 53.1873C36.9603 53.6709 35.6085 53.9786 34.0918 54.1105C32.5092 54.2424 31.3333 54.1215 30.564 53.7478L30.9596 52.9565C31.5751 53.2643 32.5862 53.3522 33.9929 53.2203C35.4217 53.1104 36.6965 52.8246 37.8175 52.3631L39.4001 52.1323C40.0596 52.1542 40.5871 52.2641 40.9827 52.462C41.5323 52.7257 41.9609 53.2093 42.2686 53.9127L42.8621 55.825C43.0819 56.6383 43.4116 57.4076 43.8512 58.133C44.4447 59.0781 45.0272 59.4738 45.5987 59.3199L53.1819 59.0232C57.9737 59.265 61.4356 60.1771 63.5678 61.7597C65.59 60.287 67.9529 58.9462 70.6565 57.7373C73.0743 56.6822 75.2724 55.9239 77.2506 55.4623C80.9873 54.6051 85.1856 54.0666 89.8455 53.8467C93.2525 53.6929 97.4508 53.7039 102.44 53.8797C106.089 54.0336 107.892 54.4402 107.848 55.0996C107.826 55.4733 107.034 55.825 105.474 56.1547L103.1 56.5174C87.1419 58.3857 76.3275 60.8585 70.6565 63.9358C79.0531 62.4411 87.9552 62.5181 97.3628 64.1666C100.154 64.6282 101.517 65.2217 101.451 65.947C101.429 66.3866 100.099 66.6944 97.4618 66.8702C85.1087 66.8263 76.4264 67.7385 71.4148 69.6068L74.2503 71.2553C80.6027 71.2334 86.7463 71.7609 92.681 72.8379C98.0003 73.7831 104.331 75.4097 111.672 77.7176Z" fill="#0D131A"/>
<path d="M79.1959 120.975C79.3498 120.03 79.5915 119.294 79.9213 118.766C80.3389 118.107 80.6246 117.81 80.7785 117.876C80.9543 117.92 80.9324 118.349 80.7125 119.162C80.5367 119.799 80.4158 120.525 80.3499 121.338L80.0531 123.877C79.8993 124.888 79.7564 125.415 79.6245 125.459L78.8662 124.602L76.822 122.129L75.0745 119.92C74.3052 118.579 74.514 118.415 75.701 119.426C76.2945 119.953 76.9099 120.646 77.5474 121.503L78.8992 123.25L79.1959 120.975Z" fill="#0D131A"/>
<path d="M107.452 113.524C109.32 113.546 111.375 113.821 113.617 114.348C116.783 115.096 119.365 116.195 121.366 117.645C122.531 118.481 123.003 119.052 122.783 119.36L120.739 119.459L117.211 118.832C119.233 120.173 120.673 121.283 121.53 122.162C123.113 123.789 123.168 124.899 121.695 125.492C123.212 129.449 123.102 132.823 121.366 135.614C120.135 137.593 118.64 138.791 116.882 139.208L116.684 138.549C118.42 138.131 119.75 136.779 120.673 134.493C121.267 133.065 121.53 131.405 121.465 129.515C121.421 127.888 121.179 126.591 120.739 125.624C120.607 125.295 120.629 125.097 120.805 125.031C121.201 124.811 121.399 124.547 121.399 124.239C121.377 123.558 120.409 122.47 118.497 120.975C117.288 120.03 116.024 119.151 114.705 118.338L113.617 117.546L115.002 117.513C116.299 117.667 118.222 118.03 120.772 118.601C118.2 117.019 115.486 115.854 112.628 115.107L107.353 114.249C106.21 114.139 105.606 113.997 105.54 113.821C105.452 113.623 106.089 113.524 107.452 113.524Z" fill="#0D131A"/>
<path d="M115.2 104.094C115.112 103.369 114.695 102.688 113.947 102.05C113.288 101.501 112.606 101.16 111.903 101.028C111.595 100.984 111.2 101.281 110.716 101.918L109.397 103.798L108.21 105.017L107.551 105.215C107.463 105.171 107.562 104.952 107.848 104.556L108.309 103.995C107.408 104.039 106.441 103.82 105.408 103.336L104.089 102.578L102.44 100.171C101.781 99.0278 101.231 97.9288 100.792 96.8737C100.264 95.5988 99.396 94.7196 98.1871 94.236C96.8243 93.7305 95.3626 93.8404 93.802 94.5657C92.659 95.1152 91.6259 96.0054 90.7027 97.2364C89.8675 98.3574 89.3949 99.4014 89.285 100.369C89.241 100.874 89.3729 101.248 89.6806 101.49C90.0983 101.819 90.7137 101.665 91.527 101.028L93.1426 99.6762C93.9339 99.1047 94.6812 98.753 95.3846 98.6211C96.066 98.4893 96.4287 98.5552 96.4726 98.819L96.3737 99.2476L95.5824 99.8411C96.7474 100.808 97.4398 101.819 97.6596 102.874C97.8134 103.6 97.7585 104.699 97.4947 106.171C97.3409 107.227 97.1101 107.6 96.8023 107.292L96.3737 106.534L93.7031 106.402C91.7248 106.446 90.2521 106.776 89.285 107.391C88.6476 107.809 88.2079 108.677 87.9662 109.996C87.7244 111.249 87.7354 112.436 87.9991 113.557C88.153 114.216 88.3618 114.656 88.6256 114.876C88.9992 115.205 89.3839 114.92 89.7796 114.019L90.9665 112.04L92.3183 110.194C93.5492 108.765 94.1537 108.391 94.1317 109.073C94.1097 109.754 93.8789 110.161 93.4393 110.293C93.8569 110.403 94.7582 110.985 96.1429 112.04L98.9125 114.051C100.363 114.777 102.155 114.722 104.287 113.887C106.331 113.117 108.1 111.875 109.595 110.161C109.309 108.82 109.166 107.71 109.166 106.831C109.166 106.127 109.287 105.578 109.529 105.182C109.749 104.765 109.925 104.853 110.057 105.446L110.419 109.106C110.573 110.952 110.782 111.963 111.046 112.139C111.441 112.403 112.002 112.403 112.727 112.139C113.189 111.963 113.749 110.809 114.409 108.677C115.046 106.545 115.31 105.017 115.2 104.094ZM114.771 101.424C115.827 102.215 116.409 103.083 116.519 104.028C116.651 105.017 116.299 106.688 115.464 109.04C114.585 111.48 113.771 112.843 113.024 113.128L111.705 113.458C111.331 113.458 110.991 113.348 110.683 113.128C110.199 112.799 109.848 112.227 109.628 111.414C107.87 113.172 106.034 114.447 104.122 115.238C101.968 116.118 100.132 116.173 98.6157 115.403C97.7365 114.986 96.6485 114.172 95.3516 112.963L93.9009 111.776C93.4833 111.513 93.0876 111.436 92.714 111.546C92.2524 111.985 91.8237 112.612 91.4281 113.425L90.7027 115.074C90.1532 116.107 89.5158 116.579 88.7904 116.491C88.087 116.403 87.5375 115.491 87.1419 113.755C86.8342 112.458 86.7682 111.117 86.9441 109.732C87.1419 108.084 87.6474 106.985 88.4607 106.435C89.9114 105.512 92.648 105.248 96.6705 105.644L96.7034 105.05C96.7034 102.874 96.033 101.325 94.6922 100.402C94.3185 100.489 93.9229 100.731 93.5053 101.127L92.4172 102.083L90.6038 103.171C89.9004 103.501 89.3949 103.545 89.0872 103.303C88.7355 103.039 88.4497 102.677 88.2299 102.215C88.0101 101.731 87.9222 101.248 87.9662 100.764C88.098 99.6652 88.7025 98.4013 89.7796 96.9726C90.9006 95.4559 92.1205 94.3899 93.4393 93.7744C94.3625 93.3568 95.3296 93.093 96.3407 92.9831L99.0114 93.2469C99.6928 93.5107 100.253 93.8733 100.693 94.3349C101.089 94.7526 101.451 95.335 101.781 96.0824C102.682 98.3024 103.638 100.017 104.649 101.226L105.21 101.951C105.562 102.413 106.738 102.797 108.738 103.105C109.947 100.995 111.046 100.017 112.035 100.171C112.958 100.325 113.87 100.742 114.771 101.424Z" fill="#0D131A"/>
<path d="M57.4022 47.6153C60.4136 45.5271 63.7436 44.0104 67.3924 43.0653C68.0958 42.8894 68.4255 42.9224 68.3815 43.1642C68.3156 43.406 68.0408 43.6588 67.5572 43.9225C64.6778 45.0875 62.172 46.2744 60.0399 47.4834C55.9735 49.7913 53.0171 52.451 51.1707 55.4623C53.105 54.649 55.9295 53.8577 59.6442 53.0884C63.359 52.3411 66.1175 51.9784 67.9199 52.0004C68.7772 52.0004 69.1728 52.1213 69.1069 52.3631C69.0409 52.5829 68.6453 52.7477 67.9199 52.8576C57.3033 54.5721 51.4345 55.9129 50.3135 56.8801L49.6871 57.2757C49.3134 57.3856 49.3024 57.0779 49.6541 56.3525C51.2806 52.9675 53.8634 50.0551 57.4022 47.6153Z" fill="#0D131A"/>
<path d="M62.5127 45.637L63.2051 45.1425C64.1722 45.626 64.9306 46.4943 65.4801 47.7471C66.0735 49.1099 66.3043 50.6925 66.1725 52.495L65.2822 52.429C65.3922 50.8464 65.1504 49.3957 64.5569 48.0769C64.0074 46.8899 63.326 46.0766 62.5127 45.637Z" fill="#0D131A"/>
<path d="M56.3471 49.2968C57.2923 49.3188 58.1165 49.9122 58.8199 51.0772C59.4354 52.0663 59.6991 52.8906 59.6112 53.55L50.4124 55.9899L52.7533 52.3631L56.3471 49.2968Z" fill="#0D131A"/>
<path d="M36.9933 58.9572C36.9274 58.6055 37.0263 57.9791 37.29 57.0779C37.5978 56.0668 37.9824 55.4074 38.444 55.0997C38.9276 54.7699 39.2463 54.66 39.4002 54.7699C39.554 54.8798 39.4881 55.1216 39.2023 55.4953L38.3781 57.1109L37.6197 58.7264L37.2241 59.2869C37.1362 59.3309 37.0592 59.221 36.9933 58.9572Z" fill="#0D131A"/>
<path d="M46.3899 81.5752C46.3899 80.674 46.5987 78.8276 47.0163 76.0361C47.5219 72.6511 48.0384 70.53 48.566 69.6727L49.3902 71.3213C48.9286 72.0466 48.4451 73.849 47.9395 76.7285C47.4999 79.2123 47.2801 80.8279 47.2801 81.5752C47.2801 82.0808 46.9504 82.4654 46.291 82.7292L42.5323 83.3556C41.5212 82.916 40.565 81.4213 39.6638 78.8716C38.9385 76.8714 38.5099 75.2008 38.378 73.86C38.2681 72.9149 38.301 72.3873 38.4769 72.2774C38.6527 72.1455 38.9055 72.6071 39.2352 73.6622L40.8508 78.7397C41.6861 81.0477 42.3565 82.3115 42.862 82.5314L44.9392 82.3665C45.9063 82.0588 46.3899 81.795 46.3899 81.5752Z" fill="#0D131A"/>
<path d="M40.0265 83.8502C39.6309 83.8282 39.4221 83.9601 39.4001 84.2458C39.3342 85.0152 39.3671 85.9493 39.499 87.0484C39.9606 90.5653 40.675 93.3568 41.6421 95.423C42.5873 97.4891 43.8621 98.9948 45.4667 99.94L52.1928 100.204C54.7645 100.072 56.2592 99.7202 56.6768 99.1487C57.0505 98.6211 57.4791 97.3573 57.9627 95.357C56.3581 94.8515 54.7095 93.5436 53.017 91.4335L49.1595 85.8944L47.6758 84.0151L46.6207 82.927L44.7414 83.1908L43.2247 83.6194C43.0928 83.7073 43.0269 83.8062 43.0269 83.9161C42.8291 85.5867 43.7632 88.9277 45.8294 93.9393C46.4888 95.5658 46.6647 96.2912 46.3569 96.1153C46.0712 95.9835 45.6426 95.423 45.0711 94.4338C44.5435 93.4447 43.9391 91.9061 43.2577 89.8179C42.4444 87.3121 42.0488 85.4218 42.0707 84.1469C42.0707 83.9052 41.9608 83.7953 41.741 83.8172L40.0265 83.8502ZM34.1577 78.9375C32.0916 75.5086 31.0805 72.1785 31.1244 68.9474C31.1464 68.1561 31.3992 67.5187 31.8828 67.0351C32.3883 66.4856 33.2785 65.991 34.5534 65.5514C36.3998 64.914 38.6418 64.6722 41.2794 64.826C43.8512 65.0019 45.4557 65.4415 46.0932 66.1449C48.3572 68.6726 51.0718 72.0906 54.237 76.3988C58.0836 81.6302 60.1278 85.0042 60.3695 86.5208C60.5454 87.6199 60.2486 89.8729 59.4793 93.2799C58.71 96.6649 58.0176 98.786 57.4022 99.6432C56.7647 100.544 54.6876 101.072 51.1707 101.226C47.8516 101.38 45.7745 101.226 44.9392 100.764C43.1368 99.7751 41.774 98.3464 40.8508 96.478C39.8177 94.3679 39.0814 91.2577 38.6418 87.1473L38.4769 85.1031C38.4769 84.5316 38.5319 84.059 38.6418 83.6853L38.2461 83.5864C37.279 83.3666 35.9162 81.817 34.1577 78.9375ZM53.6435 77.0912C50.5662 72.827 47.8296 69.376 45.4338 66.7383C44.9941 66.2548 43.6314 65.9251 41.3454 65.7492C38.7956 65.5514 36.6305 65.7712 34.8501 66.4086C33.7731 66.7823 33.0367 67.145 32.6411 67.4967C32.2234 67.8703 32.0146 68.3649 32.0146 68.9804C32.0146 71.0246 32.8279 73.7172 34.4545 77.0582C36.0371 80.3113 37.3779 82.2126 38.4769 82.7622L40.2903 82.993L42.0048 82.6962L42.928 82.5973C43.1478 82.6632 43.2907 82.7841 43.3566 82.96L45.6646 82.3665L46.9174 82.1027C47.2032 82.0808 47.5659 82.3116 48.0055 82.7951L49.8848 85.3669C51.5114 87.6968 52.8302 89.4333 53.8413 90.5763C55.5558 92.5105 57.0395 93.6315 58.2924 93.9393C59.1057 90.0707 59.4244 87.5759 59.2485 86.4549C59.0287 85.0701 57.1604 81.9489 53.6435 77.0912Z" fill="#0D131A"/>
<path d="M66.7 102.874L65.8428 102.611L67.0627 102.38C67.81 102.292 69.1618 102.622 71.1181 103.369C73.1403 104.138 74.3273 104.798 74.679 105.347C75.0087 105.897 75.0746 106.215 74.8768 106.303C74.679 106.391 74.3932 106.27 74.0195 105.941C73.7118 105.633 72.5798 105.072 70.6235 104.259C68.6453 103.446 67.3374 102.984 66.7 102.874Z" fill="#0D131A"/>
<path d="M64.9196 105.116C63.0512 104.633 63.0512 104.424 64.9196 104.49C66.0186 104.512 66.9528 104.798 67.7221 105.347C68.2496 105.721 68.7442 106.27 69.2058 106.996C69.5355 107.523 69.5465 107.809 69.2388 107.853C68.931 107.919 68.6892 107.809 68.5134 107.523L67.0297 106.27C66.1285 105.633 65.4251 105.248 64.9196 105.116Z" fill="#0D131A"/>
<path d="M54.5667 53.3192C54.6327 53.561 54.5887 53.8138 54.4348 54.0776L53.8084 54.5391L53.083 54.4402C52.8632 54.2864 52.7203 54.0885 52.6544 53.8468C52.5885 53.605 52.6104 53.3632 52.7203 53.1214C52.8522 52.9016 53.0391 52.7587 53.2808 52.6928L54.0392 52.7587C54.3029 52.8906 54.4788 53.0774 54.5667 53.3192Z" fill="white"/>
</g>
<defs>
<clipPath id="clip0_32_2274">
<rect width="191" height="154.776" fill="white"/>
</clipPath>
</defs>
</svg>
