<svg width="168" height="191" viewBox="0 0 168 191" fill="none" xmlns="http://www.w3.org/2000/svg">
<g clip-path="url(#clip0_32_2454)">
<path d="M77.3995 79.5782L81.3304 85.5813L63.5651 124.342C57.044 123.265 52.8186 117.699 50.8886 107.643C50.1776 103.926 49.8932 100.117 50.0354 96.2161C50.1573 92.6813 50.5636 90.1318 51.2543 88.5675L77.3995 79.5782Z" fill="#E9EFF8"/>
<path d="M77.3995 79.5782L81.3304 85.5813L69.5072 111.33C69.3447 108.649 69.0095 106.434 68.5016 104.687C67.8718 102.534 66.8967 100.797 65.5763 99.4766C64.4793 98.0139 62.3868 96.8458 59.299 95.9723C57.2269 95.4035 54.1695 94.8651 50.1268 94.3573C50.3503 91.696 50.7261 89.7661 51.2543 88.5675L77.3995 79.5782Z" fill="#C9CFD7"/>
<path d="M56.1603 31.0664C58.8013 34.459 60.589 37.0999 61.5235 38.9892L75.3579 82.3512L74.2609 82.5645C63.7784 89.309 54.5453 90.8936 46.5616 87.3182C43.88 86.0993 41.493 84.3624 39.4006 82.1074C38.0192 80.6448 37.0035 79.2634 36.3534 77.9632L20.4164 40.0557C19.6444 37.171 19.1873 33.9714 19.0451 30.457C18.7607 23.428 20.1624 18.3595 23.2503 15.2513C28.7759 9.72567 36.4245 11.3509 46.1959 20.1269C49.5682 23.1741 52.8897 26.8206 56.1603 31.0664Z" fill="#E9EFF8"/>
<path d="M58.3849 34.0222C59.9898 36.3381 61.036 37.9938 61.5235 38.9892L75.3579 82.3512L74.2609 82.5645C66.907 87.2979 60.1117 89.4716 53.875 89.0856C58.5474 82.5442 60.9649 73.8393 61.1274 62.9709C61.1883 57.0186 60.2742 47.3691 58.3849 34.0222Z" fill="#C9CFD7"/>
<path d="M109.913 110.111L95.8048 80.0658L98.334 72.6915L146.907 70.1623C148.329 72.2344 149.67 75.0683 150.929 78.6641C152.493 83.113 153.448 87.4909 153.794 91.7976C154.687 103.743 150.736 112.59 141.94 118.339C135.155 122.768 127.78 122.727 119.817 118.217C117.339 116.815 114.941 115.038 112.626 112.884L109.913 110.111Z" fill="#E9EFF8"/>
<path d="M115.917 115.657C114.373 114.499 112.91 113.23 111.528 111.848L109.913 110.111L95.8048 80.0658L98.334 72.6915L146.907 70.1623L148.674 73.2705C145.038 77.435 140.68 80.8276 135.602 83.4482C130.645 86.0282 125.393 87.6838 119.847 88.4152C120.315 99.3242 119.004 108.405 115.917 115.657Z" fill="#C9CFD7"/>
<path d="M159.218 5.65252C162.976 8.98416 165.129 15.7287 165.678 25.8861C166.246 36.3686 163.89 46.2619 158.608 55.5661C154.119 63.4889 149.152 68.7098 143.707 71.2288C138.649 73.565 132.463 75.2715 125.15 76.3482C117.024 77.5467 110.218 77.4858 104.733 76.1653L94.464 61.6605C94.9922 57.2522 96.7291 52.1938 99.6747 46.4853C102.499 41.0207 106.125 35.556 110.553 30.0913C120.304 18.0243 130.177 9.88817 140.172 5.683C148.786 2.04664 155.134 2.03648 159.218 5.65252Z" fill="#E9EFF8"/>
<path d="M109.365 63.367C112.94 67.4706 115.967 72.0414 118.446 77.0795C113.164 77.4046 108.593 77.0998 104.733 76.1653L99.7357 70.4061L94.464 61.6606C94.789 58.979 95.5813 55.9826 96.8408 52.6712C101.473 55.5559 105.647 59.1212 109.365 63.367Z" fill="#C9CFD7"/>
<path d="M43.0573 114.743C43.3823 114.012 44.3371 113.199 45.9217 112.305C47.5672 111.391 48.522 110.721 48.7861 110.294C49.1314 109.258 49.4768 108.466 49.8221 107.917C50.4519 106.902 51.7622 106.038 53.753 105.327C56.4549 104.372 60.0506 102.097 64.5402 98.5015C70.0862 94.0728 74.1288 89.6036 76.6682 85.0937L83.1588 85.7945L67.039 103.773C64.3777 106.516 61.4625 108.75 58.2934 110.477C56.0791 111.676 54.0781 112.478 52.2904 112.884C50.1573 113.372 49.2939 114.855 49.7002 117.333C49.8628 118.268 49.8323 119.273 49.6088 120.35L48.9689 122.666C48.847 123.113 48.8572 124.413 48.9994 126.566C49.1619 129.167 49.2127 131.076 49.1517 132.295C48.9689 135.789 47.8922 139.223 45.9217 142.595C43.7074 146.353 42.3869 149.441 41.9603 151.858C41.3508 155.292 41.6556 158.065 42.8745 160.177C43.5245 161.274 44.3879 162.382 45.4646 163.499L46.4397 165.906C46.6835 166.678 46.6022 167.105 46.1959 167.186C45.424 167.348 43.9511 167.826 41.7774 168.618C38.9131 169.675 36.3229 170.802 34.007 172.001C32.0568 173.016 29.3143 175.393 25.7795 179.131C23.6668 181.366 21.4626 183.885 19.167 186.688C18.9842 186.912 18.781 186.942 18.5576 186.78C18.3748 186.637 18.263 186.455 18.2224 186.231L17.7044 183.58C17.6028 182.686 17.552 181.163 17.552 179.009C17.552 177.404 19.7765 175.078 24.2254 172.031L30.8684 167.948C33.814 164.129 35.6627 161.417 36.4143 159.812C36.9019 158.755 36.8816 157.343 36.3534 155.576C36.0487 154.499 35.3884 152.894 34.3727 150.761C33.6007 149.116 33.5195 146.658 34.1289 143.387C34.7587 139.913 36.008 136.582 37.877 133.392C39.4209 130.731 40.65 127.044 41.5641 122.331L43.0573 114.743Z" fill="#6791B9"/>
<path d="M48.2985 117.425C48.5423 117.059 48.8064 116.795 49.0908 116.632L49.6088 116.389L49.7003 117.333C49.8628 118.268 49.8323 119.273 49.6088 120.35L48.9689 122.666C48.847 123.113 48.8572 124.413 48.9994 126.566C49.1619 129.167 49.2127 131.076 49.1518 132.295C48.9689 135.789 47.8922 139.223 45.9217 142.595C43.7074 146.353 42.3869 149.441 41.9603 151.858C41.3509 155.292 41.6556 158.065 42.8745 160.177C43.5246 161.274 44.3879 162.382 45.4646 163.499L46.4397 165.906C46.6835 166.678 46.6022 167.105 46.196 167.186C45.424 167.348 43.9512 167.826 41.7775 168.618C38.9131 169.675 36.3229 170.802 34.0071 172.001C32.1381 172.955 27.5876 177.364 20.3555 185.226C20.0508 184.961 19.8273 184.626 19.6851 184.22C19.4007 183.448 19.7968 182.016 20.8735 179.923C21.8893 177.953 24.713 175.16 29.3448 171.543C34.8501 167.257 37.9684 164.718 38.6998 163.925C40.0609 162.442 40.4672 160.055 39.9187 156.764L39.3702 153.047C39.2889 151.706 39.5022 150.599 40.0101 149.725C41.1274 147.816 42.4174 143.925 43.8801 138.054C45.2818 132.448 46.196 127.704 46.6226 123.824C46.9679 120.695 47.5266 118.562 48.2985 117.425Z" fill="#567C9D"/>
<path d="M76.6682 85.0937L83.1588 85.7945L67.039 103.773C65.1091 105.764 63.0369 107.491 60.8226 108.953C61.9196 106.902 62.4275 105.134 62.3462 103.651C62.3056 102.29 61.8079 101.488 60.8531 101.244C63.9816 99.0703 66.8358 96.7138 69.4158 94.1744C72.5646 91.1069 74.9821 88.08 76.6682 85.0937Z" fill="#567C9D"/>
<path d="M49.1823 85.4289C46.196 82.016 43.9715 79.1008 42.5089 76.6834C41.4322 74.916 41.4728 73.7377 42.6308 73.1486L44.7029 72.8134L47.4149 76.4091C49.6089 78.9282 51.6607 80.5026 53.5703 81.1323C55.6221 81.7824 56.9933 82.8286 57.684 84.271C58.0294 84.982 58.3849 86.6376 58.7506 89.2379C59.4616 86.8205 61.5845 83.3263 65.1193 78.7555C67.5774 75.6067 69.5174 73.3213 70.9395 71.8992L72.067 76.6529C71.8232 78.9688 70.523 81.8637 68.1665 85.3375C66.6632 87.5518 64.9466 89.7153 63.0167 91.8281C62.4885 93.1079 61.7064 93.7275 60.6703 93.6869C59.9187 93.6463 58.5373 93.1486 56.5261 92.1938C54.9009 91.4421 52.453 89.1872 49.1823 85.4289Z" fill="#6791B9"/>
<path d="M70.9394 71.8992L72.0669 76.6529C71.8637 78.8063 70.7261 81.4675 68.654 84.6366C67.2523 86.79 65.5865 88.9535 63.6565 91.1272C64.1847 88.9129 64.4184 87.308 64.3574 86.3126C64.2762 84.6671 63.5347 83.5092 62.1329 82.8388C63.6159 80.6651 65.4341 78.2882 67.5875 75.7083C69.233 73.7174 70.3503 72.4477 70.9394 71.8992Z" fill="#567C9D"/>
<path d="M44.7029 72.8134L45.9827 74.6417C47.0391 76.0434 48.1158 77.2623 49.2128 78.2984C47.1 77.5264 45.7592 78.2781 45.1904 80.5533C43.9715 78.9282 43.0777 77.6382 42.5089 76.6834C41.4322 74.916 41.4728 73.7377 42.6308 73.1486L44.7029 72.8134Z" fill="#567C9D"/>
<path d="M4.02241 27.0136L44.1544 55.4442L49.1518 67.9988C48.5424 69.8474 47.3641 71.6453 45.617 73.3924C42.9355 76.0333 39.4312 77.8718 35.1041 78.9078C33.3977 79.3751 31.742 79.5478 30.1371 79.4259C28.451 79.304 27.3438 78.8875 26.8157 78.1765C26.2265 77.4045 21.869 69.1872 13.7431 53.5245C5.57649 37.7805 1.31037 29.3701 0.944707 28.2934C0.558725 27.1152 0.639985 26.3838 1.18849 26.0994C1.77762 25.7744 2.72226 26.0791 4.02241 27.0136Z" fill="#DBDCDC"/>
<path d="M9.11121 30.6398L44.1543 55.4442L49.1518 67.9988C48.5423 69.8474 47.364 71.6453 45.617 73.3923C42.976 75.9926 39.5428 77.821 35.3173 78.8774C35.8252 78.7148 36.5769 78.2882 37.5723 77.5975C39.9694 75.9926 42.0619 73.7174 43.8496 70.7717C43.0167 69.5732 31.4372 56.1958 9.11121 30.6398Z" fill="#B4B4B5"/>
<path d="M107.506 98.1053C110.411 105.094 111.224 112.112 109.944 119.162C108.786 125.561 106.125 131.137 101.96 135.891C97.9175 140.523 93.2857 143.448 88.0648 144.667C82.5595 145.967 77.4706 145.043 72.7982 141.894C68.3899 138.928 65.495 134.774 64.1136 129.431C62.8744 124.697 62.8846 119.365 64.1441 113.433C65.302 108.029 67.3132 102.818 70.1776 97.8006C72.981 92.9251 76.0689 89.1465 79.4412 86.4649L97.6331 83.7224L107.506 98.1053Z" fill="#F9BE00"/>
<path d="M107.506 98.1053C109.903 103.875 110.868 109.715 110.401 115.627C109.974 121.01 108.42 126.008 105.739 130.619C103.179 135.028 99.9287 138.532 95.9876 141.132C92.0059 143.793 87.9023 145.144 83.6768 145.185C84.4894 144.271 84.8754 142.544 84.8348 140.005C84.7738 137.262 85.0989 135.261 85.8099 134.002C89.1415 133.372 92.1278 130.477 94.7687 125.317C97.2878 120.34 98.7403 114.824 99.1263 108.771C99.5123 102.209 98.4559 96.8966 95.9572 92.8336C93.0318 88.1206 88.4915 85.8555 82.3361 86.0383L97.6331 83.7224L107.506 98.1053Z" fill="#D7A400"/>
<path d="M110.675 112.488C110.858 116.003 110.442 119.781 109.426 123.824C109.588 120.188 108.644 116.44 106.592 112.58C104.499 108.659 101.787 105.591 98.4558 103.377C93.8647 100.289 88.2679 98.8976 81.6656 99.2024C74.8398 99.5071 69.822 101.559 66.6123 105.358C67.303 103.55 68.1765 101.65 69.2329 99.6594L70.5737 97.1912C72.2395 95.0175 74.8297 93.3415 78.3441 92.1633C82.0008 90.9647 85.7895 90.6193 89.7103 91.1272C94.1186 91.696 98.019 93.2907 101.412 95.9114C105.292 98.9383 108.187 103.123 110.096 108.466L110.675 112.488Z" fill="#152139"/>
<path d="M73.682 108.435C78.009 107.156 82.5088 107.135 87.1812 108.374C92.1177 109.675 96.1908 112.143 99.4006 115.779C103.017 119.863 105.048 124.931 105.495 130.985L102.326 135.251C99.8272 138.359 97.6332 140.563 95.7439 141.864C98.0801 136.825 97.8769 132.265 95.1344 128.181C92.717 124.606 88.9892 122.107 83.9511 120.685C78.9943 119.284 74.6164 119.416 70.8176 121.081C66.5718 122.95 64.3879 126.323 64.266 131.198C63.1284 129.268 62.7018 126.099 62.9862 121.691L63.748 115.657C65.8811 112.184 69.1924 109.776 73.682 108.435Z" fill="#152139"/>
<path d="M110.096 108.466L110.614 112.488C110.756 116.003 110.32 119.781 109.304 123.824C109.466 120.147 108.603 116.48 106.714 112.823C104.804 109.045 102.194 106.048 98.8824 103.834L98.5777 100.909C98.2121 98.3898 97.5214 95.759 96.5056 93.0165C99.4919 94.3369 102.092 96.2059 104.307 98.6234C106.785 101.305 108.715 104.586 110.096 108.466Z" fill="#0B132A"/>
<path d="M95.9267 141.467C98.4052 136.165 97.7449 131.28 93.946 126.81C96.3026 123.275 97.7551 119.212 98.3036 114.621C102.61 118.867 105.007 124.322 105.495 130.985L102.326 135.373C99.8475 138.481 97.7144 140.513 95.9267 141.467Z" fill="#0B132A"/>
<path d="M88.4 140.492C87.7499 142.402 84.5503 147.389 78.8012 155.454C72.9709 163.661 69.751 167.501 69.1415 166.973C68.5321 166.465 68.6337 161.396 69.4463 151.767C70.2385 142.361 70.9597 136.704 71.6098 134.794C72.1989 133.047 73.5194 131.838 75.5712 131.168C77.623 130.497 79.8068 130.558 82.1227 131.351C84.4589 132.143 86.2365 133.433 87.4554 135.221C88.6743 136.988 88.9891 138.745 88.4 140.492Z" fill="#F9BE00"/>
<path d="M85.5661 133.484C86.8866 134.317 87.8007 135.353 88.3086 136.592C88.8165 137.831 88.847 139.131 88.4 140.492C87.75 142.361 85.3528 146.353 81.2086 152.468C76.5768 159.273 72.8185 163.915 69.9338 166.394C72.6357 162.168 75.3681 157.282 78.1309 151.737C81.7063 144.606 84.1847 138.522 85.5661 133.484Z" fill="#D7A400"/>
<path d="M83.3111 57.303L84.9871 57.364C86.3888 57.5265 87.7499 57.8414 89.0704 58.3086C93.2958 59.8525 96.3634 62.7779 98.273 67.0846C100.69 72.468 100.782 77.3131 98.5472 81.6199C96.1907 86.1298 91.9754 88.4253 85.9012 88.5066C80.2943 88.5675 76.0993 85.8454 73.3162 80.34C72.2395 78.1867 71.6098 75.9927 71.4269 73.758C71.2441 71.6047 71.5183 69.9998 72.2497 68.9434L83.3111 57.303Z" fill="#F9BE00"/>
<path d="M83.3111 57.303L84.9871 57.364C86.3888 57.5265 87.7499 57.8414 89.0704 58.3086C93.2959 59.8525 96.3634 62.7779 98.273 67.0846C100.304 71.5945 100.65 75.82 99.3091 79.7611C97.948 83.824 95.1344 86.4954 90.8683 87.7753C92.656 85.6016 93.6108 83.0318 93.7326 80.0658C93.8545 77.242 93.2045 74.5706 91.7824 72.0516C90.2994 69.4513 88.2476 67.5112 85.627 66.2314C82.722 64.8297 79.4818 64.4538 75.9064 65.1039L83.3111 57.303Z" fill="#D7A400"/>
<path d="M121.859 107.765L112.321 102.189C108.624 100.096 104.947 96.6833 101.29 91.95C98.2629 88.0698 95.9674 84.3421 94.4031 80.7667C94.1797 80.1978 94.3015 79.7408 94.7688 79.3954C95.2563 79.0501 95.6931 79.1313 96.0791 79.6392C98.781 83.2959 101.92 86.6173 105.495 89.6036C108.034 91.7367 112.179 94.2049 117.928 97.0084L127.831 101.823C128.827 102.453 129.304 103.103 129.263 103.773C129.182 104.769 129.568 105.835 130.421 106.973C131.092 107.887 131.945 108.893 132.981 109.99C133.936 111.005 135.236 112.651 136.881 114.926C138.852 117.628 140.569 122.676 142.031 130.071C143.128 135.617 143.88 141.213 144.286 146.861C144.55 150.741 144.357 153.717 143.707 155.789C143.077 157.74 142.834 159.324 142.976 160.543C143.585 165.845 146.958 170.284 153.093 173.859C154.921 174.916 157.176 175.982 159.858 177.059C162.417 178.095 163.809 178.684 164.032 178.826C165.109 179.517 165.81 181.589 166.135 185.043C166.297 186.769 166.348 188.425 166.287 190.01C165.698 189.217 164.967 188.405 164.093 187.572C162.387 185.906 160.894 184.992 159.614 184.829C158.598 184.708 156.394 183.235 153.001 180.411C149.385 177.384 146.226 175.505 143.524 174.774C141.899 174.306 140.071 174.093 138.039 174.134L134.474 173.829C133.662 173.504 133.54 172.712 134.108 171.452C134.393 170.822 135.195 169.522 136.516 167.552C137.491 166.089 138.06 164.616 138.222 163.133C138.385 161.508 138.06 159.72 137.247 157.77L133.743 149.878C132.219 146.323 131.417 143.783 131.335 142.26C131.295 141.508 131.508 139.141 131.975 135.16C132.341 131.828 132.311 129.451 131.884 128.029C131.254 125.876 130.858 124.119 130.696 122.757C130.492 120.97 130.645 119.527 131.153 118.43C131.64 117.374 131.579 115.921 130.97 114.073C130.543 112.793 129.924 111.473 129.111 110.111C128.664 109.36 128.126 109.045 127.496 109.167L125.972 109.746C125.607 109.827 124.235 109.167 121.859 107.765Z" fill="#6791B9"/>
<path d="M106.897 90.7311C104.621 89.6747 102.56 89.8271 100.711 91.1882C97.9684 87.5721 95.8658 84.0983 94.4031 80.7667C94.1797 80.1978 94.3015 79.7408 94.7688 79.3954C95.2563 79.0501 95.6931 79.1313 96.0791 79.6392C98.781 83.2959 101.92 86.6173 105.495 89.6036L106.897 90.7311Z" fill="#567C9D"/>
<path d="M128.319 105.998C128.623 105.53 127.628 104.251 125.332 102.158C123.22 100.208 121.493 98.8469 120.152 98.0749L124.845 100.269C126.328 100.96 127.323 101.478 127.831 101.823C128.827 102.453 129.304 103.103 129.263 103.773C129.182 104.769 129.568 105.835 130.421 106.973C131.092 107.887 131.945 108.893 132.981 109.99C133.936 111.005 135.236 112.651 136.881 114.926C138.852 117.628 140.569 122.676 142.031 130.071C143.128 135.617 143.88 141.213 144.286 146.861C144.55 150.741 144.357 153.717 143.707 155.789C143.077 157.74 142.834 159.324 142.976 160.543C143.585 165.845 146.958 170.284 153.093 173.859C154.921 174.916 157.176 175.982 159.857 177.059C162.417 178.095 163.809 178.684 164.032 178.826C165.109 179.517 165.82 181.589 166.165 185.043C166.328 186.769 166.389 188.425 166.348 190.01C165.739 189.217 164.997 188.405 164.124 187.572C162.397 185.906 160.894 184.992 159.614 184.829C159.106 184.768 158.75 184.545 158.547 184.159L158.09 182.757C157.623 181.152 156.506 179.822 154.738 178.765C153.275 177.912 151.285 176.47 148.766 174.438C146.836 172.894 145.464 172.031 144.652 171.848C143.433 171.584 142.407 170.487 141.574 168.557C140.68 166.485 140.386 164.23 140.69 161.792C140.975 159.598 140.995 156.805 140.751 153.413L140.05 146.587C139.705 143.722 139.197 140.421 138.527 136.683C137.836 132.945 137.298 129.482 136.912 126.292C136.729 124.383 136.282 122.026 135.571 119.223C134.738 116.033 133.865 113.606 132.95 111.94C132.341 110.822 131.163 109.614 129.416 108.314C128.237 107.42 127.872 106.648 128.319 105.998Z" fill="#567C9D"/>
<path d="M124.327 69.1262C124.083 69.6341 123.799 71.4117 123.474 74.4589C123.189 77.2826 123.037 79.4462 123.017 80.9495C123.017 81.7824 122.488 82.8184 121.432 84.0576L119.147 86.2821L118.354 88.0495C118.09 88.6386 117.552 88.4863 116.739 87.5924C114.952 85.6219 111.752 83.8951 107.14 82.4121L102.448 81.1628C101.229 80.7768 100.274 80.0861 99.5834 79.0907C98.3035 77.2623 96.851 75.3629 95.2258 73.3923C92.9709 70.6498 91.1527 68.791 89.7713 67.8159C89.2634 67.4503 89.0298 67.0846 89.0704 66.7189C89.1111 66.3533 89.4056 66.1298 89.9541 66.0485C91.4371 65.7844 93.5397 66.5564 96.2619 68.3644C99.3904 70.4569 105.607 75.2004 114.911 82.595C114.85 82.0465 114.84 81.4269 114.88 80.7362C114.982 79.3547 115.297 78.3187 115.825 77.628C116.313 76.9982 117.196 75.2105 118.476 72.2649C119.797 69.1973 120.579 67.4706 120.823 67.0846L123.138 67.1455C124.215 67.8566 124.611 68.5168 124.327 69.1262Z" fill="#6791B9"/>
<path d="M103.728 73.8799C101.757 73.2501 100.294 73.1486 99.3396 73.5752C98.3442 74.0424 97.8871 75.1496 97.9683 76.8967C94.5757 72.2852 91.8434 69.2583 89.7713 67.8159C89.2634 67.4503 89.0298 67.0846 89.0704 66.7189C89.1111 66.3533 89.4056 66.1298 89.9541 66.0485C91.4371 65.7844 93.5397 66.5564 96.2619 68.3644L103.728 73.8799Z" fill="#567C9D"/>
<path d="M124.327 69.1262C124.083 69.6341 123.799 71.4117 123.474 74.4589C123.189 77.2826 123.037 79.4462 123.016 80.9495C123.016 81.5386 122.732 82.2598 122.163 83.113C122.509 81.2034 122.234 79.3446 121.341 77.5366C120.447 75.7692 119.228 74.6112 117.684 74.0627L119.482 69.9185L120.822 67.0846L123.138 67.1455C124.215 67.8566 124.611 68.5168 124.327 69.1262Z" fill="#567C9D"/>
<path d="M146.175 5.65254C146.114 11.9298 145.048 22.8897 142.976 38.5321C141.046 52.915 139.756 61.0816 139.106 63.0318C138.395 65.1445 136.109 66.8713 132.25 68.2121C128.552 69.5122 125.546 69.817 123.23 69.1263C119.492 68.0293 116.729 66.14 114.941 63.4584C113.154 60.8175 112.585 57.7804 113.235 54.3472C113.763 51.6047 118.232 43.2248 126.643 29.2076C134.708 15.7592 139.908 7.69418 142.244 5.01262C144.337 2.61547 145.515 1.42705 145.779 1.44737C146.064 1.46768 146.196 2.86941 146.175 5.65254Z" fill="#DBDCDC"/>
<path d="M145.718 1.14265C145.942 0.959818 146.094 1.73178 146.175 3.45854C146.236 5.06342 146.216 6.58703 146.115 8.02938C145.058 21.1121 144.246 30.3249 143.677 35.6677C142.234 49.0958 140.711 58.2172 139.106 63.0318C138.375 65.1852 136.069 66.9627 132.189 68.3645C128.41 69.7255 125.424 69.9795 123.23 69.1263L121.188 68.2121C122.651 68.5778 123.87 68.5778 124.845 68.2121C125.8 67.8667 126.602 67.1557 127.252 66.079L136.363 35.881C141.767 17.7196 144.885 6.1401 145.718 1.14265Z" fill="#B4B4B5"/>
<path d="M59.6342 39.0196L67.6789 38.6235C70.0964 38.8063 71.9044 39.1822 73.103 39.751L80.8734 43.2553L77.9785 64.1288C76.0893 66.4041 73.6413 68.8418 70.6347 71.4421C66.9374 74.6519 64.3981 76.2161 63.0167 76.1349C62.1431 76.0942 60.6703 75.2715 58.5982 73.6666C56.3026 71.8992 54.1797 69.8271 52.2295 67.4503C46.846 60.9089 44.9568 54.8754 46.5616 49.3497C48.1665 43.8038 52.524 40.3604 59.6342 39.0196Z" fill="#F9BE00"/>
<path d="M72.0974 50.8734C71.102 45.6321 68.7759 41.5082 65.1193 38.5016L69.9034 38.8673C71.3051 39.1111 72.3717 39.4056 73.103 39.751L80.8734 43.2553L77.9785 64.1288C76.0893 66.4041 73.6413 68.8418 70.6347 71.4421C66.9374 74.6519 64.3981 76.2161 63.0167 76.1349L62.651 76.0739L67.0695 70.8327C68.7556 68.7606 70.0151 66.8916 70.848 65.2258C72.6357 60.6143 73.0522 55.8302 72.0974 50.8734Z" fill="#D7A400"/>
<path d="M46.3788 50.0811C47.1914 50.2233 48.5017 53.0166 50.3097 58.4609C51.9959 63.56 52.8999 66.9221 53.0218 68.5473C53.1233 69.8677 52.1584 69.9591 50.1269 68.8215C48.0954 67.6839 46.5413 66.1196 45.4647 64.1288C43.6566 60.8175 42.9456 57.5468 43.3316 54.3167C43.6973 51.2289 44.713 49.817 46.3788 50.0811Z" fill="#E85377"/>
<path d="M76.6682 46.0283H80.721C83.362 48.4254 84.4386 51.5133 83.9511 55.2918C83.5448 58.4813 82.4681 60.8073 80.721 62.27C77.9582 64.6468 75.6626 66.0079 73.8343 66.3533C71.6809 66.7596 70.3503 65.7133 69.8424 63.2146C69.0908 59.6189 69.4361 56.013 70.8785 52.397C72.3208 48.8012 74.2508 46.6783 76.6682 46.0283Z" fill="#E85377"/>
<path d="M54.6978 44.9313C55.2463 46.4143 55.2158 47.3691 54.6064 47.7957C53.9969 48.2223 53.4078 47.6941 52.839 46.2111C52.3108 44.8094 50.4418 42.0263 47.2321 37.8617C44.1036 33.7988 42.0924 31.4727 41.1986 30.8836C40.4875 30.4163 38.385 32.1228 34.8908 36.0029C32.3514 38.8267 29.9645 41.7419 27.7298 44.7484C26.8157 45.9877 25.7491 47.5824 24.5302 49.5326C23.5348 50.9546 22.5089 51.818 21.4525 52.1227C20.193 52.4884 19.096 51.7469 18.1615 49.8983C17.227 48.0699 17.095 46.5362 17.7654 45.297C18.4155 44.0984 21.2189 40.7769 26.1757 35.3325C31.1529 29.9085 34.3829 26.6378 35.8659 25.5205C37.3083 24.4235 38.5576 23.9461 39.614 24.0883C40.6297 24.2305 41.6556 24.9516 42.6917 26.2518C44.1341 28.1004 46.2163 31.0766 48.9385 35.1802C52.1686 40.076 54.0883 43.3264 54.6978 44.9313Z" fill="#6791B9"/>
<path d="M54.6977 44.9313C55.2462 46.4142 55.2158 47.369 54.6063 47.7957C53.9969 48.2223 53.4078 47.6941 52.8389 46.2111C52.3108 44.8094 50.4418 42.0262 47.232 37.8617C44.1036 33.7987 42.0924 31.4727 41.1985 30.8835C40.4875 30.4163 38.3849 32.1228 34.8908 36.0029C32.3514 38.8267 29.9644 41.7418 27.7298 44.7484C26.8156 45.9876 25.7491 47.5823 24.5302 49.5326C23.5348 50.9546 22.5089 51.818 21.4525 52.1227C21.6963 51.8586 21.9502 51.4117 22.2143 50.7819C22.7425 49.4818 22.8949 48.0191 22.6714 46.3939C22.4683 44.6875 24.8045 40.9699 29.68 35.2411C33.8852 30.3046 36.8308 27.2066 38.517 25.947C39.3702 25.297 40.2742 25.104 41.229 25.3681C41.8994 25.5712 42.387 25.8658 42.6917 26.2518C44.134 28.1004 46.2163 31.0765 48.9385 35.1801C52.1686 40.076 54.0883 43.3264 54.6977 44.9313Z" fill="#567C9D"/>
<path d="M67.2523 19.6088C67.5773 17.7196 68.1461 16.907 68.9587 17.1711C69.5885 17.3742 70.2487 18.1258 70.9394 19.426C75.8962 28.588 79.4716 34.9364 81.6656 38.4712C82.8845 40.4214 82.9353 42.4833 81.818 44.657C80.9241 46.3838 79.8271 47.5214 78.527 48.0699C77.755 48.3746 76.0791 45.8454 73.4991 40.4823L69.8424 32.3462L68.4711 38.0141L66.3076 46.1197C66.0029 47.0339 65.5458 47.3995 64.9364 47.2167C64.3269 47.0135 64.1136 46.4955 64.2964 45.6626L65.7286 33.0471C66.5616 25.1446 67.0694 20.6652 67.2523 19.6088Z" fill="#6791B9"/>
<path d="M81.6656 38.4712C82.8845 40.4214 82.9353 42.4833 81.818 44.657C80.9241 46.3838 79.8271 47.5214 78.527 48.0699C78.3441 48.1309 77.6433 47.3487 76.4244 45.7236C75.1445 43.9968 74.3929 42.6865 74.1694 41.7926C76.8307 44.2914 78.4356 43.9866 78.9841 40.8785C79.4919 38.0141 79.0348 34.9059 77.6128 31.554L81.6656 38.4712Z" fill="#567C9D"/>
<path d="M76.4549 60.2588L80.5687 60.1064C81.686 60.3502 81.9806 60.8479 81.4524 61.5996C80.5789 62.8591 79.2178 63.9866 77.3691 64.982C75.6424 65.8962 74.1695 66.3533 72.9506 66.3533C71.4677 66.3533 70.584 65.6524 70.2995 64.2507C70.137 63.3365 70.7262 62.5036 72.0669 61.7519C73.2249 61.0816 74.6876 60.5838 76.4549 60.2588Z" fill="#ED8599"/>
<path d="M47.4758 66.8713C47.1101 66.3838 47.0898 65.9165 47.4149 65.4696C47.7196 65.0836 48.2275 64.7992 48.9385 64.6164C50.7059 64.1898 51.813 64.5656 52.26 65.7438C52.7069 66.9018 52.9405 67.7753 52.9608 68.3645C52.9811 68.8926 52.8186 69.2786 52.4733 69.5224C52.1279 69.7662 51.4169 69.6443 50.3402 69.1567C49.1619 68.6082 48.2071 67.8464 47.4758 66.8713Z" fill="#ED8599"/>
<path d="M39.4006 83.174C38.4864 82.1785 37.6738 81.1323 36.9628 80.0353L36.1705 78.6641L36.9933 78.1765L37.7551 79.3954C38.4052 80.3502 39.1568 81.2644 40.01 82.1379C42.7525 84.9414 45.9826 86.851 49.7002 87.8667L52.2599 88.3847L53.9663 90.2131C52.463 90.1521 51.0207 89.9287 49.6393 89.5427C45.7388 88.466 42.3259 86.3431 39.4006 83.174Z" fill="#0D131A"/>
<path d="M67.8008 86.8306C68.3087 86.0993 68.6032 85.5305 68.6845 85.1242C70.4316 84.271 72.1989 83.2654 73.9867 82.1074L74.5656 82.9911C72.2497 84.4944 69.9948 85.7743 67.8008 86.8306Z" fill="#0D131A"/>
<path d="M50.7668 88.3542L51.7419 88.7809C51.1325 90.1826 50.7465 92.4782 50.584 95.6676C50.4215 99.2227 50.6145 102.737 51.163 106.211L49.8831 107.064C49.3346 103.387 49.1924 99.6087 49.4565 95.7285C49.68 92.2953 50.1167 89.8372 50.7668 88.3542Z" fill="#0D131A"/>
<path d="M53.0522 117.394C52.3818 116.175 51.7927 114.784 51.2848 113.22C51.8333 112.976 52.331 112.813 52.7779 112.732C53.2452 114.113 53.8038 115.393 54.4539 116.572C56.7089 120.756 59.7764 123.174 63.6565 123.824L63.4737 124.86C58.8013 124.068 55.3274 121.579 53.0522 117.394Z" fill="#0D131A"/>
<path d="M51.8334 69.3396L52.3514 69.2786C52.4936 70.1522 53.0116 72.0008 53.9055 74.8246C55.0025 78.2375 56.0385 80.9292 57.0137 82.8997L55.7643 82.077C54.8298 80.208 53.936 77.7194 53.0827 74.6113C52.4327 72.3157 52.0162 70.5585 51.8334 69.3396Z" fill="#0D131A"/>
<path d="M61.9805 38.7454L61.0359 39.2025C59.1466 35.4646 55.6525 30.8125 50.5534 25.2462C43.7073 17.811 37.6535 13.6566 32.392 12.783C28.9994 12.2345 26.0842 13.1792 23.6464 15.617C20.9852 18.2579 19.6444 22.4326 19.6241 28.1411C19.6241 31.4727 20.0507 34.977 20.9039 38.654C20.9649 38.8978 20.7719 38.9282 20.325 38.7454C19.8577 38.5423 19.5936 38.329 19.5327 38.1055C18.6388 34.3473 18.1919 30.7718 18.1919 27.3793C18.1919 21.4473 19.6342 17.039 22.519 14.1543C24.9567 11.7165 28.1868 10.8227 32.2091 11.4727C37.7348 12.3666 44.0324 16.6429 51.1019 24.3016C56.4041 30.01 60.0303 34.8246 61.9805 38.7454Z" fill="#0D131A"/>
<path d="M36.0487 25.3681L35.5307 25.7947L23.098 15.4341L23.4332 15.038L36.0487 25.3681Z" fill="#0D131A"/>
<path d="M18.6794 27.0136L19.1061 26.7089L27.7602 33.9917L27.3031 34.4488L18.6794 27.0136Z" fill="#0D131A"/>
<path d="M32.91 38.2274L33.3366 37.7094L47.1406 47.9785L46.8359 48.4051L32.91 38.2274Z" fill="#0D131A"/>
<path d="M52.8084 27.3488L53.0522 27.7145L44.1543 28.263L44.0629 27.6535L52.8084 27.3488Z" fill="#0D131A"/>
<path d="M34.5861 39.1111L35.3174 39.6596L37.0848 50.2944L36.4753 50.0202L34.5861 39.1111Z" fill="#0D131A"/>
<path d="M70.1472 88.4152L71.5184 83.8444L72.0365 83.9967L70.6043 88.7504L70.5433 88.7809C58.7201 97.8616 51.9857 102.757 50.3402 103.468L50.4316 102.493C52.0162 101.823 58.588 97.1303 70.1472 88.4152Z" fill="#0D131A"/>
<path d="M60.0913 96.3989L60.4874 95.9723L62.2244 100.269L61.7368 100.939L60.0913 96.3989Z" fill="#0D131A"/>
<path d="M56.1299 119.436C56.9222 117.75 57.9785 115.698 59.299 113.281C61.2695 109.705 62.5595 107.765 63.169 107.46L64.1136 106.79C63.5854 107.257 62.4986 109.004 60.8531 112.031C59.5123 114.51 58.0801 117.283 56.5565 120.35L56.1299 119.436Z" fill="#0D131A"/>
<path d="M116.008 116.602C114.484 115.424 113.052 114.144 111.711 112.763L110.096 110.965L110.31 109.776L111.955 111.513C113.316 112.854 114.759 114.093 116.282 115.231C121.117 118.827 125.861 120.746 130.513 120.99L130.421 121.752L130.482 122.514C125.647 122.31 120.823 120.34 116.008 116.602Z" fill="#0D131A"/>
<path d="M146.45 70.467L147.333 69.8576C149.568 73.1079 151.488 77.4553 153.093 82.8997C155.205 90.0912 155.703 96.531 154.586 102.219C153.895 105.713 152.493 108.872 150.381 111.696C148.471 114.215 145.901 116.582 142.671 118.796C141.533 119.548 140.487 120.147 139.532 120.594L139.014 119.345C139.929 118.938 140.802 118.451 141.635 117.882C147.628 114.022 151.335 108.547 152.757 101.457C153.875 95.8504 153.519 89.6544 151.691 82.8692C150.269 77.6077 148.522 73.4736 146.45 70.467Z" fill="#0D131A"/>
<path d="M119.512 85.6422L119.847 85.1851C123.362 86.6884 129.202 88.2628 137.369 89.9083C145.109 91.4522 150.533 92.2242 153.641 92.2242V92.7422C150.106 92.7422 144.804 92.082 137.735 90.7615C129.629 89.2379 123.555 87.5315 119.512 85.6422Z" fill="#0D131A"/>
<path d="M138.192 90.3045H138.74C138.842 92.1328 138.425 94.723 137.491 98.0749C136.475 101.691 135.297 104.433 133.956 106.302L133.529 105.998C134.748 104.312 135.876 101.407 136.912 97.2826C137.765 93.89 138.192 91.564 138.192 90.3045Z" fill="#0D131A"/>
<path d="M129.081 103.834C130.421 104.281 131.914 104.931 133.56 105.784L136.668 107.43C137.339 107.735 137.714 107.968 137.796 108.131L138.253 109.685L141.026 118.918L140.508 119.07L137.125 108.588C133.651 106.434 130.909 105.012 128.898 104.322L129.081 103.834Z" fill="#0D131A"/>
<path d="M106.348 75.9825C109.253 76.5513 112.676 76.7646 116.617 76.6224L115.855 77.7804L107.628 77.2623L106.348 75.9825Z" fill="#0D131A"/>
<path d="M143.25 3.73278C143.433 3.65153 143.311 3.91562 142.884 4.52506L141.97 5.53065L140.386 6.17057C135.632 8.16142 130.624 11.3508 125.363 15.7389C120.365 19.9034 115.642 24.7079 111.193 30.1522C106.724 35.6169 103.078 41.0613 100.254 46.4854C97.2675 52.1938 95.5103 57.2725 94.9821 61.7215L93.946 61.5996C94.4539 57.171 96.1604 51.9805 99.0654 46.0283C102.052 39.8932 105.779 34.0628 110.249 28.5372C114.779 22.9506 119.695 18.0852 124.997 13.941C129.954 10.0812 134.921 7.10505 139.898 5.01262L143.25 3.73278Z" fill="#0D131A"/>
<path d="M165.16 25.9166C164.55 14.8044 162.011 7.84654 157.542 5.04309C154.677 3.2757 150.909 2.98114 146.236 4.1594C146.155 4.17971 146.094 3.97656 146.054 3.54995C146.033 3.10303 146.064 2.86941 146.145 2.84909C151.386 1.50831 155.49 1.76225 158.456 3.6109C160.914 5.15483 162.813 7.65355 164.154 11.1071C165.495 14.6215 166.328 19.2838 166.653 25.0938C166.978 30.9851 166.267 36.9475 164.52 42.9811C163.199 47.4909 161.381 51.7774 159.065 55.8404C156.81 59.8017 154.474 63.1842 152.057 65.9876C149.355 69.1161 146.775 71.2492 144.317 72.3868C141.899 73.5041 138.862 74.4995 135.205 75.3731C131.447 76.2872 127.557 76.9475 123.535 77.3538V76.0434C127.313 75.5356 131.041 74.7941 134.718 73.819C138.171 72.8642 141.097 71.8383 143.494 70.7413C148.979 68.2019 153.936 62.9099 158.364 54.8652C163.443 45.6626 165.708 36.0131 165.16 25.9166Z" fill="#0D131A"/>
<path d="M129.873 24.911L129.903 25.429L113.54 26.1604L114.271 25.6119L129.873 24.911Z" fill="#0D131A"/>
<path d="M158.425 8.97402L160.924 7.5723L161.198 8.02938L158.669 9.4311C152.067 13.0675 147.719 15.5763 145.627 16.9578C145.383 17.1203 145.271 17.039 145.292 16.714C145.332 16.4093 145.434 16.1959 145.596 16.0741C146.897 15.1599 149.009 13.9308 151.935 12.3869L158.425 8.97402Z" fill="#0D131A"/>
<path d="M155.256 30.8531C159.38 28.3543 162.823 26.6073 165.586 25.6118L165.769 26.1299C163.23 27.0237 159.736 28.8724 155.287 31.6758C150.431 34.7027 146.46 37.6382 143.372 40.4823C143.128 40.6855 142.996 40.6651 142.976 40.4214C142.935 40.1776 143.047 39.9338 143.311 39.69C146.399 36.7444 150.381 33.7987 155.256 30.8531Z" fill="#0D131A"/>
<path d="M152.422 49.685C157.115 47.2675 160.568 45.8556 162.783 45.4493L162.905 45.9673C161.137 46.3736 157.836 47.7754 153.001 50.1725C147.537 52.915 143.484 55.3833 140.843 57.5773L140.508 57.5468C140.508 57.3436 140.609 57.1608 140.812 56.9983C143.494 54.6824 147.364 52.2446 152.422 49.685Z" fill="#0D131A"/>
<path d="M150.167 34.3879L150.716 34.3574L152.239 50.203L151.325 50.6601L150.167 34.3879Z" fill="#0D131A"/>
<path d="M116.252 46.7901C116.434 46.6885 116.546 46.7393 116.587 46.9424C116.607 47.1456 116.506 47.3081 116.282 47.43C113.235 49.238 109.751 51.5945 105.83 54.4996C101.889 57.3843 98.5168 60.0658 95.7133 62.5442L95.3477 62.1786C103.067 55.2715 110.035 50.142 116.252 46.7901Z" fill="#0D131A"/>
<path d="M106.318 76.013L115.49 64.6468L116.282 65.2867L106.714 76.3482L106.318 76.013Z" fill="#0D131A"/>
<path d="M134.078 74.6722L136.028 66.9018L137.125 65.6524L134.565 74.7941L134.078 74.6722Z" fill="#0D131A"/>
<path d="M49.2127 110.599C48.908 111.107 48.0243 111.757 46.5616 112.549C44.8349 113.504 43.8293 114.306 43.5449 114.957C43.3621 115.363 43.098 116.632 42.7526 118.766C42.2041 121.955 41.7165 124.372 41.2899 126.018C40.4977 129.106 39.5124 131.655 38.3341 133.666C37.034 135.901 36.0182 138.278 35.2869 140.797C34.6165 143.133 34.2813 145.256 34.2813 147.166C34.2813 148.567 34.4743 149.705 34.8603 150.579L36.5058 154.357C37.034 155.779 37.2981 156.998 37.2981 158.014C37.2981 158.786 37.1559 159.456 36.8715 160.025C36.3026 161.285 35.3986 162.839 34.1594 164.687C32.8796 166.577 31.9248 167.765 31.295 168.252L25.0787 172.336C21.4627 174.895 19.3093 176.968 18.6186 178.552C18.0904 179.751 17.999 181.457 18.3443 183.671C18.6897 185.886 19.0757 186.617 19.5023 185.865C20.518 184.118 22.519 181.67 25.5053 178.522C28.8979 174.946 31.6505 172.61 33.7633 171.513C35.5307 170.599 37.5317 169.746 39.7663 168.953L44.002 167.582L45.7998 167.064C46.0842 166.962 46.2061 166.759 46.1655 166.455C46.1046 166.13 45.7998 165.459 45.2513 164.443C44.7028 163.448 44.327 162.849 44.1239 162.646C43.23 161.67 42.5799 160.787 42.1736 159.995C41.4626 158.613 41.1071 156.978 41.1071 155.088C41.1071 154.012 41.2188 152.905 41.4423 151.767C41.747 150.081 42.2447 148.466 42.9354 146.922C43.3621 145.967 44.0426 144.708 44.9771 143.143C46.1147 141.213 46.907 139.68 47.3539 138.542C48.0853 136.673 48.5119 134.581 48.6338 132.265L48.6642 130.985L48.4814 126.719L48.329 123.885L48.4509 122.544L48.6338 121.965C49.0604 120.604 49.2737 119.466 49.2737 118.552L49.1823 117.425L49.0604 116.175C49.0604 114.124 50.0964 112.854 52.1685 112.366C53.2655 112.143 55.0837 111.34 57.6231 109.959C61.4016 107.887 64.7434 105.358 67.6484 102.371L67.4351 104.139C63.9816 107.674 60.6093 110.223 57.3183 111.787C56.1198 112.377 54.4844 112.915 52.4123 113.402C51.5185 113.606 50.909 114.134 50.584 114.987C50.2793 115.759 50.2285 116.734 50.4316 117.912C50.5738 118.766 50.5332 119.588 50.3097 120.381L49.6393 122.27L49.4565 122.818C49.3752 123.143 49.3956 124.413 49.5174 126.627C49.68 129.106 49.7206 131.208 49.6393 132.935C49.4971 135.596 49.2635 137.587 48.9385 138.908C48.6134 140.127 48.004 141.478 47.1101 142.961L44.4895 147.013C43.4128 148.801 42.7425 150.447 42.4784 151.95C41.9908 154.652 42.0822 156.896 42.7526 158.684C43.1386 159.72 43.8496 160.797 44.8857 161.914C46.4093 163.56 47.2828 164.992 47.5063 166.211C47.7094 167.328 47.3641 167.978 46.4702 168.161C41.94 169.157 37.8669 170.589 34.2508 172.458C32.3006 173.453 29.3143 176.338 25.292 181.112C21.5338 185.52 19.4616 187.724 19.0757 187.724C18.2631 187.724 17.6028 186.648 17.095 184.494C16.6277 182.483 16.5058 180.573 16.7293 178.765C17.0543 176.165 21.6455 172.417 30.5028 167.521C33.3671 163.864 35.1752 161.224 35.9268 159.598C36.13 159.131 36.2315 158.603 36.2315 158.014C36.2315 157.14 35.9268 156.043 35.3174 154.723L33.55 151.218C33.1234 150.284 32.9101 149.004 32.9101 147.379C32.9101 145.449 33.3062 143.214 34.0985 140.675C34.9111 138.054 36.0182 135.535 37.42 133.118C38.5373 131.229 39.4007 128.75 40.0101 125.683L41.1376 118.583C41.5236 116.287 41.8181 114.936 42.0213 114.53C42.2651 113.981 42.844 113.423 43.7582 112.854L46.0741 111.635C47.3539 110.944 48.1056 110.406 48.329 110.02L48.7556 109.014C49.1416 107.897 49.4463 107.196 49.6698 106.912C50.3199 106.059 51.4778 105.327 53.1437 104.718C55.7846 103.783 59.3295 101.62 63.7785 98.2272C69.5072 93.8392 73.6515 89.3801 76.2111 84.8499L77.1253 85.3679C74.586 89.8575 70.5636 94.3268 65.0583 98.7757C60.4875 102.473 56.78 104.819 53.9359 105.815C52.4326 106.363 51.3661 106.963 50.7363 107.613C50.3504 107.999 50.0253 108.578 49.7612 109.35L49.2127 110.599Z" fill="#0D131A"/>
<path d="M48.5729 78.3898C47.3946 77.2725 46.2671 75.952 45.1904 74.4284L46.0132 73.7885C48.776 77.5874 51.356 79.8626 53.7531 80.6143C55.6221 81.2237 56.9527 82.1176 57.745 83.2958C58.3341 84.1491 58.7506 85.4492 58.9944 87.1963C60.1523 84.3928 62.3057 81.0612 65.4545 77.2014C67.2422 75.0277 68.9486 73.1283 70.5738 71.5031L71.3052 72.2649C69.7206 73.9104 67.8516 76.1044 65.6983 78.8469C62.3057 83.1536 60.264 86.4751 59.5733 88.8113C59.2889 89.7864 58.9944 90.1623 58.6896 89.9388L58.2326 89.4512L58.1107 88.4457C58.1107 87.4299 57.8161 86.3228 57.227 85.1242C56.3737 83.3365 55.1041 82.1684 53.4179 81.6199C51.874 81.1323 50.259 80.0556 48.5729 78.3898Z" fill="#0D131A"/>
<path d="M48.7557 85.9774C45.8303 82.5036 43.5957 79.497 42.0518 76.9576L41.6556 76.2263L42.6003 75.7997L42.9659 76.4091C44.388 78.725 46.5718 81.5894 49.5175 85.0023C52.7882 88.7402 55.2056 90.985 56.7699 91.7367L59.5429 92.9251L61.3712 93.047C61.8384 92.8642 62.2143 92.3969 62.4987 91.6453L62.6206 91.4624C64.1848 89.7966 65.7084 87.9175 67.1914 85.8251C69.8526 82.0668 71.3051 78.9891 71.5489 76.592L72.1584 77.5366C71.7521 81.437 68.8471 86.3025 63.4433 92.1328L62.8643 93.4126C62.6612 93.7783 62.4072 94.0221 62.1025 94.144C60.8024 94.6518 58.8318 94.2862 56.1909 93.047C54.5454 92.275 52.067 89.9185 48.7557 85.9774Z" fill="#0D131A"/>
<path d="M43.0878 55.3223L28.1869 44.7789L28.7963 43.8647L43.2097 54.1339L43.0878 55.3223Z" fill="#0D131A"/>
<path d="M0.030479 26.7698C0.0507939 26.1807 0.22347 25.7642 0.548507 25.5204C1.3611 24.8907 2.5292 25.1243 4.05282 26.2213L22.519 39.3853L21.6658 40.1471L3.71762 27.4402C3.08786 26.9933 2.54952 26.7089 2.10259 26.587C1.77756 26.4854 1.54393 26.4854 1.40173 26.587C1.15795 26.7495 1.16811 27.2675 1.4322 28.1411C1.77756 29.1771 6.0132 37.5062 14.1391 53.1283C22.2448 68.7911 26.6023 77.0287 27.2117 77.8413C27.6587 78.4508 28.6541 78.8063 30.198 78.9078C31.7419 79.0297 33.3367 78.8571 34.9822 78.3898C39.4921 77.2928 43.0776 75.3121 45.7389 72.4477C47.1609 70.9038 48.136 69.37 48.6642 67.8464L49.6393 68.1816C48.8877 70.4772 48.004 72.2446 46.9882 73.4838C44.4895 76.4904 40.6703 78.5117 35.5307 79.5478C33.7836 80.0353 32.006 80.1978 30.198 80.0353C28.2884 79.8525 27.0187 79.3345 26.389 78.4812C25.5561 77.3639 16.9223 60.8073 0.487563 28.8115C0.162525 28.0801 0.0101642 27.3996 0.030479 26.7698Z" fill="#0D131A"/>
<path d="M26.8461 77.8413C29.3448 78.0851 32.3717 77.3741 35.9268 75.7083C40.7211 73.4736 44.3371 70.1115 46.7749 65.6219L47.1406 66.3838C44.8044 71.1171 41.1579 74.5402 36.201 76.6529C32.6663 78.1765 29.5175 78.7961 26.7546 78.5117L26.8461 77.8413Z" fill="#0D131A"/>
<path d="M78.5574 86.5259L79.2278 86.6478L79.7763 86.8916C75.429 90.3248 71.6707 95.4137 68.5016 102.158C65.0684 109.472 63.4838 116.5 63.7479 123.245C64.0323 130.294 66.4295 135.81 70.9394 139.791L70.4823 141.65C68.0648 139.477 66.1552 136.825 64.7535 133.697C63.3315 130.528 62.5493 127.115 62.4071 123.458C62.143 116.734 63.7479 109.665 67.2218 102.25C70.3909 95.4441 74.1694 90.2029 78.5574 86.5259Z" fill="#0D131A"/>
<path d="M107.019 98.3187L108.238 98.7757C111.671 107.064 112.28 115.139 110.066 123.001C108.136 129.929 104.418 135.627 98.913 140.096C94.5859 143.651 90.0253 145.693 85.231 146.221L85.9013 145.398L86.4498 144.423C90.4925 143.793 94.3218 142.006 97.9379 139.06C103.24 134.733 106.856 129.106 108.786 122.178C110.96 114.317 110.371 106.363 107.019 98.3187Z" fill="#0D131A"/>
<path d="M100.68 94.9667C105.089 98.0343 108.339 102.493 110.432 108.344L109.792 108.588C107.74 102.879 104.571 98.532 100.284 95.5457C97.3183 93.4533 93.9867 92.1226 90.2894 91.5538C86.4702 90.9647 82.7018 91.2288 78.9842 92.3461C75.2869 93.4431 72.5748 95.1292 70.8481 97.4045L70.2996 96.9779C72.1076 94.5807 74.911 92.8133 78.7099 91.6757C82.5088 90.5178 86.4092 90.2537 90.4113 90.8834C94.1898 91.4522 97.6129 92.8133 100.68 94.9667Z" fill="#0D131A"/>
<path d="M102.722 106.638C106.379 110.436 108.705 115.271 109.7 121.142L109.03 121.264C108.055 115.556 105.79 110.843 102.234 107.125C98.659 103.408 94.1187 101.01 88.6133 99.9337C84.1237 99.0805 79.7256 99.2836 75.4188 100.543C71.1324 101.762 68.2172 103.641 66.6733 106.181L66.399 105.51C68.0242 102.869 70.9902 100.949 75.2969 99.7509C79.624 98.5523 84.1136 98.3898 88.7657 99.2633C94.4132 100.36 99.0653 102.818 102.722 106.638Z" fill="#0D131A"/>
<path d="M63.4432 115.475C65.5154 112.082 68.7251 109.685 73.0725 108.283C77.4198 106.861 81.9805 106.739 86.7545 107.917C92.3005 109.258 96.7596 111.97 100.132 116.054C103.504 120.116 105.404 125.083 105.83 130.954L105.129 131.015C104.723 125.307 102.884 120.462 99.6138 116.48C96.3228 112.519 91.9856 109.888 86.6021 108.588C81.9704 107.45 77.5417 107.562 73.3162 108.923C69.1111 110.264 66.0131 112.57 64.0222 115.84L63.4432 115.475Z" fill="#0D131A"/>
<path d="M71.2746 120.533C74.7079 119.212 78.5981 119.05 82.9455 120.045C87.2929 121.041 90.8277 122.91 93.5499 125.652C95.622 127.724 96.9221 130.071 97.4503 132.691C97.9785 135.332 97.6839 138.075 96.5666 140.919L95.9267 140.645C96.9831 137.943 97.2675 135.342 96.7799 132.844C96.2721 130.345 95.0328 128.1 93.0623 126.109C90.4214 123.468 86.9983 121.671 82.7932 120.716C78.588 119.741 74.8399 119.893 71.5489 121.173C69.7002 121.884 68.2071 122.9 67.0695 124.22C65.5662 125.967 64.7536 128.171 64.6317 130.833L63.9613 130.802C64.0629 128.364 64.7536 126.262 66.0334 124.494C67.2929 122.727 69.04 121.406 71.2746 120.533Z" fill="#0D131A"/>
<path d="M78.1308 130.193C79.5122 130.132 80.9038 130.345 82.3055 130.833C85.0684 131.808 87.0795 133.331 88.339 135.403C89.5782 137.394 89.7509 139.304 88.8571 141.132C85.4442 148.12 81.4015 154.469 76.7291 160.177C72.6255 165.154 70.0252 167.511 68.9282 167.247C67.9125 167.003 67.8211 161.884 68.654 151.889C69.4259 142.483 70.1369 136.836 70.787 134.946C71.0511 134.195 71.5082 133.463 72.1583 132.752C72.8083 132.062 73.5295 131.513 74.3218 131.107C75.4798 130.538 76.7494 130.233 78.1308 130.193ZM78.1918 131.259C76.9323 131.3 75.7946 131.564 74.7789 132.051C73.4381 132.722 72.5443 133.687 72.0973 134.946C71.5488 136.592 70.848 142.117 69.9947 151.523C69.1618 161.031 68.979 165.855 69.4462 165.998C70.3807 166.18 73.56 162.392 78.9841 154.631C84.2456 147.095 87.2116 142.331 87.882 140.34C88.0445 139.913 88.1257 139.416 88.1257 138.847C88.1257 137.425 87.5569 136.064 86.4193 134.763C85.2817 133.423 83.7987 132.448 81.9703 131.838C80.7311 131.412 79.4716 131.219 78.1918 131.259Z" fill="#0D131A"/>
<path d="M99.7662 66.8713C99.9694 67.3792 100.132 68.0699 100.254 68.9434L100.528 71.0155C100.081 70.5686 99.4818 70.1725 98.7302 69.8271L97.7855 67.2979C95.9572 63.174 93.0522 60.3604 89.0705 58.8571C87.8109 58.3695 86.5108 58.0547 85.17 57.9125L83.3417 57.8211L83.7988 56.6936H85.688C87.2117 56.7951 88.6845 57.0897 90.1065 57.5773C94.6367 59.0806 97.8566 62.1786 99.7662 66.8713Z" fill="#0D131A"/>
<path d="M99.1262 78.5117L100.071 79.4259C99.6849 80.5432 99.238 81.5183 98.7301 82.3512L97.9073 81.6504C98.4355 80.7159 98.8418 79.6697 99.1262 78.5117Z" fill="#0D131A"/>
<path d="M85.9013 87.9886C90.2284 87.9276 93.6311 86.6275 96.1096 84.0881L96.719 85.0632C94.2203 87.6838 90.8683 89.0246 86.6632 89.0856C83.3315 89.1059 80.3656 88.273 77.7653 86.5868C75.7135 85.2664 74.1797 83.6615 73.1639 81.7722C71.9044 79.4563 71.1223 77.3334 70.8176 75.4035C70.4722 73.3517 70.7059 71.7265 71.5184 70.528L73.0725 69.3395C72.3818 70.3756 72.0873 71.9195 72.1888 73.9713C72.2904 76.2669 72.8999 78.4507 74.0172 80.5229C75.0735 82.4934 76.394 84.0983 77.9786 85.3375C80.2538 87.1252 82.8948 88.0089 85.9013 87.9886Z" fill="#0D131A"/>
<path d="M101.838 91.7976C105.454 96.3888 109.03 99.7001 112.564 101.732L119.817 105.967C123.514 108.141 125.536 109.228 125.881 109.228L126.46 109.014C127.049 108.73 127.526 108.598 127.892 108.618C128.542 108.639 129.101 109.045 129.568 109.837C130.401 111.239 131.031 112.58 131.457 113.86C132.128 115.85 132.189 117.445 131.64 118.644C131.153 119.68 131.021 121.102 131.244 122.91C131.406 124.21 131.792 125.866 132.402 127.877C132.707 128.933 132.829 130.325 132.768 132.051L132.28 136.927C131.955 139.588 131.813 141.356 131.853 142.229C131.955 144.058 133.357 147.897 136.059 153.748L137.735 157.587C138.547 159.537 138.893 161.335 138.771 162.981C138.628 164.626 138.019 166.251 136.942 167.856L136.577 168.435C134.89 170.914 134.139 172.437 134.322 173.006L134.687 173.341L137.46 173.616C139.857 173.575 141.93 173.788 143.677 174.256C145.546 174.763 147.486 175.698 149.497 177.059L154.251 180.777L157.237 183.153C158.212 183.844 159.025 184.23 159.675 184.311C161.483 184.555 163.575 186.13 165.952 189.035C165.891 186.8 165.698 184.819 165.373 183.092C164.987 180.98 164.449 179.71 163.758 179.283C163.555 179.141 162.661 178.745 161.076 178.095C156.323 176.246 152.666 174.388 150.106 172.519C145.535 169.187 142.986 165.215 142.458 160.604L142.366 159.294C142.366 158.44 142.559 157.455 142.945 156.338L143.585 154.113C143.788 153.037 143.89 151.757 143.89 150.274L143.738 146.922C143.331 141.092 142.549 135.312 141.391 129.583C139.949 122.575 138.303 117.79 136.455 115.231C134.769 112.935 133.367 111.198 132.25 110.02L129.995 107.308C129.141 106.13 128.715 105.094 128.715 104.2L128.745 103.529C128.745 103.326 128.674 103.154 128.532 103.011L127.557 102.25C127.029 101.925 125.332 101.092 122.468 99.7509C118.486 97.8819 115.51 96.4192 113.54 95.3629C109.863 93.4126 107.069 91.6351 105.16 90.0302C101.686 87.1252 98.5168 83.7732 95.6524 79.9744C95.4899 79.7712 95.307 79.7103 95.1039 79.7915C94.7991 79.9541 94.728 80.208 94.8906 80.5533C96.4548 84.1288 98.7707 87.8768 101.838 91.7976ZM113.54 94.2963C115.693 95.4949 118.456 96.8763 121.828 98.4406L125.515 100.025C126.917 100.614 127.79 101.021 128.136 101.244C128.887 101.711 129.375 102.168 129.598 102.615C129.761 102.9 129.822 103.306 129.781 103.834C129.761 104.261 129.791 104.616 129.873 104.901C130.015 105.388 130.34 105.977 130.848 106.668L133.011 109.289L134.748 110.965C135.723 111.96 136.739 113.189 137.796 114.652C139.827 117.415 141.564 122.503 143.006 129.918C144.083 135.444 144.835 141.081 145.261 146.831C145.444 149.451 145.353 151.655 144.987 153.443L143.951 156.673L143.494 158.288C143.392 158.898 143.392 159.629 143.494 160.482C144.002 164.809 146.47 168.476 150.899 171.483C152.971 172.884 156.505 174.56 161.503 176.51C162.58 176.917 163.616 177.425 164.611 178.034C165.302 178.481 165.901 179.741 166.409 181.813C166.937 183.966 167.171 186.262 167.11 188.699C167.09 189.939 166.947 190.599 166.683 190.68C166.439 190.761 165.871 190.355 164.977 189.461C164.103 188.588 163.108 187.785 161.99 187.054C160.731 186.221 159.705 185.754 158.913 185.652C158.181 185.571 157.359 185.104 156.445 184.25L153.58 181.569L148.979 177.973C147.029 176.673 145.17 175.769 143.402 175.261L139.075 174.774L135.449 174.804C134.738 174.824 134.129 174.713 133.621 174.469C133.174 174.266 132.91 174.042 132.829 173.798C132.666 173.23 132.91 172.356 133.56 171.178L135.693 167.826L136.089 167.277C137.064 165.815 137.603 164.342 137.704 162.859C137.806 161.396 137.491 159.771 136.759 157.983L135.083 154.174L132.189 147.958C131.173 145.581 130.635 143.804 130.574 142.625C130.553 142.016 130.624 141.112 130.787 139.913L131.244 136.805C131.711 132.966 131.64 130.02 131.031 127.968C129.751 123.743 129.629 120.492 130.665 118.217C131.071 117.364 131.041 116.145 130.574 114.56C130.188 113.24 129.558 111.848 128.684 110.386C128.4 109.939 128.126 109.705 127.862 109.685C127.679 109.665 127.364 109.756 126.917 109.959L126.094 110.264C125.18 110.447 122.915 109.461 119.299 107.308L111.407 102.341C107.648 100.208 104.002 96.7849 100.467 92.0719C97.7448 88.4152 95.561 84.7077 93.9155 80.9495C93.7326 80.5432 93.7225 80.1369 93.885 79.7306C94.0272 79.3649 94.2608 79.0907 94.5858 78.9078C94.8906 78.725 95.2054 78.6641 95.5305 78.725C95.8961 78.7656 96.211 78.9688 96.4751 79.3345C99.2786 83.0318 102.397 86.3228 105.83 89.2075C107.74 90.8123 110.31 92.5086 113.54 94.2963Z" fill="#0D131A"/>
<path d="M123.656 69.5224L124.693 69.6747C124.469 70.528 124.225 72.3055 123.961 75.0074C123.717 77.5671 123.585 79.5478 123.565 80.9495C123.545 81.9855 122.884 83.2451 121.584 84.728L119.482 86.7087C119.4 86.79 119.258 87.0947 119.055 87.6229C118.832 88.4152 118.527 88.852 118.141 88.9332C117.674 89.0348 117.085 88.7097 116.374 87.9581C114.566 86.0079 111.437 84.3319 106.988 82.9302L104.032 82.1074L101.29 81.5589C100.457 81.3151 99.7662 80.7971 99.2177 80.0048C94.7688 73.6057 91.5184 69.6849 89.4666 68.2425C88.9993 67.9175 88.7048 67.5518 88.5829 67.1455C88.4813 66.7799 88.5321 66.4447 88.7353 66.14C89.1822 65.5102 90.2284 65.3477 91.8739 65.6524C93.7225 65.9978 95.6423 66.8307 97.6331 68.1511C99.238 69.2278 102.123 71.4726 106.287 74.8855L114.332 81.4675C114.332 79.6189 114.687 78.2273 115.398 77.2928C115.927 76.6427 116.953 74.5198 118.476 70.9241L119.969 67.5722L120.853 68.1511C120.569 68.7403 120.101 69.8068 119.451 71.3507L117.897 75.1902C117.349 76.5716 116.912 77.4655 116.587 77.8718C116.099 78.4812 115.795 79.2126 115.673 80.0658L115.429 82.534C115.327 83.306 115.155 83.6209 114.911 83.4787L114.576 83.0216C105.251 75.6067 99.045 70.8733 95.9572 68.8215C94.1898 67.6433 92.6662 66.9119 91.3863 66.6275C90.3909 66.4041 89.8018 66.4447 89.6189 66.7494C89.5783 66.79 89.5986 66.8713 89.6799 66.9932L90.076 67.3893C91.4981 68.3848 93.3569 70.274 95.6524 73.0572C97.2776 75.0277 98.7302 76.9373 100.01 78.7859C100.498 79.497 101.087 80.015 101.777 80.34C102.224 80.5635 103.057 80.8174 104.276 81.1018L107.293 81.9246C111.986 83.4076 115.266 85.175 117.135 87.2268L117.867 87.8667L118.05 87.3182C118.253 86.5868 118.507 86.1095 118.811 85.886C119.685 85.1953 120.477 84.4132 121.188 83.5396C122.062 82.4629 122.499 81.5894 122.499 80.919C122.519 79.5985 122.641 77.7093 122.864 75.2512C123.128 72.4883 123.392 70.5788 123.656 69.5224Z" fill="#0D131A"/>
<path d="M145.627 1.75208C145.018 1.38641 139.695 9.41078 129.66 25.8252C119.543 42.3411 114.241 51.8789 113.753 54.4386C113.611 55.1496 113.54 55.9114 113.54 56.724C113.54 59.1618 114.2 61.3558 115.52 63.306C116.942 65.3985 118.974 66.9119 121.615 67.8464C124.886 68.984 128.359 69.0044 132.036 67.9074C135.652 66.8103 137.836 65.1242 138.588 62.849C139.969 58.7047 141.696 47.5214 143.768 29.299C145.8 11.1782 146.419 1.99586 145.627 1.75208ZM146.054 0.807442C147.008 1.09185 146.866 8.69976 145.627 23.6312C144.327 39.3752 142.549 52.2954 140.294 62.3919C139.726 65.0125 137.359 67.0744 133.194 68.5777C129.274 69.9795 125.749 70.2943 122.62 69.5224C118.639 68.527 115.754 66.4345 113.966 63.2451C112.361 60.401 111.915 57.3132 112.626 53.9815C113.54 49.8576 118.994 39.8526 128.989 23.9664C138.964 8.12078 144.652 0.401145 146.054 0.807442Z" fill="#0D131A"/>
<path d="M112.534 55.1395L113.204 55.0176C113.469 56.399 114.291 57.9124 115.673 59.5579C117.278 61.4879 119.228 63.0013 121.523 64.0983C123.758 65.175 126.125 65.7133 128.623 65.7133C131.914 65.7133 135.287 64.7789 138.74 62.9099L139.075 63.5193C135.459 65.4493 132.016 66.465 128.745 66.5666C126.165 66.6478 123.768 66.1603 121.554 65.1039C119.177 63.9663 117.085 62.3106 115.277 60.1369C113.733 58.268 112.818 56.6021 112.534 55.1395Z" fill="#0D131A"/>
<path d="M53.9968 39.9948C57.105 38.5727 60.8023 37.8617 65.0887 37.8617L64.9059 39.0806C60.9039 39.1618 57.5215 39.8221 54.7587 41.0613C54.1086 41.3457 53.6007 41.5996 53.235 41.8231L52.5342 40.7261L53.9968 39.9948Z" fill="#0D131A"/>
<path d="M72.8896 39.1415V40.2385C71.9958 39.7916 70.4823 39.4462 68.3492 39.2025L68.5321 38.1055C70.4823 38.3289 71.9348 38.6743 72.8896 39.1415Z" fill="#0D131A"/>
<path d="M76.3026 65.1649L78.3747 64.464C75.9166 67.369 73.6515 69.817 71.5794 71.8078C67.8008 75.4035 65.0075 77.1201 63.1995 76.9576C62.3463 76.8764 60.9344 76.1247 58.9638 74.7027C56.8308 73.1791 54.8602 71.4421 53.0522 69.4919V68.4559L52.8694 67.3893C54.7587 69.6443 56.8206 71.625 59.0553 73.3314C60.9852 74.7941 62.3158 75.5559 63.0471 75.6168C64.2863 75.6778 66.46 74.4081 69.5682 71.8078C72.2497 69.5529 74.4945 67.3385 76.3026 65.1649Z" fill="#0D131A"/>
<path d="M50.5534 42.0974L51.3153 43.1334C49.2228 44.7992 47.8109 46.9221 47.0796 49.5021L46.8968 50.2334L45.8607 49.9897L46.0436 49.1974C46.9171 46.2314 48.4204 43.8647 50.5534 42.0974Z" fill="#0D131A"/>
<path d="M45.8302 50.4772C44.5098 51.046 43.8292 52.7017 43.7886 55.4442C43.7277 58.3289 44.4387 61.1425 45.9217 63.885C46.8358 65.5508 47.9735 66.8916 49.3346 67.9074C50.6144 68.8418 51.62 69.1974 52.3513 68.9739C52.4732 68.9739 52.524 68.852 52.5037 68.6082C52.3818 66.9018 51.366 63.4076 49.4564 58.1258C47.5265 52.8236 46.3178 50.2741 45.8302 50.4772ZM45.1903 49.6545L46.7444 49.7154C47.5367 50.4061 48.8775 53.4838 50.7668 58.9485C52.1482 62.9099 52.9608 65.7743 53.2045 67.5417C53.4077 69.0044 53.2248 69.817 52.656 69.9795C51.62 70.2842 50.2792 69.9185 48.6337 68.8825C46.9272 67.8058 45.6068 66.4142 44.6723 64.7078C43.169 61.9653 42.5088 59.0399 42.6916 55.9318C42.8541 52.9455 43.687 50.8531 45.1903 49.6545Z" fill="#0D131A"/>
<path d="M76.5463 45.5103L76.8206 46.5463C74.5453 47.1558 72.717 49.2177 71.3356 52.7322C69.9745 56.2263 69.6494 59.6799 70.3605 63.0927C70.6652 64.5757 71.2645 65.4696 72.1583 65.7743C73.0725 66.0993 74.2609 65.9368 75.7236 65.2868C77.2065 64.6367 78.7606 63.5803 80.3858 62.1176C81.3609 61.2644 82.1329 60.0455 82.7017 58.461C83.2299 56.9983 83.5042 55.4645 83.5245 53.8597C83.5651 50.8531 82.5189 48.3746 80.3858 46.4244L81.0867 45.6321C82.3056 46.7291 83.2401 47.9684 83.8901 49.3498C84.5808 50.8124 84.916 52.336 84.8957 53.9206C84.8551 55.8911 84.5808 57.5671 84.073 58.9485C83.5245 60.4315 82.6306 61.8028 81.3914 63.0623C79.6646 64.789 77.8668 65.9673 75.9978 66.5971L71.8231 66.7799C70.5636 66.333 69.7307 65.175 69.3244 63.3061C68.5524 59.5884 68.9181 55.8607 70.4214 52.1227C71.945 48.4051 73.9867 46.201 76.5463 45.5103Z" fill="#0D131A"/>
<path d="M52.8694 45.6626C53.1335 46.1908 53.4179 46.6276 53.7226 46.9729L54.2711 47.3691C54.7383 47.2065 54.718 46.4549 54.2102 45.1141C53.6007 43.5296 51.681 40.2995 48.4509 35.4239C45.6678 31.2391 43.6058 28.2934 42.265 26.587C41.3102 25.3681 40.3859 24.7079 39.4921 24.6063C38.5779 24.5047 37.4707 24.9516 36.1706 25.9471C34.7282 27.0237 31.5388 30.264 26.6023 35.6677C21.6455 41.0511 18.8522 44.3421 18.2224 45.5407C17.8974 46.1502 17.8364 46.9628 18.0396 47.9785C18.2427 48.9942 18.6389 49.8779 19.228 50.6296C19.9187 51.4828 20.6094 51.8078 21.3001 51.6047C22.0111 51.4219 22.6815 50.9648 23.3113 50.2334L25.1396 47.6433C26.0538 46.1806 26.775 45.104 27.3031 44.4132C29.5378 41.427 31.9349 38.5118 34.4946 35.6677C36.7089 33.1893 38.395 31.5743 39.553 30.8226C40.3859 30.2741 41.036 30.1522 41.5032 30.457C42.3971 31.0461 44.3371 33.3721 47.3234 37.4351C50.2081 41.3152 52.0568 44.0577 52.8694 45.6626ZM55.1853 44.7484C55.5306 45.6829 55.6525 46.4447 55.5509 47.0339C55.4494 47.562 55.1751 47.9074 54.7282 48.0699C53.8953 48.3746 53.103 47.7449 52.3513 46.1806C51.62 44.6773 49.7104 41.945 46.6226 37.9836C43.5956 34.0832 41.6962 31.8688 40.9242 31.3406C40.3148 31.2594 38.6388 32.7119 35.8963 35.6982C33.296 38.5219 30.716 41.6403 28.1564 45.0532L26.0233 48.1918L24.0121 51.0867C23.2402 51.9805 22.4174 52.5493 21.5439 52.7931C20.3656 53.1385 19.3093 52.722 18.3748 51.5438C17.6638 50.6702 17.1559 49.624 16.8512 48.4051C16.5261 47.044 16.5871 45.947 17.034 45.1141C17.7044 43.8749 20.5485 40.4823 25.5662 34.9364C30.6043 29.3498 33.8547 26.008 35.3174 24.911C36.8816 23.7327 38.2325 23.1741 39.3702 23.235C40.5484 23.3163 41.6962 24.0679 42.8135 25.49C44.2356 27.298 46.3788 30.3554 49.2432 34.6621C52.5951 39.7205 54.5758 43.0826 55.1853 44.7484Z" fill="#0D131A"/>
<path d="M70.4824 19.6698C70.0964 18.9588 69.7206 18.4204 69.3549 18.0548C69.0502 17.75 68.8166 17.618 68.6541 17.6586C68.5525 17.6586 68.4408 17.7602 68.3189 17.9633C68.0954 18.329 67.9126 18.908 67.7704 19.7003C67.6282 20.5128 67.0898 25.2056 66.1553 33.7784C65.424 40.9293 64.9771 44.9211 64.8146 45.754C64.7536 46.0181 64.7638 46.2416 64.845 46.4244L65.1193 46.6987C65.3834 46.7596 65.6068 46.5158 65.7897 45.9673L67.9227 37.9531L69.3244 32.2244C69.487 31.6149 69.6292 31.3 69.7511 31.2797C69.8933 31.2797 70.0863 31.5743 70.33 32.1634C71.1629 34.1949 72.4936 36.9882 74.3219 40.5433C76.5159 44.85 77.8871 47.0542 78.4356 47.1558C79.0248 47.2573 79.6545 46.912 80.3249 46.1197C80.9344 45.3884 81.4219 44.4742 81.7876 43.3772C81.9704 42.8084 82.0619 42.2193 82.0619 41.6098C82.0619 40.5941 81.7774 39.6393 81.2086 38.7454C79.8678 36.592 77.6942 32.7932 74.6876 27.3488L70.4824 19.6698ZM68.4712 16.6226C69.5479 16.46 70.5027 17.1406 71.3356 18.6642C76.3128 27.9074 79.9694 34.4082 82.3056 38.1664C83.3417 39.8119 83.5347 41.6504 82.8846 43.6819C82.4783 44.9414 81.8485 46.0994 80.9953 47.1558C80.1624 48.2121 79.4615 48.7403 78.8927 48.7403C78.202 48.7403 77.552 48.3848 76.9425 47.6738C76.0283 46.5565 74.718 44.2406 73.0116 40.7261C71.8536 38.329 70.8379 36.0943 69.9644 34.0222C69.1518 37.4148 68.0649 41.2949 66.7038 45.6626C66.5007 46.2924 66.2366 46.7596 65.9116 47.0643C65.5865 47.3691 65.2513 47.4706 64.906 47.3691C64.5606 47.2878 64.3067 47.044 64.1442 46.6377C64.002 46.2314 63.9715 45.7337 64.0527 45.1446L65.3631 32.4377L66.7343 19.5174C67.039 17.7094 67.618 16.7444 68.4712 16.6226Z" fill="#0D131A"/>
<path d="M48.8775 57.4249C49.1822 58.4203 49.2736 59.3243 49.1517 60.1369C49.0095 60.9495 48.6946 61.4269 48.2071 61.5691C47.6992 61.7113 47.171 61.4879 46.6225 60.8987C46.074 60.2893 45.6474 59.4767 45.3427 58.4609C45.0583 57.4452 44.977 56.5412 45.0989 55.7489C45.2411 54.9363 45.556 54.4589 46.0436 54.3167C46.5311 54.1745 47.0491 54.4081 47.5976 55.0176C48.1665 55.627 48.5931 56.4295 48.8775 57.4249Z" fill="white"/>
<path d="M72.3412 53.5854C72.8694 52.4275 73.6109 51.5641 74.5657 50.9953C75.5002 50.4468 76.3534 50.3452 77.1254 50.6905C77.9176 51.0562 78.4052 51.7774 78.588 52.8541C78.7505 53.9308 78.5677 55.0481 78.0395 56.206C77.5113 57.364 76.78 58.2273 75.8455 58.7962C74.911 59.3447 74.0477 59.4361 73.2554 59.0704C72.4631 58.7251 71.9755 58.014 71.7927 56.9373C71.6302 55.8607 71.813 54.7433 72.3412 53.5854Z" fill="white"/>
</g>
<defs>
<clipPath id="clip0_32_2454">
<rect width="167.201" height="191" fill="white"/>
</clipPath>
</defs>
</svg>
